<svg id="Type" xmlns="http://www.w3.org/2000/svg" viewBox="0 0 97.94 235.34"><defs><style>.cls-1{fill:#164344;}</style></defs><path class="cls-1" d="M667.69,513.62h0c-.08-.13,0-.31-.12-.43l0,0v0c0-.12,0-.26-.16-.31a.16.16,0,0,0-.15-.16s-.07,0-.09,0-.09,0-.12,0h0a.24.24,0,0,0-.14.12c-.21.31,0,.68-.15,1-.12.12-.05.29-.11.44h0c-.12.06-.1.19-.14.29s-.08.19-.17.24v0l-.12.15a.24.24,0,0,0-.13.15c-.07,0-.11.07-.16.11h0c-.06.09-.19.06-.26.13s-.05.06-.09,0a.29.29,0,0,0-.19.11.09.09,0,0,1-.13,0c-.32.16-.68,0-1,.12a.52.52,0,0,1-.44,0c-.14-.08-.32,0-.47-.1l0,0,0-.05a.33.33,0,0,0-.19-.11.07.07,0,0,1-.1,0,.5.5,0,0,0-.17-.11.08.08,0,0,1-.11,0,.54.54,0,0,0-.16-.1c0-.11-.19-.06-.24-.17h0c-.13-.1-.15-.3-.32-.37h0a.15.15,0,0,0-.13-.14h0a.21.21,0,0,0-.13-.16.88.88,0,0,0-.12-.15h0c-.1-.07-.06-.2-.16-.27s0-.21-.15-.27,0-.22-.14-.27,0-.23-.12-.31l0,0,0,0a1.12,1.12,0,0,0-.12-.35l0,0v0a5.77,5.77,0,0,1,0-1.76,1,1,0,0,0,.09-.44,2.1,2.1,0,0,1,0-.83h0c.14-.13,0-.32.13-.46a.26.26,0,0,1,0-.24c.08-.08.06-.2.12-.29s0-.3.15-.41.07-.21.13-.3.16-.48.3-.69.06-.2.14-.29.06-.2.13-.28.09-.2.13-.3,0-.29.15-.41h0c.13-.11,0-.29.13-.42s.09-.19.16-.28.08-.19.13-.28h0A5.93,5.93,0,0,0,663,504a.65.65,0,0,0,.13-.35v0l0,0c.07-.08.07-.2.11-.3s0-.31.15-.42,0-.3.14-.43,0-.29.14-.41,0-.32.14-.45a.08.08,0,0,1,0-.11c0-.06.09-.1.09-.17.18-.11.06-.32.15-.45l0-.05,0,0c.14-.18,0-.42.13-.61l0-.05,0,0c.12-.14,0-.33.13-.47s0-.07,0-.1c.15-.23,0-.51.12-.74a.31.31,0,0,1,0-.25c.15-.17,0-.41.14-.58a.71.71,0,0,1,0-.41c.16-.58,0-1.19.12-1.77h0a.33.33,0,0,1,0-.26.7.7,0,0,1,0-.43c-.17-.49,0-1-.13-1.49,0-.13,0-.26,0-.38-.14-.28,0-.61-.12-.9l0,0,0-.05c-.14-.24,0-.52-.14-.75h0c-.15-.22,0-.5-.13-.72l0,0,0-.05c-.06-.11,0-.24-.12-.33l0,0,0-.06c-.08-.14,0-.33-.13-.46s0-.41-.15-.57,0-.31-.14-.42,0-.31-.12-.43l0,0,0,0a.37.37,0,0,0-.12-.2h0c-.1-.07-.06-.21-.14-.27h0c-.13-.11,0-.33-.17-.41s0-.22-.11-.3-.06-.21-.15-.28,0-.21-.14-.28-.06-.21-.12-.29h0c-.15-.09,0-.31-.18-.39h0c0-.07-.06-.11-.1-.17h0c-.15-.09,0-.31-.17-.39,0-.07-.07-.11-.1-.16l-.05,0V485a.33.33,0,0,0-.11-.2l0,0v-.06c0-.11,0-.25-.16-.3s-.06-.13-.11-.18h0c-.08-.06,0-.21-.17-.25s-.06-.12-.11-.17h0c-.09-.06-.05-.21-.17-.25s-.06-.12-.11-.17h0a.36.36,0,0,1-.11-.14l0,0c-.11,0-.07-.19-.16-.24s-.08-.11-.12-.15v0c-.1,0-.06-.2-.17-.24h0c0-.07-.07-.11-.12-.16s0-.22-.18-.25h0c0-.08,0-.11-.11-.16a5.36,5.36,0,0,0-.57-.69.38.38,0,0,0-.12-.16h0a.75.75,0,0,1-.12-.14v0a.49.49,0,0,1-.13-.12h0a.49.49,0,0,1-.12-.13l0,0a5.25,5.25,0,0,0-.6-.65h0a.15.15,0,0,0-.14-.15.15.15,0,0,0-.13-.15.14.14,0,0,0-.15-.12c0-.13-.18-.09-.22-.19l0,0a7.23,7.23,0,0,0-.61-.63h0a.13.13,0,0,0-.13-.14.14.14,0,0,0-.15-.13h0c0-.09,0-.14-.14-.14h0a.13.13,0,0,0-.13-.14h0c0-.13-.17-.08-.22-.18l0,0-.15-.11h0a1.39,1.39,0,0,1-.28-.28h0l-.13-.14h0l-.14-.13h0a.44.44,0,0,0-.14-.13.26.26,0,0,0-.15-.14.16.16,0,0,0-.16-.12,3.25,3.25,0,0,0-.68-.6.32.32,0,0,0-.15-.13.16.16,0,0,0-.16-.12c-.13-.2-.35-.3-.51-.46l0,0a.34.34,0,0,1-.12-.12l0,0a.49.49,0,0,1-.13-.12h0a.79.79,0,0,0-.15-.12A.34.34,0,0,0,653,475a.27.27,0,0,0-.13-.15.37.37,0,0,0-.15-.13h0a.27.27,0,0,0-.15-.13.17.17,0,0,0-.15-.13h0a.14.14,0,0,0-.14-.14,3.8,3.8,0,0,0-.52-.46h0l-.13-.12h0l-.1-.06s0-.05,0-.07h0l-.14-.13h0a.47.47,0,0,0-.15-.13.34.34,0,0,0-.15-.14.24.24,0,0,0-.13-.13h0a.2.2,0,0,0-.15-.13h0a.15.15,0,0,0-.15-.12h0a.13.13,0,0,0-.15-.13.12.12,0,0,0-.13-.14.13.13,0,0,0-.14-.14h0a.18.18,0,0,0-.13-.15.2.2,0,0,0-.15-.14.19.19,0,0,0-.13-.14h0a.25.25,0,0,0-.13-.14h0a1.39,1.39,0,0,1-.28-.28.24.24,0,0,0-.14-.14.34.34,0,0,0-.14-.15.32.32,0,0,0-.14-.14.29.29,0,0,0-.15-.14.23.23,0,0,0-.14-.13.22.22,0,0,0-.14-.14h0a.15.15,0,0,0-.15-.12h0a.17.17,0,0,0-.13-.15c0-.07-.07-.11-.12-.15h0l-.13-.14h0a7.83,7.83,0,0,0-.88-.94c0-.09-.06-.13-.13-.16a.24.24,0,0,0-.13-.15.38.38,0,0,0-.14-.14.61.61,0,0,0-.13-.15h0a.76.76,0,0,1-.11-.14l0,0c-.09,0,0-.2-.18-.22h0a.14.14,0,0,0-.13-.14.31.31,0,0,0-.12-.17c-.08-.07-.05-.22-.16-.26a.38.38,0,0,0-.12-.16c-.08-.07,0-.22-.17-.26h0a.28.28,0,0,0-.11-.17c-.08-.07-.06-.21-.17-.26a.27.27,0,0,0-.13-.15.61.61,0,0,0-.12-.16h0c-.1-.06-.06-.22-.17-.26h0c0-.09,0-.22-.16-.26s0-.13-.12-.17h0a.76.76,0,0,0-.11-.16h0c-.09-.07-.06-.21-.15-.27s0-.21-.15-.27h0c-.05-.09,0-.23-.16-.26h0c0-.11,0-.22-.11-.3s0-.22-.15-.28a.46.46,0,0,0-.11-.16l0,0v-.05c0-.12,0-.25-.13-.34s0-.32-.16-.41h0c-.08-.14,0-.32-.12-.43s0-.4-.13-.57a.09.09,0,0,1,0-.12c-.17-.47,0-1-.12-1.44a.37.37,0,0,1,0-.29c.15-.28,0-.6.12-.89l0-.05,0,0c.11-.13,0-.31.13-.44s.08-.21.14-.31,0-.08,0-.1c.14-.17,0-.41.13-.57s0-.31.14-.43,0-.31.15-.42,0-.39.13-.57,0-.4.12-.58a.24.24,0,0,0,.11-.22c0-.12,0-.24.06-.33s0-.31.14-.43a.09.09,0,0,1,0-.12c.14-.17,0-.41.13-.58s0-.5.14-.73a.07.07,0,0,1,0-.11c.14-.17,0-.4.12-.57s0-.5.16-.71h0c.17-.21,0-.49.13-.72s.05-.3.15-.41,0-.49.13-.72h0c.2-.28,0-.62.16-.9l0,0,0,0c.19-.38,0-.81.13-1.18v-.06l0,0c.16-.21,0-.49.13-.71a20.21,20.21,0,0,0,0-3.81l0,0,0-.06c-.14-.28.05-.61-.13-.88a.47.47,0,0,1-.07-.28c0-.2.06-.4-.07-.57s0-.31-.14-.43-.05-.2-.12-.28l0,0v-.05c-.05-.11,0-.25-.15-.33a1.13,1.13,0,0,1-.06-.32A.41.41,0,0,1,645,440h0c.06-.09.19-.06.26-.15h0c.22-.16.5,0,.7-.15a.38.38,0,0,1,.23-.06c.16,0,.34.05.48-.09s.31,0,.42-.12h0c.14-.16.4,0,.53-.17h0c.1-.05.22,0,.29-.13s.22,0,.29-.13.2-.05.28-.13h0c.08-.08.2,0,.27-.13h0c.06-.09.2-.05.24-.16a.2.2,0,0,0,.16-.13h0c.07-.07.22,0,.26-.16s.27-.18.42-.18a.29.29,0,0,1,.17.06h0c.11.13.3,0,.41.14h0c.12.12.3,0,.43.12a.29.29,0,0,0,.24.1.54.54,0,0,1,.33.05.61.61,0,0,0,.34.1.66.66,0,0,0,.34-.1,1.31,1.31,0,0,1,.44-.07,2.27,2.27,0,0,0,1.1-.08h0a6.57,6.57,0,0,0,1-.27h0c.38-.14.81-.13,1.12-.43a2.89,2.89,0,0,0,.57-.42h0c.08-.07.22,0,.26-.16h0c.11,0,.23,0,.29-.13h0a.2.2,0,0,0,.15-.12.51.51,0,0,0,.15-.14.93.93,0,0,0,.14-.14h0l.14-.13h0a.47.47,0,0,0,.13-.15.22.22,0,0,0,.12-.16c.13,0,.09-.18.16-.26s.07-.2.15-.28.06-.2.15-.27h0c.08-.07,0-.2.14-.27h0c.08-.08.06-.2.13-.29s0-.3.15-.42.07-.21.13-.29,0-.42.13-.61a.19.19,0,0,1,0-.22c.12-.15,0-.34.13-.49l0,0,0,0c.18-.22,0-.51.15-.73,0,0,0-.08,0-.12.16-.34,0-.72.13-1.07a.15.15,0,0,1,0-.2.92.92,0,0,0,0-.71c0-.07,0-.15,0-.23-.12-.24,0-.51-.11-.75a.3.3,0,0,1,0-.26c-.1-.13,0-.33-.14-.45s0-.31-.13-.43,0-.31-.16-.41,0-.21-.12-.29-.06-.2-.13-.28v0a.13.13,0,0,0-.12,0,.19.19,0,0,0,0-.26c-.07-.09,0-.21-.15-.28a1.92,1.92,0,0,0-.28-.42h0c-.09-.11,0-.25-.08-.37l.07-.08a1.92,1.92,0,0,0,.28-.29h0a1.45,1.45,0,0,0,.55-.43.15.15,0,0,0,.15-.13.22.22,0,0,0,.14-.14.21.21,0,0,0,.15-.14,2.77,2.77,0,0,0,.28-.28h0a.16.16,0,0,0,.13-.14h0c.12,0,.08-.18.17-.24h0c.05-.05.11-.08.11-.16h0c.13,0,.09-.19.16-.27a.62.62,0,0,0,.13-.34v0l0,0c.09-.09.07-.22.13-.32l0-.25c.11-.13,0-.31.12-.44s.1-.17,0-.27,0-.18,0-.28a3.05,3.05,0,0,0,0-1.41l0,0,0,0c-.1-.2,0-.44-.12-.64a.05.05,0,0,1,0-.09.46.46,0,0,0-.27-.32.13.13,0,0,1-.12,0l-.16.13h0c-.15.17,0,.4-.14.56s-.07.2-.12.3-.09.19-.15.28-.07.2-.15.27h0c-.05.05-.11.1-.11.18h0a.75.75,0,0,0-.28.28h0c-.08,0-.12.06-.16.12s-.23,0-.26.16l0,0v0a1.21,1.21,0,0,0-.31.09l-.25,0a.15.15,0,0,1-.19,0,.33.33,0,0,1-.26,0c-.15-.1-.32,0-.47-.11s-.08,0-.1,0a.86.86,0,0,0-.16-.1c0-.07-.07-.13-.14-.13h0c0-.08-.07-.11-.13-.16h0c-.08-.08,0-.22-.15-.28s0-.2-.12-.29h0c-.2-.3,0-.67-.14-1v-.14c.15-.16,0-.4.14-.56h0c.08-.09.07-.2.12-.29s0-.3.13-.43.07-.29.14-.42.1-.23.1-.35a.24.24,0,0,1,.07-.2c.08-.08.08-.21.11-.3s.1-.19.14-.3h0c.13,0,.11-.17.14-.28s.06-.28.15-.41,0-.31.16-.42.07-.2.14-.29,0-.3.14-.42,0-.3.14-.43.1-.21.14-.33l0,0,0,0c.08-.09.06-.21.11-.31v0c.12-.09.11-.23.15-.34l0-.05,0,0c.07-.08.07-.19.11-.29s0-.31.16-.42h0a.93.93,0,0,0,.12-.33v-.05l0,0c.08-.09.06-.2.11-.29s0-.31.16-.43.06-.2.14-.27,0-.31.14-.43h0c.08-.06,0-.2.14-.26v0c0-.06.11-.11.11-.2l0-.05,0,0c.13-.11,0-.3.13-.43s0-.31.15-.42a.93.93,0,0,0,.12-.33v-.05l0,0c.13-.11,0-.31.14-.42s.07-.21.11-.3h0c.12-.06.08-.19.15-.28a.64.64,0,0,0,.15-.13h0s0-.05.07-.05a.11.11,0,0,1,.07,0c.07.11.19.09.3.12h0c0,.13.18.1.28.14h0c.09.17.29,0,.41.14h0a1.23,1.23,0,0,0,1,0h0c.12-.11.31,0,.42-.14h0c.07-.07.2-.05.27-.13h0c.07-.08.2-.05.27-.14s.31-.15.4-.3.12-.06.16-.12h0a1.13,1.13,0,0,0,.42-.42h0a1.85,1.85,0,0,0,.14-.14h0a.86.86,0,0,0,.14-.13h0a.64.64,0,0,0,.13-.15,4.27,4.27,0,0,0,.29-.41.38.38,0,0,0,.12-.16h0c.11,0,.08-.18.15-.25h0c.09-.08.06-.21.14-.28h0c.13-.13,0-.31.13-.44h0c.16-.18,0-.43.14-.62l0,0,0,0a.21.21,0,0,0,0-.29.05.05,0,0,1,0-.09,1.52,1.52,0,0,1,0-.67.66.66,0,0,0-.08-.36c-.13-.1,0-.32-.17-.41a.63.63,0,0,0-.45-.43c-.09.22-.19.44-.26.66a2.16,2.16,0,0,1-1.07,1.26,1.51,1.51,0,0,1-2.09-.79,2,2,0,0,1,0-1.19,29.72,29.72,0,0,0,.63-5.3,18.12,18.12,0,0,0-.54-5.53c-.2-.89-.18-.85.56-1.35a4.55,4.55,0,0,0,1.95-2.65,6.65,6.65,0,0,0-.11-3,.4.4,0,0,0-.11-.2l0,0V383a1.07,1.07,0,0,0-.28-.48h0c-.08-.07,0-.22-.16-.26h0c0-.09-.06-.12-.11-.16a.75.75,0,0,0-.27-.29h0l-.15-.12a.27.27,0,0,0-.15-.13h0a.27.27,0,0,0-.13-.15h0a.76.76,0,0,1-.11-.14l0,0a2.87,2.87,0,0,0-.55-.55h0a.33.33,0,0,0-.41,0,.23.23,0,0,0-.13.16c-.12.07-.09.16,0,.25h0a4.8,4.8,0,0,0,.59.68c.12.23,0,.5.11.73s.11.19,0,.29,0,.3-.11.44-.1.19-.15.28h0c-.11,0-.07.2-.16.25h0a.34.34,0,0,1-.12.12l0,0c0,.1-.2.06-.24.17a.65.65,0,0,0-.15.1.09.09,0,0,1-.12,0c-.09.06-.22,0-.3.12a.63.63,0,0,1-.58,0c-.12-.09-.3,0-.43-.11s-.07-.11-.15-.11h0c0-.14-.17-.1-.26-.16s-.07-.13-.16-.12a.13.13,0,0,0-.15-.15c0-.09,0-.14-.13-.16-.11-.29-.37-.46-.54-.7a.53.53,0,0,0-.13-.16c-.09-.08-.06-.21-.16-.27s0-.23-.15-.29a.42.42,0,0,0-.12-.15h0c-.08-.07,0-.22-.17-.25h0a.18.18,0,0,0-.12-.15h0a.32.32,0,0,0-.13-.15.62.62,0,0,0-.14-.14l-.14-.15h0l-.13-.13h0l-.13-.14h0a1.6,1.6,0,0,0-.4-.42h0l-.13-.13h0a.8.8,0,0,1-.13-.13h0a.8.8,0,0,1-.13-.13h0a1.59,1.59,0,0,1-.13-.13h0c-.13-.11-.16-.31-.32-.39a.17.17,0,0,0-.13-.14h0a.26.26,0,0,0-.12-.15.87.87,0,0,0-.12-.14v0l-.13-.13h0a.8.8,0,0,1-.13-.13v0a2,2,0,0,0-.41-.41h0l-.14-.12h0a.38.38,0,0,0-.14-.14.47.47,0,0,0-.14-.14.27.27,0,0,0-.15-.13h0a.19.19,0,0,0-.13-.13h0c0-.07-.06-.13-.14-.13a1.53,1.53,0,0,0-.29-.28l0,0,0,0a.15.15,0,0,0-.13-.15h0a.17.17,0,0,0-.17-.14s-.08,0-.08-.05l-.15-.1c0-.06-.09-.12-.16-.12s-.06-.13-.14-.13l0,0,0,0c0-.12-.18-.08-.23-.18h0l-.13-.13h0A.75.75,0,0,1,652,376h0a.44.44,0,0,0-.15-.12,3.79,3.79,0,0,0-.4-.3h0a.93.93,0,0,0-.15-.13.24.24,0,0,0-.15-.13.16.16,0,0,0-.15-.13l0,0,0,0c0-.12-.19-.08-.25-.16h0a.26.26,0,0,0-.15-.12h0a.18.18,0,0,0-.14-.14c0-.07-.06-.13-.15-.12s-.18-.1-.26-.17-.2-.06-.24-.16h0a.53.53,0,0,1-.13-.13h0c-.09-.06-.06-.19-.14-.27v-.14c.12-.12,0-.31.13-.42h0c.09-.07.07-.2.14-.29s.06-.33.13-.49a.17.17,0,0,1,0-.2,4.51,4.51,0,0,0,0-1.83h0c-.09-.14,0-.31-.12-.43l0,0,0-.05c0-.12,0-.24-.13-.33s0-.23-.16-.28-.07-.11-.11-.16h0c-.09-.06,0-.2-.16-.26h0a.24.24,0,0,0-.11-.15.57.57,0,0,1-.12-.15l0,0c-.14-.09-.15-.29-.32-.36h0c0-.13-.18-.09-.22-.18h0a.66.66,0,0,0-.16-.11.22.22,0,0,0-.15-.13h0a.21.21,0,0,0-.19-.15h-.05l0,0-.14-.11h0c0-.06-.09-.11-.15-.12h0a.22.22,0,0,0-.19-.14h0l0,0c-.07-.07-.2,0-.26-.13h0c-.08-.07-.2,0-.26-.13h0c-.09-.07-.21-.05-.29-.12-.33-.19-.72,0-1.06-.15a.42.42,0,0,1-.33,0c-.12.11-.31,0-.43.13h0c-.08.07-.2,0-.28.13h0c-.08.09-.21.05-.28.15s-.21.05-.27.15-.23,0-.26.16h0c-.12,0-.09.18-.16.25s0,0,0,.05,0,.05,0,.06.24.13.37,0h0a4.9,4.9,0,0,1,.54,0,1.69,1.69,0,0,1,.49.06c.06.11.19.07.27.15h0l.12.15h0c.09.06,0,.21.17.25s0,.21.12.29a1.6,1.6,0,0,1,0,.92v.05l0,0c-.13.1,0,.3-.15.4h0c0,.07-.09.1-.12.16a.32.32,0,0,0-.14.14.49.49,0,0,0-.15.13h0c-.07.08-.21.05-.27.15h0c-.16.13-.39,0-.56.11a.08.08,0,0,1-.12,0,1.16,1.16,0,0,1-.78,0l-.05,0,0,0c-.38-.17-.79,0-1.17-.12a.07.07,0,0,1-.11,0c-.24-.14-.52,0-.76-.12l-.05,0,0,0c-.13-.13-.32,0-.46-.14s-.08,0-.11,0-.33,0-.48-.11a.2.2,0,0,1-.23,0c-.11-.12-.3,0-.41-.13h0a.93.93,0,0,0-.33-.12,1.3,1.3,0,0,1-.65,0c-.37-.14-.77,0-1.14-.11a.09.09,0,0,1-.13,0c-.32-.16-.69,0-1-.12a3.44,3.44,0,0,1-1,0c-.76-.16-1.55.05-2.32-.12a1.43,1.43,0,0,1-.65,0,1.09,1.09,0,0,0-.69,0,1.92,1.92,0,0,1-.79,0c-.2.11-.43,0-.63.12a2,2,0,0,1-.24,0c-.15.09-.33,0-.47.12a.08.08,0,0,1-.12,0c-.17.12-.4,0-.59.11a.18.18,0,0,1-.21,0,1.31,1.31,0,0,0-.35.12.08.08,0,0,1-.11,0c-.1.06-.23,0-.31.13l0,0,0,0c-.15.08-.34,0-.48.12h0c-.12.12-.31,0-.43.13l0,0h0a1.12,1.12,0,0,0-.35.12l0,0-.07,0c-.13.09-.32,0-.45.13h0c-.11.13-.31,0-.42.14l0,0,0,0a1.09,1.09,0,0,0-.34.13h0c-.07.09-.19.06-.27.13h0c-.11.14-.3,0-.41.14l0,0h0a.27.27,0,0,0-.2.11h0c-.06.1-.19.06-.26.15a.58.58,0,0,1-.15.11l0,0c0,.1-.2.06-.24.16l-.15.12h0c-.09.09-.21.12-.29.21a.33.33,0,0,0-.05.16c0,.12,0,.24.07.33s0,.22.17.27h0a15.69,15.69,0,0,1,1.67,1.8,26.89,26.89,0,0,1,2.8,4.45,43.32,43.32,0,0,1,2,5,30.69,30.69,0,0,1,1,3.8,21.37,21.37,0,0,1,.37,3.3c0,.32,0,.65,0,1,0,.52.2.65.65.44a5.1,5.1,0,0,0,.79-.46,13.36,13.36,0,0,1,2.74-1.58c1-.46,2.13-.83,3.21-1.23a27.8,27.8,0,0,1,5.56-1.18,1.79,1.79,0,0,1,1.77.78,1.66,1.66,0,0,1,.14,1.83,1.4,1.4,0,0,1-1.52.48,6.75,6.75,0,0,1-.68-.18c-.13,0-.26-.12-.41,0a1.43,1.43,0,0,0,.64.69,6.93,6.93,0,0,0,2.68,1,2.88,2.88,0,0,0,3.51-2.42,1.89,1.89,0,0,1,.1-.41c.15-.4.28-.45.69-.28a9.26,9.26,0,0,1,1.85,1.13,23.23,23.23,0,0,1,4.18,4,2,2,0,0,1,.58,1.93,1.08,1.08,0,0,1-.94.84.85.85,0,0,1-.9-.65c0-.12-.07-.29-.25-.3s-.24.17-.29.33a2.87,2.87,0,0,0,.35,2.37,2.39,2.39,0,0,0,3.17,1.1c.46-.18.62-.11.73.4a7.49,7.49,0,0,1,.17,1.26c0,.8-.05,1.6,0,2.39a8.42,8.42,0,0,1-.49,2.69,4.11,4.11,0,0,1-.52,1.15c-.17.25-.42.51-.75.43s-.33-.42-.32-.71,0-.35-.18-.42-.33.13-.44.27a3.84,3.84,0,0,0-.58,1.27,2.4,2.4,0,0,0,.79,3,.58.58,0,0,1,.26.53,1.72,1.72,0,0,1-.18.81c-.24.46-.43.94-.63,1.42a5.45,5.45,0,0,1-1.33,1.89,1,1,0,0,1-1.21.32c-.39-.21-.3-.65-.3-1a1.73,1.73,0,0,1,.13-.63,1.76,1.76,0,0,0,.12-.39c0-.11,0-.24-.09-.3a.23.23,0,0,0-.26.08,5.65,5.65,0,0,0-.94,1.13,8.47,8.47,0,0,0-.85,2.81,4.34,4.34,0,0,0,.09,2.15,1.82,1.82,0,0,0,1.41,1.43.7.7,0,0,1,.6.74,5.6,5.6,0,0,0,.6,2.09,9.59,9.59,0,0,1,.42,3.06,10,10,0,0,1-1.66,5.08,14.3,14.3,0,0,1-3.94,3.74,12.68,12.68,0,0,1-3.56,1.49,18.69,18.69,0,0,1-6.5.5c-1.68-.09-3.35-.33-5-.41-.85-.05-1.69-.13-2.54-.18s-1.18-.34-1.38-1.2c-.07-.37-.14-.74-.24-1.09a.67.67,0,0,0-1-.47,1.38,1.38,0,0,0-.4.28c-.28.28-.49.24-.77,0-.6-.56-.89-.56-1.51,0-.44.39-.83.84-1.25,1.24a3.07,3.07,0,0,1-2,1.13c-.89,0-1.78.09-2.67.11-2.14,0-4.25.38-6.38.54-.86.07-1.72.23-2.59.29-1.91.14-3.82.33-5.75.37a25.21,25.21,0,0,1-5.21-.07,23.87,23.87,0,0,1-2.62-.44A26.38,26.38,0,0,1,594,437.8a6.15,6.15,0,0,1-1.25-.91.46.46,0,0,1-.11-.68c.11-.21.24-.41.35-.61a13.76,13.76,0,0,0,1.47-3,14.73,14.73,0,0,0,.37-5.45,3.05,3.05,0,0,0-.5-1.53c-.48-.66-.46-.69.2-1.14l.16-.13a4.78,4.78,0,0,0,1.7-1.11,6.64,6.64,0,0,0,1.26-7.39,1.56,1.56,0,0,0-.48-.6c-.25-.2-.43-.13-.51.18a1.11,1.11,0,0,0,0,.48,3,3,0,0,1-.24,1.72,2.58,2.58,0,0,1-2,1.57,4.78,4.78,0,0,1-4.06-1.57,8,8,0,0,1-1.71-3,17.56,17.56,0,0,1-.66-3.74c-.06-.42-.29-.84-.13-1.26h1.31a5,5,0,0,0,3.35-1.05,4.61,4.61,0,0,0,1.37-2.25,3.61,3.61,0,0,0-1-3.82c-.2-.2-.47-.43-.74-.24s-.05.45.08.67a1.48,1.48,0,0,1,0,1.36,1,1,0,0,1-1.15.69,1.45,1.45,0,0,1-1.28-1.16,6.1,6.1,0,0,1,.65-5c.54-.91,1.16-1.76,1.77-2.61a11.63,11.63,0,0,1,1.35-1.54c.42-.44.7-.4,1,.11a3.85,3.85,0,0,0,1.43,1.43,4.2,4.2,0,0,0,3.63.56,4.85,4.85,0,0,0,3-2.82,3.19,3.19,0,0,0,.17-1.59c0-.2-.09-.46-.35-.44s-.31.19-.33.39a1.93,1.93,0,0,1-.41,1,1,1,0,0,1-1,.4c-1.48-.44-2.29-1.7-1.36-3.21a4,4,0,0,1,1.54-1.51,11.6,11.6,0,0,1,1.8-.8c1.47-.47,3-.85,4.49-1.18a5.19,5.19,0,0,1,1-.15c.46,0,.63.19.68.63s.08.75.13,1.13a4.48,4.48,0,0,0,2.8,3.68,2.71,2.71,0,0,0,.75.16,5.82,5.82,0,0,0,1.38-.2,3.33,3.33,0,0,0,2.06-1.37,1.27,1.27,0,0,0,.25-.65c0-.14,0-.31-.11-.38a.3.3,0,0,0-.38.09,2.12,2.12,0,0,1-.64.43,1.19,1.19,0,0,1-1.44-.36,1.38,1.38,0,0,1-.19-1.64,2.57,2.57,0,0,1,2.1-1.09,11.05,11.05,0,0,1,3.52.63c1.85.55,3.7,1.17,5.5,1.88.93.37,1.6,1.06,2.45,1.49a19.12,19.12,0,0,1,1.79,1.26c.51.35.83.19.89-.42a1.31,1.31,0,0,0,0-.28c-.11-.77-.19-1.55-.34-2.31-.23-1.29-.46-2.58-.78-3.85a23.63,23.63,0,0,0-1.06-3.41,21.15,21.15,0,0,0-1.57-3.38c-.37-.55-.52-1.2-.91-1.74a40.08,40.08,0,0,0-3.22-4,.49.49,0,0,1-.13-.12v0l-.13-.13h0a.3.3,0,0,1-.12-.13l0,0a.49.49,0,0,1-.13-.12h0a.93.93,0,0,0-.15-.13c0-.1-.19-.05-.25-.15h0a.35.35,0,0,0-.15-.12h0c-.06-.1-.2-.07-.26-.15h0c-.07-.08-.2-.05-.27-.13h0c-.11-.13-.3,0-.41-.14h0c0-.05-.07-.13-.13-.18a.42.42,0,0,0-.12-.08.67.67,0,0,0-.21-.1H619a.29.29,0,0,1-.22-.06h0c-.14-.12-.33,0-.47-.12h-.06l0,0c-.12-.11-.31,0-.43-.12h0c-.06-.1-.19-.07-.27-.14h0c-.11-.14-.3,0-.42-.14h0c-.16-.16-.39,0-.55-.15h0a1.06,1.06,0,0,0-.34-.12l0,0,0,0c-.1-.12-.29,0-.38-.16a.22.22,0,0,0-.15-.06h-.1a.52.52,0,0,1-.24-.05c0-.1-.16-.08-.26-.09a1.19,1.19,0,0,1-.59-.06.08.08,0,0,1-.12,0c-.14-.11-.32,0-.47-.12a.23.23,0,0,1-.24,0c-.43-.17-.9,0-1.34-.12l0,0,0,0c-.08-.1-.18-.09-.29-.09a1.75,1.75,0,0,1-.72-.05.22.22,0,0,0-.23-.09.72.72,0,0,1-.36,0,.28.28,0,0,1-.25,0c-.22-.13-.5,0-.73-.11a.39.39,0,0,1-.39,0c-.39-.16-.8,0-1.17-.12l-.25,0a26.92,26.92,0,0,0-3.81,0,.78.78,0,0,1-.52,0c-.33.15-.7,0-1,.11a1.11,1.11,0,0,1-.54,0c-.28.13-.59,0-.87.11l-.39,0c-.19.11-.42,0-.61.11a.45.45,0,0,1-.36,0c-.15.08-.34,0-.48.12l0,0,0,0a2.24,2.24,0,0,0-.34.11l-.26,0c-.13.1-.31,0-.44.11a.25.25,0,0,1-.25,0,.32.32,0,0,1-.34,0,.09.09,0,0,1-.13,0c-.08-.08-.21-.07-.31-.11s-.08,0-.11,0a.4.4,0,0,0-.2-.11l-.05,0,0,0-.15-.11a.27.27,0,0,0-.15-.13h0a.24.24,0,0,0-.13-.15l-.06-.14-.06-.15c-.07-.09-.07-.2-.15-.28s0-.4-.14-.56a.44.44,0,0,1,0-.51.27.27,0,0,0,.06-.17.66.66,0,0,1,.06-.34h0a2.62,2.62,0,0,0,.29-.58h0c.12,0,.09-.18.15-.26a.34.34,0,0,0,.15-.14h0c.09-.07.22,0,.29-.14s.41,0,.54-.16h0a.66.66,0,0,1,.23,0,.42.42,0,0,1,.22.05c.22.13.47.19.59-.07s-.15-.35-.31-.47h0c-.08-.08-.21-.06-.3-.12s-.09,0-.12,0-.21,0-.3-.11a.08.08,0,0,1-.12,0,2.16,2.16,0,0,0-1.13,0l-.05,0-.06,0c-.18.13-.41,0-.6.13l0,0h-.05a1,1,0,0,0-.34.11h0c-.06.09-.19.05-.26.13h0c-.06.08-.19.05-.26.13h0c-.07.09-.21.05-.26.16h0a.33.33,0,0,0-.16.13,1.91,1.91,0,0,0-.41.29.27.27,0,0,0-.15.13.47.47,0,0,0-.14.14.93.93,0,0,0-.15.13h0c-.05.09-.21,0-.23.18h0a.12.12,0,0,0-.13.13c-.13,0-.09.19-.17.24v0a.36.36,0,0,0-.12.15.2.2,0,0,0-.13.14h0a.3.3,0,0,0-.15.12h0c-.08.07-.21.05-.29.11a.1.1,0,0,1-.12,0,.32.32,0,0,0-.15.13.19.19,0,0,0,0,.28l0,0,0,0a1.69,1.69,0,0,1,0,.92,3.25,3.25,0,0,0,0,1.55s0,.06,0,.11c.13.17,0,.41.14.59s0,.19.12.28a.09.09,0,0,1,0,.12.57.57,0,0,1,0,.58h0a.34.34,0,0,1-.12.12l0,0c0,.1-.19.06-.25.15s-.21,0-.28.15-.22,0-.27.16a.39.39,0,0,0-.16.1h0c-.06.09-.19.05-.26.15h0c-.08.07-.21,0-.28.13h0c-.08.09-.2.06-.27.13h0c-.06.1-.19.06-.26.13l0,0h-.06a.3.3,0,0,0-.19.1h0c-.07.1-.2.06-.26.15h0c-.07.08-.21,0-.26.16l-.16.1,0,0h0a.22.22,0,0,0-.19.13h0a.71.71,0,0,1-.14.1.09.09,0,0,1-.11.05c-.07,0-.12.07-.18.1l0,0c-.05.1-.2.05-.24.17a.26.26,0,0,0-.15.12l-.16.12h0c0,.1-.18.06-.24.16a.91.91,0,0,0-.16.11h0c-.05.1-.19.06-.24.17a.42.42,0,0,0-.15.12h0a.69.69,0,0,1-.13.11l0,0c0,.1-.19.06-.23.16h0a.3.3,0,0,0-.15.12l-.14.12h0c-.06.1-.2.06-.24.17h0a.27.27,0,0,0-.15.13.5.5,0,0,0-.15.14.27.27,0,0,0-.13.15.24.24,0,0,0-.14.14.37.37,0,0,0-.15.13l-.15.11,0,0c-.05.1-.19.06-.24.17s-.11.06-.15.13l-.15.12h0a.75.75,0,0,1-.14.12l0,0c0,.09-.21.05-.23.18h0a.14.14,0,0,0-.14.13.15.15,0,0,0-.14.13h0a.17.17,0,0,0-.14.14.27.27,0,0,0-.15.13.64.64,0,0,0-.15.13h0a.33.33,0,0,1-.13.11l0,0-.26.27,0,0a.81.81,0,0,1-.12.14h0a.23.23,0,0,0-.11.17,1.48,1.48,0,0,0-.29.27c-.07,0-.11.07-.16.12h0c-.07.08-.2,0-.26.15h0l-.16.1s0,.06-.09,0a.26.26,0,0,0-.18.13.38.38,0,0,0-.14.14h0l-.14.11,0,.05h-.06c-.09,0-.14.06-.19.13l-.14.1a.09.09,0,0,1-.11.05.34.34,0,0,0-.18.11l0,0-.05,0a1.81,1.81,0,0,1-1,0l0,0,0,0c-.07-.09-.21-.05-.28-.14h0s-.08-.11-.16-.11h0c0-.13-.19-.09-.25-.18h0l-.14-.13a1.58,1.58,0,0,1-.12-.15l0,0v-.06a.93.93,0,0,0-.12-.33,1.66,1.66,0,0,1,0-1c.11-.07.09-.19.14-.29s.19-.27.3-.39h0c0-.05.11-.09.13-.16.18-.18,0-.29-.11-.4h0a.2.2,0,0,0-.28,0c0,.05-.05.05-.09,0-.2.1-.42,0-.61.11l-.14,0c-.12.11-.31,0-.43.13h0c-.07.09-.2.06-.27.15h0c-.07.08-.21,0-.26.16h0c-.06,0-.1.06-.15.11h0a1.34,1.34,0,0,0-.42.4v0c0,.05-.08.09-.12.15a.27.27,0,0,0-.13.15h0a.15.15,0,0,0-.12.15.14.14,0,0,0-.15.13.17.17,0,0,0-.14.14h0c-.13,0-.09.18-.15.27h0c-.1.07-.09.18-.12.29h0c-.18.11,0,.32-.16.46l0,.05,0,0c-.13.25,0,.53-.12.78l0,0,0,0a1,1,0,0,0,0,.83c.11.13,0,.32.14.43s0,.21.14.28,0,.23.15.29,0,.22.15.26h0c0,.07.07.11.11.16h0c.08.07,0,.22.17.25h0a.16.16,0,0,0,.12.14h0a.34.34,0,0,0,.14.15.32.32,0,0,0,.14.14.2.2,0,0,0,.15.12l0,0,0,0c0,.13.18.09.26.16h0c.07.1.2.07.28.14h0c.07.1.19.08.28.13h0c.1.16.29.05.42.14s.39,0,.54.16h0a.93.93,0,0,0,.15.13.47.47,0,0,1,0,.46c-.09.05-.08.18-.13.26s-.11.22-.15.34l0,.05-.05,0a.32.32,0,0,0-.1.21v.05l0,0c-.08.08,0,.21-.14.28h0c-.06.06-.12.11-.12.2l0,.05,0,0c-.08.09,0,.22-.14.29s-.06.2-.12.29-.09.2-.15.3v0c-.1.08-.08.21-.13.3h0c-.12.08-.11.23-.14.34v0l0,0c-.08.09-.06.22-.12.32a.09.09,0,0,1,0,.11c-.11.14,0,.33-.12.48v0l0,0c-.07.08,0,.19-.12.28s0,.52-.13.76v.05l0,0a1.06,1.06,0,0,0-.12.34l0,.05,0,0c-.13.13,0,.32-.13.44s0,.6-.14.87a.07.07,0,0,1,0,.11c-.11.14,0,.33-.12.47s0,.07,0,.1-.06.22-.06.35a.33.33,0,0,1-.07.21c-.2.42,0,.89-.14,1.31,0,0,0,.07,0,.1-.17.32,0,.7-.13,1,0,.08,0,.17,0,.26-.19.75,0,1.53-.13,2.28,0,.05,0,.09,0,.11a.69.69,0,0,0-.09.31h0c-.12.06-.1.19-.14.28h0c-.11,0-.07.19-.17.25h0c-.07.08,0,.21-.14.28h0l-.12.14h0c-.06,0-.1.09-.15.13a.86.86,0,0,1-.14.13h0c-.06.1-.19.06-.26.14h0a2,2,0,0,1-1.13,0h0c-.06-.09-.19-.07-.27-.14h0a.22.22,0,0,0-.15-.12h0a.15.15,0,0,0-.14-.14.18.18,0,0,0-.13-.16c-.05-.09,0-.21-.13-.28a3.88,3.88,0,0,1,0-1.48l0-.06.05,0c.11-.12,0-.31.13-.42h0a.19.19,0,0,0,.06-.13.22.22,0,0,0-.06-.14.27.27,0,0,0-.2-.12h0c-.1.05-.23,0-.32.12h0a1.1,1.1,0,0,0-.41.42c-.09.07-.06.21-.15.28s0,.31-.12.44-.1.21-.14.33v0l0,0a1,1,0,0,0-.11.35.47.47,0,0,1,0,.35.36.36,0,0,0,0,.43l0,0,0,.05c.15.47-.07,1,.13,1.46.12.11,0,.33.16.42s0,.32.12.44h0c.13.11,0,.31.15.42s0,.22.17.26h0a.51.51,0,0,0,.11.31c.08.07.05.2.13.28h0a1.06,1.06,0,0,0,.27.29h0a.9.9,0,0,0,.28.27h0a.44.44,0,0,0,.15.12.2.2,0,0,0,.15.13.89.89,0,0,0,.42.29c0,.11.19.08.27.15h0a1,1,0,0,0,.61.07.69.69,0,0,1,.25,0,1.74,1.74,0,0,0,1.23,0h0a5.55,5.55,0,0,1,.73-.16h0a.15.15,0,0,0,.16.13l0,0,0,0c0,.08,0,.13.09.17a.08.08,0,0,1,0,.11c0,.1,0,.23.13.32s0,.3.14.41,0,.33.16.42,0,.32.13.42.05.22.13.3.05.21.14.29,0,.32.17.41,0,.22.14.26h0c.08.14,0,.32.13.44s0,.22.14.27,0,.22.14.3,0,.32.16.41c0,.1,0,.22.14.27h0c0,.11,0,.23.14.28h0a.22.22,0,0,0,.12.15,1,1,0,0,0,.12.15v0c.09.06.06.2.14.27h0c.07.07,0,.21.16.26h0a.29.29,0,0,0,.11.16h0c.09.06,0,.21.17.24s.07.12.11.18h0c.08.06.05.21.17.25h0a1.12,1.12,0,0,0,.27.43,1.19,1.19,0,0,0,.28.42.61.61,0,0,0,.12.15h0c.09.07.06.21.16.27s0,.21.14.28,0,.23.16.26l0,0,0,0c0,.09,0,.13.14.13v0c0,.07,0,.11.11.15s0,.22.16.27a1,1,0,0,0,.28.43,1.07,1.07,0,0,0,.28.42c.06.08,0,.22.15.27s.06.12.11.17h0a4.71,4.71,0,0,0,.44.56.89.89,0,0,0,.3.4l0,0,0,0c0,.08.06.11.12.15a.47.47,0,0,0,.13.15h0l.12.14h0l.12.14v0c.1.05.06.19.13.26l0,0v.05c.05.1,0,.25.16.29h0c0,.09.05.13.12.16h0c.06.09,0,.22.16.26h0c0,.08.06.11.1.17h0c.14.1,0,.31.17.4s0,.21.12.28,0,.33.15.43,0,.41.14.57a2.66,2.66,0,0,1,0,1.19v.06l0,0c-.07.08,0,.21-.13.27h0c0,.06-.11.09-.11.17h0c-.13.05-.09.19-.15.28s-.18.27-.31.37l0,0a.38.38,0,0,1-.11.14h0l-.13.14h0a.33.33,0,0,1-.13.11.11.11,0,0,1-.13,0l-.15.11-.13,0c-.09.06-.22,0-.31.12l0,0-.06,0a1.1,1.1,0,0,1-.76,0l-.13,0c-.06,0-.1-.1-.18-.09s-.18-.08-.24-.17v0l-.15-.12a1.58,1.58,0,0,0-.12-.15h0c-.11-.07-.06-.2-.16-.27s0-.21-.16-.27,0-.41-.12-.58a.14.14,0,0,1,0-.21.75.75,0,0,1,0-.57l0,0,0,0a.18.18,0,0,0,0-.28l0,0v0a.27.27,0,0,0-.12-.2.34.34,0,0,0-.42,0h0a1.59,1.59,0,0,0-.13.13h0c-.05,0-.1.08-.11.16h0c-.11.05-.08.18-.15.26s-.07.31-.07.47a.35.35,0,0,1-.08.24c-.18.32,0,.69-.14,1v.22c.16.22,0,.51.15.72a.5.5,0,0,1,.06.34.34.34,0,0,0,.07.24c.08.08.06.2.13.29h0c.08.07.06.2.14.28h0c.09.06,0,.22.18.24h0c0,.07.05.11.11.15h0a1.64,1.64,0,0,0,.46.52,1.76,1.76,0,0,0,.52.46h0a.86.86,0,0,0,.14.13h0a1,1,0,0,0,.58.27h0c0,.13.18.1.26.15h0c.11.15.31,0,.42.14h0c.07.09.2.06.28.14h0c.07.09.2.06.28.14h0a.3.3,0,0,0,.15.12,1,1,0,0,1,0,.74c-.1.08-.08.21-.13.32s0,.07,0,.09-.09.1-.1.17-.05.32-.14.46v0l0,0c-.15.17,0,.4-.13.58h0c-.14.13,0,.33-.14.48l0,0,0,0a7.78,7.78,0,0,0,0,2.26.27.27,0,0,1,0,.25c.14.18,0,.42.15.59s0,.31.11.43a.08.08,0,0,1,0,.12c.12.13,0,.32.15.43s0,.31.12.44a.07.07,0,0,1,0,.11c.11.13,0,.33.15.45s0,.2.13.27a.23.23,0,0,0,.09.08s0,0,0-.05c.25,0,.54-.1.59.3,0,.12.09.26.23.19s.35.17.62.11a2.65,2.65,0,0,1-.28-1.62.66.66,0,0,1,.15,0v-.07a9.42,9.42,0,0,1,.06-5.34c.22-.83.41-1.79,1.34-2.09a6.49,6.49,0,0,0,3.6-2.86c.18-.3.36-.39.68-.2a2.48,2.48,0,0,0,1,.42c.13.18.37.19.58.25.55.16,1.14.14,1.7.29.06,0,.15,0,.17,0s-.08.13-.06.21a1.61,1.61,0,0,0,.19.67,8.55,8.55,0,0,1,.52,3.38,9.61,9.61,0,0,1-2.84,6.58c-1.78,1.74-4.85,2.35-6.54-.67-.11-.19-.16-.46-.39-.54a2.67,2.67,0,0,0,.09,1c.08.24.29.54,0,.71a.75.75,0,0,1-.89-.2c-.15-.15-.26-.33-.48-.39l-.06,0c0,.08,0,.14.08.18s.05.12.13.15a.2.2,0,0,0,.13.15.61.61,0,0,0,.13.15h0c.1.13.14.31.3.4a.18.18,0,0,0,.13.15h0a.27.27,0,0,0,.13.15.4.4,0,0,0,.15.14,1.36,1.36,0,0,0,.43.27h0c0,.12.19.09.28.14s.19.1.29.13h0c.05.12.18.09.27.15a.18.18,0,0,0,.15.13c0,.12.19.09.27.16a5.07,5.07,0,0,0,2.54.71h0a.25.25,0,0,0,.4,0h0c.17-.11.41.05.56-.13a.53.53,0,0,1,.23-.06,1,1,0,0,1,.24,0h0a.18.18,0,0,0,.14.14c0,.11,0,.22.12.31s0,.32.17.4,0,.22.12.3h0c.13.11,0,.31.15.41s0,.33.15.44h0c.08.08.05.21.16.27s0,.21.14.27h0c0,.1,0,.22.14.29s0,.22.13.29,0,.32.15.42,0,.32.15.41,0,.22.12.3h0c.07.08.05.21.14.28s0,.31.15.42,0,.22.14.29,0,.21.14.28h0c.13.12,0,.32.14.43s0,0,0,.05,0,.06,0,.09-.11.1-.11.18-.13.05-.13.14-.1.18-.18.24h0s-.1.09-.1.17h0c-.11.05-.08.19-.16.26a.24.24,0,0,0-.12.16h0c-.12.05-.1.19-.15.27s-.08.2-.14.29a.44.44,0,0,0-.15.12h0c-.07.08-.2,0-.27.14s-.21.05-.28.14h0c-.07.08-.21,0-.26.15h0a.26.26,0,0,0-.13.14.21.21,0,0,0-.14.19v.05l0,0c-.07.08,0,.21-.12.29s-.07.19-.13.28a.93.93,0,0,1-.58.41.07.07,0,0,1-.11,0c-.1.06-.22,0-.31.12h0c-.06.09-.19.06-.26.14h0a.8.8,0,0,1-.13.13h0c0,.06-.09.09-.11.16h0c-.1,0-.06.18-.16.23a.07.07,0,0,1-.11.05.17.17,0,0,1-.18,0c-.07-.09-.2-.06-.28-.14h0a.93.93,0,0,0-.15-.13.38.38,0,0,0-.14-.14.35.35,0,0,0-.14-.13.21.21,0,0,0-.16-.13c0-.12-.19-.08-.24-.17l0,0-.14-.11h0c-.07-.09-.2-.06-.27-.14h0a.8.8,0,0,0-.69,0c-.17.11-.34.21-.39.43v0a.38.38,0,0,0-.11.25.47.47,0,0,0,.1.26c.09.13,0,.32.13.44h0c.07.07.05.2.14.28s0,.32.17.39a1,1,0,0,0,.26.45h0c.07.07,0,.22.17.26s0,.12.11.17l.12.14h0c.09.07.06.21.16.26a.32.32,0,0,0,.13.15h0l.13.13v0a6.29,6.29,0,0,0,.75.8.13.13,0,0,0,.13.14h0c.09.17.25.22.4.3a1.91,1.91,0,0,0,.41.29h0c0,.05.08.12.17.1l0,0,0,0c.16.25.47.27.67.45h0c0,.06.08.12.16.12a.15.15,0,0,0,.15.14.12.12,0,0,0,.14.13h0a1.49,1.49,0,0,0,.54.43h0a.2.2,0,0,0,.16.13.13.13,0,0,0,.15.13.14.14,0,0,0,.13.15.22.22,0,0,0,.13.15.3.3,0,0,0,.13.16c.08.07.05.2.16.27h0c.09.13,0,.32.15.42s0,.31.12.43,0,.32.16.41,0,.22.11.31l0,0v0c0,.22.13.44,0,.64h0c0,.05-.1.09-.11.16h0a.17.17,0,0,0-.13.15c-.12,0-.1.18-.15.27s-.09.19-.14.27-.09.2-.16.29a1.2,1.2,0,0,0-.26.56c-.17.1,0,.31-.17.42h0c-.13.11,0,.31-.14.42a4.28,4.28,0,0,0-.09.87,3.34,3.34,0,0,0,.1.82c.13.17,0,.4.13.57h0c.14.1,0,.3.14.41l0,0,0,.05c.09.14,0,.34.14.46s0,.41.15.56h0c0,.11,0,.21.11.3h0a.39.39,0,0,1,0,.44h0c-.17.16,0,.4-.15.56s0,.31-.13.44,0,.29-.14.42,0,.39-.14.56,0,.31-.15.42,0,.3-.14.42c-.2.37,0,.8-.14,1.17,0,0,0,.07,0,.1-.16.68,0,1.38-.12,2.06a2.32,2.32,0,0,1,0,1.11v.72c.13.24,0,.53.13.76s0,.5.15.71h0a.39.39,0,0,1,.06.24.7.7,0,0,0,.07.47l0,0,0,0c.13.18,0,.42.14.6s0,.32.13.43h0c.16.14,0,.41.17.54h0c.08.19.16.39.25.58s.06.21.15.29,0,.21.15.27,0,.22.14.27a1.62,1.62,0,0,0,.27.44c.08.07,0,.22.17.26h0a.14.14,0,0,0,.11.15h0a1,1,0,0,0,.28.43.32.32,0,0,0,.13.15c.07.08,0,.21.14.27a1.15,1.15,0,0,0,.3.42c.05.1,0,.23.14.28s0,.22.14.28h0c0,.1,0,.21.11.3s0,.06,0,.1,0,.23.12.33l0,0,0,0a1.45,1.45,0,0,0,.12.35s0,.06,0,.11,0,.22.12.31a.06.06,0,0,1,0,.1c.09.14,0,.33.13.46s0,.22.17.26a.73.73,0,0,0,.45.29h0l0,0c.12.13.3,0,.43.14h0a.18.18,0,0,0,.27,0l.05,0,.06,0c.23-.14.51,0,.73-.14h0c.17-.14.41,0,.57-.14h0c.16-.15.4,0,.56-.14h0c.22-.11.47-.15.69-.28h0c.09-.13.3,0,.39-.16h0c.1,0,.22,0,.3-.12s.21-.05.28-.14h0c.08-.07.21,0,.28-.14h0c.07-.07.21,0,.26-.15a2.83,2.83,0,0,0,.71-.42c.07,0,.11-.07.15-.13h0c.07-.08.21,0,.26-.16h0c.06,0,.1-.07.15-.12h0c.07-.08.22,0,.26-.17h0a.14.14,0,0,0,.14-.13h0a.27.27,0,0,0,.15-.13.44.44,0,0,0,.14-.13h0a.38.38,0,0,0,.12-.16.2.2,0,0,0,.14-.15.19.19,0,0,0,.14-.13.26.26,0,0,0,.15-.14.27.27,0,0,0,.14-.14.23.23,0,0,0,.14-.15c.07,0,.11-.07.15-.13h0l.14-.13h0a.3.3,0,0,0,.12-.15c.07,0,.13-.07.13-.16s.13,0,.13-.14h0c.14,0,.1-.17.18-.23h0a.38.38,0,0,0,.12-.16A.18.18,0,0,0,603,479a.77.77,0,0,0,.28-.42,1.53,1.53,0,0,0,.43-.55c.12-.07.09-.2.15-.28s.08-.2.16-.27h0c.08-.07,0-.2.14-.27h0c.08-.08.07-.2.12-.29h0c.11-.07.08-.2.16-.28h0c.09-.07.08-.2.14-.29h0c.15-.1,0-.31.15-.43a.46.46,0,0,0,.11-.3c.19-.08,0-.3.17-.39s.08-.21.12-.31.11-.22.15-.33l0,0,0,0c.15-.17,0-.41.14-.57h0c.14-.11,0-.31.15-.42s0-.33.13-.48l0-.05,0,0c.11-.13,0-.33.12-.47a.5.5,0,0,1,0-.38c.17-.32,0-.69.12-1a.08.08,0,0,1,0-.11c.08-.09.07-.21.1-.32h0a4.36,4.36,0,0,0,.43-.43h0a.77.77,0,0,1,.74.17h0l.13.14h0c.09.06.06.2.16.25a.22.22,0,0,0,.14.14.3.3,0,0,0,.13.16h0a6.3,6.3,0,0,0,.58.68.26.26,0,0,0,.13.16l.14.14h0a.47.47,0,0,0,.14.14.47.47,0,0,0,.14.14.4.4,0,0,0,.15.14.22.22,0,0,0,.15.13.2.2,0,0,0,.14.14.2.2,0,0,0,.14.14.3.3,0,0,0,.13.16.38.38,0,0,0,.14.14h0l.14.14a.41.41,0,0,0,.15.14.26.26,0,0,0,.14.13h0a.22.22,0,0,0,.15.13h0a.14.14,0,0,0,.14.13c0,.09.06.14.15.13s.05.14.13.15a.17.17,0,0,0,.14.15,5.7,5.7,0,0,0,.43.42l.56.57a.93.93,0,0,0,.41.29.24.24,0,0,0,.14.14h0c0,.08.08.13.17.12s0,.14.14.14.18.09.25.18h0a.25.25,0,0,0,.16.12c.09.15.27.19.4.3h0c0,.05.08.11.15.11.09.16.28.19.39.31v0a1,1,0,0,0,.28.26h0a.3.3,0,0,0,.15.12c0,.12.19.08.26.16h0c0,.06.09.12.17.11l0,0,0,0a1.15,1.15,0,0,0,.55.42h0c0,.15.18.11.27.15a1.09,1.09,0,0,0,.41.3.43.43,0,0,0,.15.15.23.23,0,0,0,.18.13h0l0,0a.38.38,0,0,0,.18.09c0,.14.17.11.28.14h0c0,.13.18.09.26.16h0c.05.05.08.11.16.11s.19.1.27.16h0c0,.11.19.08.27.14s.19.09.29.12h0c.05.12.2.09.27.16a.19.19,0,0,0,.17.11c.14.17.38.16.53.31h0c0,.05.08.12.16.11s.18.09.27.16a.88.88,0,0,0,.43.26h0c0,.12.19.09.27.15h0c.07.09.2.07.27.14h0a1.27,1.27,0,0,0,.58.26,2.72,2.72,0,0,0,.7.29h0c.1.16.3,0,.41.15h0c.12.14.3,0,.43.12h0a2.27,2.27,0,0,0,.71.27h0c0,.13.18.09.26.16h0c.07.07,0,.21.15.27a1.24,1.24,0,0,1,0,.85l0,0a.68.68,0,0,1-.12.12v0a.49.49,0,0,1-.13.12v0l-.13.13h0l-.12.14h0a1,1,0,0,0-.14.15.44.44,0,0,0-.13.14.5.5,0,0,0-.15.14h0l-.15.13h0l-.13.13h0l-.13.14h0a.38.38,0,0,0-.12.16.17.17,0,0,0-.13.15h0a.18.18,0,0,0-.14.14.2.2,0,0,0-.15.13.38.38,0,0,0-.15.13.62.62,0,0,0-.14.14.5.5,0,0,0-.14.15.79.79,0,0,0-.15.12h0a.49.49,0,0,1-.13.12l0,0-.11.15h0a.31.31,0,0,0-.13.15h0c-.07,0-.13.07-.13.16s-.08.18-.18.23h0a1.63,1.63,0,0,1-.11.17c-.09.06-.06.19-.15.25h0l-.13.15h0a.27.27,0,0,0-.13.15h0a.16.16,0,0,0-.13.14h0a.13.13,0,0,0-.14.13h0a.17.17,0,0,0-.14.14h0c-.11,0-.08.18-.17.24h0a.29.29,0,0,0-.11.16h0c-.1,0-.07.18-.16.24v0l-.12.14h0c-.06,0-.11.08-.11.15s-.09.19-.16.27a.5.5,0,0,0-.18.33l.05,0c.51-.18.94-.41.95-1.06,0-.32.17-.49.5-.3s.57.06.63-.33c0-.05,0-.1,0-.14,0-.62,1.12-.21.92-1.08-.15-.63.61-.81,1-1.19s.81-.13,1.27-.27c-.35-.51-.44-1,.16-1.4.21-.15.07-.45,0-.67a2.07,2.07,0,0,1,.83-2.16c-.46-.42-1.07-.33-1.62-.42a.72.72,0,0,0-.25.18.34.34,0,0,0,.13-.16c-.4-.64-1.12-.78-1.72-1a39.65,39.65,0,0,1-11.1-7.74c-1.1-1-1.91-2.27-3-3.28a26.11,26.11,0,0,1-2.75-3,1.29,1.29,0,0,1-.19-1.45c.1-.21.16-.44.24-.65a8.46,8.46,0,0,1,1.86-2.81c.56-.58.9-.55,1.49,0a8.42,8.42,0,0,0,1.06.83c.18.13.37.32.63.18h0l.24.25a17.62,17.62,0,0,0,2.13,1.38,21.47,21.47,0,0,0,3.25,1.8c.9.41,1.77.85,2.69,1.2s1.87.85,2.8,1.3a4,4,0,0,1,2.36,2.47,2.55,2.55,0,0,0,.29.57c.06.13.15.26.31.23a.3.3,0,0,0,.22-.33,9.09,9.09,0,0,1,.58-2.81c.46-1.62,1.12-3.18,1.62-4.79.31-1,.89-1.86,1.19-2.85.5-1.62,1.33-3.1,2-4.66.43-1.05,1.06-2,1.59-3.05l1-1.95c.06-.12.11-.27,0-.38s-.27,0-.36.12-.37.49-.56.73c-.5.62-.79,1.38-1.35,2-.35.37-.37.39-.67,0a6.22,6.22,0,0,0-4-2.29,7.84,7.84,0,0,0-5.38,1.23,2.93,2.93,0,0,0-.55.45,9.76,9.76,0,0,0-1.31,1.56c-.08.12-.15.24-.23.35-.31.39-.51.39-.85,0a1.92,1.92,0,0,1-.18-.22,5.22,5.22,0,0,0-3.64-2.15,7.67,7.67,0,0,0-3.27.32,4.91,4.91,0,0,0-2.16,1.14.77.77,0,0,1-.61.3h0c0-.56-.54-.65-.93-.8s-.83-.22-1,.14.23.58.49.78a1.06,1.06,0,0,1,.46,1.22c-.17.57-.58.66-1.08.59-.17.23,0,.38.1.56s.22.56-.06.81c-.06.27,0,.55-.3.76a9.48,9.48,0,0,0-2.67,3.41c-.23.52-.47.54-.83.09a9.33,9.33,0,0,0-2.74-2.19,13.07,13.07,0,0,1-4-3.5,5.44,5.44,0,0,0-3.67-2.52,5.58,5.58,0,0,1-1.69-.71,8.69,8.69,0,0,1-2.8-2.44,3.43,3.43,0,0,1,1,.71,16,16,0,0,0,5.41,2.1,2.65,2.65,0,0,0,1.59-.16c.38-.15.85-.27.87-.73s-.44-.61-.82-.75a6.36,6.36,0,0,1-2.5-1.54A3.94,3.94,0,0,0,591,449c-.22-.15-.59-.25-.47-.61s.46-.33.77-.29a4.19,4.19,0,0,1,2.27.9,5.54,5.54,0,0,0,2.46,1.16,1.1,1.1,0,0,0,1.29-.52c.28-.51,0-.89-.38-1.23-.11-.11-.25-.21-.37-.32a4.11,4.11,0,0,1-1.23-1.85,9,9,0,0,0-1.38-2.68c-.87-1.18-1.48-2.51-2.34-3.7a3.16,3.16,0,0,1-.61-1.2.75.75,0,0,1,.44.19,13.63,13.63,0,0,1,3.37,3.57l.14.12.07.05.13.1a1.14,1.14,0,0,0,.11.11l.08.13.07.12s.06.08.1.1l.05.06.09.09s0,0,0,0a.94.94,0,0,0,.1.1l0,.05.1.09,0,.05.09.09.07.11a.75.75,0,0,0,.07.12.41.41,0,0,0,.07.11l.1.11.05.05a.47.47,0,0,0,.1.1.1.1,0,0,0,0,.06.52.52,0,0,0,.11.1l.06.06a.34.34,0,0,0,.14.05H597a.4.4,0,0,0,.1-.12.43.43,0,0,0,0-.16.39.39,0,0,0-.08-.14l0-.06-.11-.1a1.25,1.25,0,0,0-.09-.12.75.75,0,0,0-.07-.12,1.3,1.3,0,0,0-.17-.21l0-.05-.09-.1-.07-.11a.67.67,0,0,0-.07-.11.42.42,0,0,0-.08-.12.41.41,0,0,0-.09-.1l0-.05a1,1,0,0,1-.08-.11.52.52,0,0,1-.06-.13,2.93,2.93,0,0,1-.05-.29.75.75,0,0,0,0-.16,1.47,1.47,0,0,1,0-.36c0-.3,0-.64.34-.91a13.42,13.42,0,0,0,2.27,3.69,16,16,0,0,1,3.31,6.25c.24.89.5,1.76.8,2.63a8.47,8.47,0,0,0,1.66,3c.16.18.28.46.62.35a.85.85,0,0,0-.07-.91c-.33-.3-.08-.44,0-.66-.3-.87-.83-1.62-1.15-2.48-.46-1.25-.71-2.55-1.14-3.79a12.75,12.75,0,0,0-2.8-5c-.56-.56-.52-.92,0-1.54a3.09,3.09,0,0,1,2.68-1.28,46.46,46.46,0,0,0,6.13-.33c4.22-.35,8.39-1.17,12.62-1.48a2.81,2.81,0,0,1,3,1.44,2.84,2.84,0,0,0,4.23,1.12,2.94,2.94,0,0,0,1.18-1.63,1.15,1.15,0,0,1,1.23-.82,30.52,30.52,0,0,1,4.28.37,40.19,40.19,0,0,0,6.75.48h.35a1.29,1.29,0,0,1,1.3.88,8.83,8.83,0,0,1,.69,4.64c-.63,4.54-1.2,9.1-2.81,13.45a37,37,0,0,1-2.87,6.66,2.08,2.08,0,0,0-.47,1.19,1.2,1.2,0,0,0-.54.59c-1,1.83-2.07,3.57-3.21,5.3q-1.92,2.91-4,5.71a10.07,10.07,0,0,1-1.84,1.85,2.89,2.89,0,0,1-2.26.57,2,2,0,0,0-1,0l.09.09a2,2,0,0,0-.7,2.28c.13.4.13.64-.33.8s-.35.42-.1.67a1.82,1.82,0,0,0,.23.15.3.3,0,0,1,.13.31c0,.17-.19.18-.33.18h-.71a.59.59,0,0,0-.64.32.82.82,0,0,1-.25.24c-.53.41-.54.41-.36,1,.07.23,0,.37-.22.39a1.34,1.34,0,0,1-.28,0c-.39,0-.57.15-.57.54,0,.19.09.46-.17.55a.58.58,0,0,1-.75-.2s-.08-.05-.13-.07c-.22.34.14.85-.28,1.09s-.55.45-1,.34v-.07l-.11.09s-.11.08-.11.15h0c-.13,0-.09.18-.18.24h0s-.11.09-.11.16-.08.2-.17.26-.11.09-.11.17h0c-.12,0-.09.18-.17.23v0a.53.53,0,0,0-.11.15h0a.2.2,0,0,0-.14.14.24.24,0,0,0-.14.14h0a.2.2,0,0,0-.14.14h0a.17.17,0,0,0-.13.15h0a.18.18,0,0,0-.15.13.27.27,0,0,0-.15.13h0a.24.24,0,0,0-.14.14h0c-.06,0-.1.08-.15.13h0a.72.72,0,0,1-.15.11l0,0c-.1.14-.29.16-.37.32a.17.17,0,0,0-.15.14.2.2,0,0,0-.14.14h0a.22.22,0,0,0-.15.12h0l-.14.11,0,0c0,.1-.19.06-.24.16h0l-.15.1,0,.05h-.05a.36.36,0,0,0-.2.11l0,0h-.05a.38.38,0,0,0-.2.1c0,.05-.08.06-.12,0s-.33,0-.45.12l0,0-.05,0c-.19.1-.42,0-.62.12a.8.8,0,0,1-.57,0c-.13-.1-.32,0-.46-.11a.26.26,0,0,1-.24,0,.4.4,0,0,0-.2-.11h-.06l0-.05a.46.46,0,0,0-.18-.1.09.09,0,0,1-.11,0,.69.69,0,0,1-.13-.11h0l-.14-.14c0-.05-.08-.11-.17-.11h0c0-.12-.18-.08-.25-.16h0a1.39,1.39,0,0,1-.28-.28l-.13-.15h0c-.09-.07-.06-.22-.17-.27s0-.21-.14-.28,0-.22-.13-.29,0-.41-.14-.56a2.08,2.08,0,0,1,0-1.05s0-.07,0-.09,0-.32.12-.45v0c.1-.08.09-.2.13-.3s.07-.19.16-.25l0,0a1.36,1.36,0,0,1,.12-.12h0c.18-.19.48.06.65-.18h0a.17.17,0,0,0,.14-.12h0c.09-.08.1-.15,0-.22h0c-.13-.2-.39,0-.55-.15h-.77a1.8,1.8,0,0,0-.33.1.31.31,0,0,1-.28,0c-.12.11-.3,0-.42.12a.08.08,0,0,1-.11,0c-.07,0-.11.06-.18.09a.09.09,0,0,1-.11.05.5.5,0,0,0-.17.11h0c-.06.1-.2.06-.26.15s-.22,0-.26.16h0c-.08,0-.11.06-.16.11h0c-.06.08-.2,0-.24.16h0c-.08,0-.11.06-.16.11h0l-.14.13h0l-.13.14h0l-.13.14a.32.32,0,0,0-.13.15h0c-.06,0-.12.08-.12.16h0c-.16.08-.2.27-.3.4a.24.24,0,0,0-.12.16h0c-.11,0-.07.19-.17.25h0a.64.64,0,0,0-.13.15.27.27,0,0,0-.13.18.06.06,0,0,1,0,.09c-.07.09,0,.2-.12.29s0,.43-.13.63v0l0,0a1.24,1.24,0,0,0,0,.85.08.08,0,0,1,0,.11c.17.27,0,.6.14.86s0,.41.12.58,0,.08,0,.12,0,.32.14.44.05.21.16.27,0,.22.15.28a.9.9,0,0,0,.27.42c0,.1,0,.23.13.3s0,.21.15.27a.3.3,0,0,0,.12.15h0a3.15,3.15,0,0,0,.59.67q0,.14.15.15a.13.13,0,0,0,.13.14h0a.73.73,0,0,0,.28.27h0a.18.18,0,0,0,.13.16h0a2.88,2.88,0,0,0,.54.44c.08.1.2.07.29.14h0c.08.09.19.08.3.11h0c0,.12.19.08.26.17h0c.19.21.47.17.7.28h0c.08.09.2.06.28.13s.3,0,.41.15h0c.16.16.39,0,.56.14h0c.26.19.6,0,.87.13a.17.17,0,0,1,.2,0,.29.29,0,0,1,.24,0l0,0,0,0a1.55,1.55,0,0,0,.36.13h0l0,.05a.47.47,0,0,1,0,.54c-.08.09-.07.2-.11.29h0c-.15.1,0,.3-.15.41s0,.31-.14.43-.08.18-.12.28h0c-.21.13,0,.4-.18.54h0a1.28,1.28,0,0,0-.11.31c-.16.12-.06.33-.15.47l0,.05,0,0c-.12.12,0,.31-.13.43h0c-.08.08-.07.2-.12.29h0c-.16.1,0,.29-.15.41s0,.31-.15.42h0c-.11.12,0,.31-.13.42s0,.31-.13.44,0,.31-.14.44a.07.07,0,0,1,0,.11c-.1.15,0,.34-.12.49v.05l0,0a2.49,2.49,0,0,0-.11.29h0c-.19.15,0,.4-.16.55s0,.35-.12.5v0l0,0c-.11.14,0,.33-.13.48l0,.05,0,0c-.11.13,0,.31-.12.44s0,.39-.15.55h0c-.12.12,0,.3-.13.42s0,.31-.13.43,0,.4-.14.57,0,.5-.15.74l0,.05,0,0c-.13.13,0,.33-.14.46a.07.07,0,0,1,0,.11c-.14.23,0,.51-.12.74l0,.25c-.16.44,0,.91-.12,1.34a.52.52,0,0,1,0,.35c-.13.2,0,.43-.12.61s0,.07,0,.1c-.15.24,0,.53-.13.77a.78.78,0,0,1,0,.5,37.17,37.17,0,0,0,0,4.95,2,2,0,0,1,0,.77c.13.3,0,.63.11.93a.07.07,0,0,1,0,.11c.18.37,0,.79.13,1.16a.32.32,0,0,1,0,.34c.1.2,0,.44.12.65a.08.08,0,0,1,0,.12c.14.17,0,.41.13.59a.42.42,0,0,1,0,.35c.11.19,0,.43.12.63a.34.34,0,0,1,0,.26c.14.18,0,.42.14.59l0,0,0,0c.11.25,0,.54.12.79a.06.06,0,0,1,0,.11c.15.22,0,.51.13.74l0,0,0,.05c.14.24,0,.52.14.75s0,.4.14.56,0,.31.12.43l0,0,0,0c.09.15,0,.34.13.49s0,.3.14.42l0,0v0c.08.15,0,.34.13.48s0,.32.16.42,0,.31.13.42h0a1.08,1.08,0,0,0,.11.3h0c.15.1,0,.3.15.4s0,.41.13.58l0,0,0,.05c.09.15,0,.34.12.48l0,0v0a1.57,1.57,0,0,0,.11.35h0c.15.11,0,.31.16.41a.39.39,0,0,1,.06.24c0,.16,0,.33.1.46s0,.31.12.43,0,.33.17.41a.72.72,0,0,0,.11.31c.13.1,0,.31.16.4h0c.09.13,0,.32.14.43h0c0,.1,0,.21.11.3s.15.48.29.69,0,.33.17.41c0,.11,0,.22.12.3h0c.06.09,0,.21.12.29a.06.06,0,0,1,0,.1c.06.1,0,.23.15.31h0c0,.1,0,.22.12.3s0,.06,0,.09,0,.24.13.33.06.21.15.28,0,.33.16.42,0,.22.13.28,0,.21.14.28,0,.31.14.43,0,.32.15.42,0,.22.13.29,0,.3.14.42,0,.31.13.43,0,.31.15.43,0,.32.16.41,0,.31.14.41h0c0,.1,0,.21.12.29a2.32,2.32,0,0,0,.28.57l0,0,0,0a1,1,0,0,0,.12.35h0c.08.07.05.2.14.28s0,.32.16.42,0,.3.11.43a.23.23,0,0,1,.08.2c0,.13,0,.26.09.35h0c0,.1,0,.22.11.29s0,.32.17.41,0,.21.11.3.06.21.13.28l0,0v0c0,.13,0,.26.13.35h0c.13.1,0,.32.17.4s0,.23.14.28,0,.32.13.44,0,.22.14.28,0,.21.11.29a.07.07,0,0,1,0,.11c.06.1,0,.22.14.31s.05.21.12.29l.05,0,0,0a.73.73,0,0,0,.14.34h0a1.73,1.73,0,0,0,.26.57l0,0v0c0,.08.06.13.11.19a.05.05,0,0,1,0,.09,1.4,1.4,0,0,0,.13.34l0,0,0,.05c0,.11,0,.23.13.33s.05.22.15.29,0,.31.12.43l0,0,0,0c0,.11,0,.24.13.33s.05.22.15.3,0,.31.13.42,0,.21.13.29,0,.06,0,.1a1.42,1.42,0,0,0,.11.33l0,0v0c.05.11,0,.25.14.33s0,.21.12.29l0,0v.06a.37.37,0,0,0,.11.19l0,0v0c.05.11,0,.24.13.33h0c.08.09,0,.21.13.29l0,0v0c.08.14,0,.34.14.46h0c0,.09,0,.2.13.27h0c0,.09,0,.21.13.29s0,.2.12.28l0,0v0c.1.14,0,.35.16.45,0,.1,0,.22.13.28h0c0,.1,0,.22.13.29s0,.21.12.3c.11.27.1.59.31.82s0,.33.15.42a2.22,2.22,0,0,0,.26.72,7,7,0,0,0,.27.72c.12.11,0,.31.14.43s0,.31.15.41,0,.21.12.29l0,0v0c.09.15,0,.34.14.46s0,.32.13.44,0,.4.14.56,0,.41.13.57l0,0,0,0c.1.2,0,.43.13.62s0,.41.15.57h0c.13.18,0,.41.13.58l0,0,0,0c.08.16,0,.35.14.48h0c.1.18,0,.4.12.57h0a.5.5,0,0,1,.07.29c0,.19-.06.39.06.57s.05.06,0,.1c.13.18,0,.43.15.6s0,.3.11.43l0,.26c.16.26-.06.6.14.86s0,.77.12,1.14a.2.2,0,0,1,0,.21c.13.29,0,.62.12.92a.7.7,0,0,1,0,.38,10.83,10.83,0,0,1,0,2.48.65.65,0,0,1,0,.39,9.64,9.64,0,0,0,0,2.4l0,.25c.18.9,0,1.82.12,2.72a.56.56,0,0,1,0,.36c.11.2,0,.44.13.63a.07.07,0,0,1,0,.11c.13.18,0,.42.13.6l0,0,0,.06c.15.33,0,.7.13,1a.15.15,0,0,1,0,.2c.13.3,0,.63.12.93a.17.17,0,0,1,0,.2c0,.12.11.24,0,.35h0a.33.33,0,0,0-.11.21v0l0,0a.53.53,0,0,0-.11.15h0c-.11,0-.07.19-.16.26h0a.35.35,0,0,0-.12.21v0l0,0c0,.06-.1.1-.1.17h0c-.16.08,0,.29-.16.39h0c-.07.08-.05.2-.12.28s-.08.2-.13.29h0c-.12.07-.1.21-.14.32v.06l0,0a1.91,1.91,0,0,0-.13.36h0c0,.12,0,.25.15.34s0,.22.13.28,0,.21.14.29c.52.42,1.1.19,1.67.15h0c.2-.18.49,0,.68-.16a.41.41,0,0,1,.21-.05.49.49,0,0,0,.37-.08h0c.2-.17.5.07.68-.17h0l1-.25h0c.66-.08.66-.08.57.59-.09.08-.08.22-.13.32s0,.07,0,.09,0,.21-.12.29-.08.21-.14.32,0,.08,0,.1,0,.21-.13.29-.08.22-.13.32a.06.06,0,0,1,0,.1c-.07.09-.07.22-.12.32s0,.08,0,.1-.09.1-.09.17-.1.17-.15.26h0c-.1.06-.08.18-.13.27h0c-.11,0-.07.19-.16.27s0,.2-.14.27h0c0,.33-.32.81.24.88a3.26,3.26,0,0,0,1.58-.06h0c.7-.19,1.43.08,2.12-.16h0c.32-.15.69.06,1-.14l0,0,0,0c.34-.15.73.05,1.06-.14l0,0,0,0c.19-.12.45,0,.63-.14a.23.23,0,0,1,.18-.06c.14,0,.28,0,.37-.1h0c.13-.08.31,0,.43-.12h0c.08-.07.2,0,.28-.13a.38.38,0,0,0,.12-.16c.11-.06.09-.19.15-.28h0c.11-.06.07-.2.15-.27s.07-.21.15-.28,0-.21.14-.28h0a.35.35,0,0,0,.12-.2v-.06l0,0c.07-.1.06-.22.12-.33a13.71,13.71,0,0,1,0-2.31c-.09-.17,0-.36-.1-.54v-.09a.83.83,0,0,1,0,.15.27.27,0,0,1-.12-.24c0-.31-.1-.49-.45-.46s-.56-.17-.55-.55,0-.5-.32-.56a.79.79,0,0,0-.83.22,6.64,6.64,0,0,1-1.13,1.24.65.65,0,0,1-.63.17c-.53-.16-1.12,0-1.59-.47-.1-.09-.32,0-.48,0-.61,0-.66-.08-.67-.72s0-1.36,0-2-.4-.85-.91-.56a1.56,1.56,0,0,0-.78.76c-.16.41-.37.51-.75.33-.08,0-.19,0-.28,0l.14-.16h-.07c-.47-.11-.58-.49-.68-.89a16.85,16.85,0,0,1-.39-3.15,27.85,27.85,0,0,1-.11-3.87,31.94,31.94,0,0,0-.28-8.23,59.36,59.36,0,0,0-3.19-10.6c-1.51-4.06-3.16-8.06-4.85-12-1.41-3.34-2.63-6.76-3.89-10.15a86.28,86.28,0,0,1-2.86-8.58,54.23,54.23,0,0,1-1.91-10.18,34.31,34.31,0,0,1,.06-6.49,45.08,45.08,0,0,1,1.79-8.34c.83-2.5,1.68-5,2.62-7.46.34-.88.76-1.05,1.67-.77a4.45,4.45,0,0,1,1.9,1.29,4.77,4.77,0,0,0,3,1.55l1.26.18c.61.12.68.23.45.8a13.59,13.59,0,0,0-.75,2,.31.31,0,0,0,0,.08.73.73,0,0,0-.28.72.48.48,0,0,1,.15.21.63.63,0,0,0-.25-.14,1.54,1.54,0,0,0-.38.67c-.77,1.92-1.64,3.8-2.22,5.8A42.75,42.75,0,0,0,618,519c-.09.56-.15,1.12-.28,1.67a28.05,28.05,0,0,0-.74,6.64,40.32,40.32,0,0,0,.42,5.48A84.35,84.35,0,0,0,619.57,543a122.17,122.17,0,0,0,4.1,12.62c1.32,3.5,2.65,7,3.9,10.52a66,66,0,0,1,2.25,7.29,40.34,40.34,0,0,1,1.08,7.82c.05,1.85.09,3.7.05,5.56a6.58,6.58,0,0,1-.35,2.85c-.11.07.22.26-.07.26-.58.55-1.32.93-1.86,1.54a.71.71,0,0,0,.82-.34,1.47,1.47,0,0,1,1.2-.77c.45,0,.72.16.74.64,0,.65,0,1.31,0,2,0,.48.15.77.67.78s.95.36,1.47.46a1.48,1.48,0,0,0,1.46-.59,7.8,7.8,0,0,1,.6-.69.81.81,0,0,1,1.43.31c.08.21.14.43.38.47.48.07.59.38.61.77a3.15,3.15,0,0,0,0-1.26.56.56,0,0,1,0-.49c0-.12-.09-.24,0-.36h0c.13-.14.05-.33.13-.48v-.05l0,0c.13-.12,0-.31.14-.43s0-.32.13-.46a.06.06,0,0,1,0-.1c.08-.08,0-.2.13-.29a.2.2,0,0,0,.06-.2l-.08.06c-.47.14-.69-.1-.66-.53s0-1,.4-1.36,0-.67,0-1c-.22.14-.27.41-.35.63a19.72,19.72,0,0,1-3.1,5.11,2.6,2.6,0,0,1-.57.53,1,1,0,0,1-1.71-.61,6.81,6.81,0,0,1-.26-2c0-2.09,0-4.18.13-6.27.07-1.13-.19-2.26-.13-3.39a26,26,0,0,0-.93-7.54,130.54,130.54,0,0,0-4.52-13.51c-1.37-3.78-2.71-7.58-3.93-11.41A122.84,122.84,0,0,1,619,532.52a30.48,30.48,0,0,1-.42-8.15,45.92,45.92,0,0,1,2.5-10.47c.5-1.48,1.27-2.84,1.88-4.26.28-.64.54-1.27,1.33-1.42a.33.33,0,0,0,.13-.07h.06a16.18,16.18,0,0,1,4,.56,25,25,0,0,1,6.09,2.55,2.07,2.07,0,0,1,1,1.81c0,.28,0,.57,0,.85a2.64,2.64,0,0,0,3.35,2.52,1.63,1.63,0,0,1,1.85.51,9.18,9.18,0,0,1,2.07,4,1.13,1.13,0,0,1-.54,1.33c-.56.35-1.13.68-1.7,1a57.91,57.91,0,0,0-6.35,3.95c-2.19,1.7-2.62,3.46-1.53,6.33a41.68,41.68,0,0,0,2.15,4.21,25.83,25.83,0,0,1,2,5.18A32.78,32.78,0,0,1,638,551.6c0,1.09-.14,2.16-.14,3.25a53.12,53.12,0,0,1-.53,6,56.65,56.65,0,0,0-.63,10.89,20,20,0,0,0,2.61,9.14,2.15,2.15,0,0,1,.23,1.75c-.38,1.55-.95,3.05-1.25,4.63v.11l.16-.08a1.52,1.52,0,0,0,.1.47.65.65,0,0,1-.26,1c-.14.09-.24.13-.17.31a1,1,0,0,1,0,.61c-.12.47,0,.54.56.53v0l.09-.06v0a.44.44,0,0,0,.12-.15h0a.43.43,0,0,1,.33,0h0a.15.15,0,0,0,.13.15.52.52,0,0,1,0,.24c0,.17,0,.35.07.49a.84.84,0,0,1,.08.38c0,.15,0,.3,0,.44a24.6,24.6,0,0,0,.06,2.85l0,0v0c0,.11,0,.24.14.33h0c0,.09,0,.21.14.28h0c.06.09,0,.23.16.26h0a.91.91,0,0,0,.93,0c.08,0,.12-.06.16-.12s.31-.14.4-.29h0a.17.17,0,0,0,.15-.17.15.15,0,0,1,0-.17c-.05-.11,0-.24-.12-.33l0,0,0,0a1.05,1.05,0,0,0-.13-.35.28.28,0,0,1-.07-.21c0-.12,0-.25-.09-.34-.15-.37,0-.77-.11-1.14a.2.2,0,0,1,0-.21,5.32,5.32,0,0,1,0-1.69l0,0,0,0c.2-.31,0-.69.15-1s0-.48.13-.7,0-.54.14-.78l0,0,0,0c.17-.21,0-.5.14-.71a.43.43,0,0,0,.08-.27c0-.15,0-.31.06-.44s0-.5.14-.73a.07.07,0,0,1,0-.11c.13-.19,0-.43.12-.63l0,0,0,0c.15-.17,0-.41.13-.58s.07-.2.14-.28,0-.3.15-.43a1.43,1.43,0,0,0,0-1l0,0,0,0c0-.11,0-.25-.14-.31a.43.43,0,0,0-.12-.17h0c-.09-.06-.06-.2-.16-.26h0c-.07-.07,0-.22-.17-.26h0c0-.09-.05-.13-.11-.16h0c0-.06-.08-.1-.11-.16h0c-.1-.06-.06-.2-.16-.25a.51.51,0,0,0-.13-.16,1.42,1.42,0,0,0-.26-.29l0,0c-.1,0,0-.19-.17-.24a2,2,0,0,0-.25-.43h0c-.08-.07-.05-.21-.16-.26h0c0-.07-.07-.11-.12-.16h0c-.08-.06,0-.21-.16-.26a.36.36,0,0,0-.12-.15h0c-.09-.07,0-.21-.17-.26h0c0-.1,0-.22-.14-.28h0c0-.1,0-.21-.11-.29h0c-.09-.07-.06-.2-.14-.28h0c-.13-.1,0-.31-.15-.39h0c-.06-.09,0-.22-.13-.29s0-.31-.14-.43a.29.29,0,0,1-.08-.22c0-.11,0-.24-.07-.33h0c0-.09,0-.21-.14-.28s0-.21-.13-.29,0-.31-.13-.42l0,0,0,0c0-.11-.05-.23-.1-.34a.27.27,0,0,1,0-.26c-.17-.32,0-.69-.13-1a.07.07,0,0,1,0-.11c-.16-.33,0-.7-.12-1a.79.79,0,0,1,0-.48,43.22,43.22,0,0,1,0-5.09l0,0,0,0c.19-.37,0-.79.13-1.17a.74.74,0,0,1,0-.53c.16-.22,0-.51.13-.74l0-.25c.17-.37-.05-.78.13-1.15a.08.08,0,0,1,0-.12c.16-.27,0-.6.13-.86a.12.12,0,0,1,0-.13c.17-.33,0-.7.12-1,0,0,0-.08,0-.11s0-.42.11-.61a.05.05,0,0,1,0-.09c.16-.29,0-.63.13-.92l0,0,0,0c.18-.43,0-.91.13-1.35-.08-.11,0-.23,0-.34.16-.37,0-.79.12-1.16a2.11,2.11,0,0,0,0-.25,46,46,0,0,0,0-5.38.28.28,0,0,1,0-.28.18.18,0,0,0,0-.27,3.39,3.39,0,0,1-.07-.7,5.89,5.89,0,0,0-.06-1.57.48.48,0,0,1,0-.39c-.16-.42.05-.88-.12-1.31a.07.07,0,0,1,0-.11c-.13-.18,0-.41-.12-.59s0-.08,0-.12c-.13-.18,0-.42-.14-.59h0c-.15-.16,0-.4-.14-.57l0,0v0a.85.85,0,0,0-.11-.34l0,0,0,0c-.08-.16,0-.34-.12-.49s0-.07,0-.11,0-.33-.13-.46l0,0,0,0c-.09-.15,0-.34-.14-.46s0-.32-.13-.43,0-.31-.15-.43,0-.31-.15-.42,0-.21-.11-.29l0,0v0a.36.36,0,0,0-.11-.2l-.05,0,0-.05a.43.43,0,0,0-.11-.2l-.05,0,0-.06a1.06,1.06,0,0,0-.12-.34l0,0v0c0-.12,0-.25-.13-.34s0-.2-.13-.28h0c-.09-.07-.06-.2-.14-.28h0c-.08-.07,0-.2-.13-.28h0c-.09-.07-.06-.2-.15-.28h0c-.08-.08-.05-.21-.15-.28s-.05-.2-.14-.27h0c0-.09,0-.23-.15-.28h0c0-.11,0-.22-.12-.3s0-.2-.13-.29h0c-.09-.07-.06-.2-.13-.28l0,0v0c0-.11,0-.25-.15-.32s0-.23-.14-.29,0-.21-.11-.29v0c-.09-.06-.05-.2-.15-.26s0-.21-.14-.29,0-.21-.14-.27h0c-.07-.09,0-.21-.14-.28h0c-.07-.09,0-.2-.13-.28h0c-.14-.1,0-.31-.17-.4,0-.07-.07-.11-.11-.17h0c-.14-.1,0-.3-.15-.4s0-.41-.16-.55a7.32,7.32,0,0,1,0-1.75c.12,0,.1-.19.15-.27s.08-.2.15-.28a.23.23,0,0,0,.13-.14h0a.15.15,0,0,0,.12-.16.14.14,0,0,0,.15-.13h0c.24-.23.46-.47.71-.69a.22.22,0,0,0,.15-.13.34.34,0,0,0,.15-.14c.14-.1.31-.15.41-.3s.11-.06.15-.13a.44.44,0,0,0,.15-.12h0a.74.74,0,0,1,.13-.12h0c0-.11.19-.07.25-.16h0c.14-.1.31-.15.41-.3h0a1.22,1.22,0,0,0,.44-.26h0c.08-.08.22,0,.28-.15a1.88,1.88,0,0,0,.42-.27h0c.07-.08.2-.06.26-.15h0c.07-.07.2,0,.27-.13h0c.06-.09.2,0,.25-.16h0a1.59,1.59,0,0,0,.43-.26c.08-.08.22,0,.27-.16h0c.09-.05.22,0,.29-.13a2,2,0,0,0,.42-.28h0a3.18,3.18,0,0,0,.43-.28h0c.08-.06.22,0,.27-.15s.22,0,.29-.14a.84.84,0,0,0,.41-.29h0a2.19,2.19,0,0,0,.72-.42c.08,0,.23,0,.26-.15a.16.16,0,0,0,.16-.12h0c.22-.16.51-.21.69-.44a.22.22,0,0,0,.16-.12h0c.07-.07.2,0,.26-.15s.23,0,.26-.16l0,0,0,0c.08,0,.12-.06.16-.11h0c.07-.08.21,0,.26-.17a.34.34,0,0,0,.16-.1h0c.12-.12.3-.15.39-.3h0c.09-.06.23,0,.28-.15s.11-.06.15-.11h0c.08-.08.21,0,.27-.16s.22,0,.28-.14.22,0,.27-.15h0a.19.19,0,0,0,.15-.11h0c.07-.07.22,0,.25-.16h0c.09,0,.12,0,.17-.1h0c.07-.09.2-.05.27-.15a1.75,1.75,0,0,0,.42-.29h0c.07-.07.22,0,.24-.17.1,0,.14-.05.17-.12a.84.84,0,0,0,.41-.29c.08,0,.12-.06.17-.11h0c.13-.11.32-.15.39-.32a.14.14,0,0,0,.15-.13.22.22,0,0,0,.16-.12l.15-.13h0c.13-.11.3-.16.41-.3a.57.57,0,0,0,.15-.12h0a2,2,0,0,0,.54-.45c.08,0,.12-.05.16-.11h0c.07-.07.21,0,.25-.16a.15.15,0,0,0,.15-.13c.07,0,.11-.07.16-.12h0c.07-.09.21,0,.25-.17h0a.22.22,0,0,0,.16-.12h0c.08-.07.23,0,.25-.16h0a.84.84,0,0,1,.47,0h0a.89.89,0,0,0,.29.29.12.12,0,0,0,.13.13h0c.08.16.26.19.38.31h0a.93.93,0,0,0,.15.13.24.24,0,0,0,.15.13.85.85,0,0,0,.42.28h0a2.67,2.67,0,0,0,.83.57,2.26,2.26,0,0,0,.85.42h0c.07.09.2.07.28.13h0c.11.16.31,0,.42.15h0c.17.16.4,0,.57.13h0c.14.19.39,0,.55.15h0c.2.21.5,0,.7.15h0a2.6,2.6,0,0,0,1.41,0h.13a1.38,1.38,0,0,0,1,0h0c.4-.19.86.1,1.25-.15.25-.07.53,0,.72-.28.24-.08.52,0,.71-.27a2.15,2.15,0,0,0,.83-.44.33.33,0,0,0,.16-.12h0c.07-.07.2,0,.27-.13h0c.07-.07.21,0,.26-.16a.2.2,0,0,0,.15-.13,1.58,1.58,0,0,0,.7-.7.23.23,0,0,0,.14-.15.18.18,0,0,0,.14-.15,3.43,3.43,0,0,0,.57-.69,1,1,0,0,0,.26-.43c.22-.13,0-.4.18-.55s0-.31.14-.43A4.25,4.25,0,0,0,667.69,513.62Zm-14.18-79.11,1-1.57.16.07a2.4,2.4,0,0,1-.84,1.73c-.09.07-.2.15-.31.07S653.44,434.61,653.51,434.51Zm-1.14,1.76a1.48,1.48,0,0,1,.42-.07,3.09,3.09,0,0,0,2.8-2.32c.78-2.34.13-4.71.19-7.06,0-.1,0,0,0-.07,0-.29-.3-.71,0-.83s.51.37.69.65c.28.45.27,1.05.71,1.42.25-.13.23-.39.24-.61,0-.5.11-.92.77-.64a.19.19,0,0,0,.16,0c-.21.18-.17.41-.17.65,0,.69,0,.71-.74.56-.14,0-.21.05-.28.14a1.61,1.61,0,0,0,.1.9,8.55,8.55,0,0,1,.2,4.05,5,5,0,0,1-5,4.23c-.29,0-.72.1-.77-.28S652,436.39,652.37,436.27ZM623.23,480.9a.38.38,0,0,1-.19.09A.66.66,0,0,0,623.23,480.9Zm-20.71-18.23a19.9,19.9,0,0,1,1.29-2.35,5.17,5.17,0,0,1,1.8-1.74,2.7,2.7,0,0,1,2.49-.36.65.65,0,0,0,.53,0,.35.35,0,0,0,.08.3,1.91,1.91,0,0,1,.5,1.84,1,1,0,0,1-.53-.7c-.07-.49-.4-.65-.84-.71a2.23,2.23,0,0,0-1.89.92,10.44,10.44,0,0,0-2,2.9,7.93,7.93,0,0,0-.86,3.54c0,1.45.4,1.85,1.79,2.09.22,0,.44.08.46.35s-.18.3-.35.38a2,2,0,0,1-2.77-1.19A7.06,7.06,0,0,1,602.52,462.67Zm-1,6.83a4.91,4.91,0,0,1,.3,1.65c0,.48,0,1,0,1.46h.2a3,3,0,0,0,.47-1.72,1.92,1.92,0,0,1,0-.48.31.31,0,0,1,.41-.27c.44.11.87.18,1.31.29a.45.45,0,0,1,.35.59.15.15,0,0,1,0,.07c-.69,1.92-.88,4-1.79,5.84a10.24,10.24,0,0,1-4.3,4.44,9.16,9.16,0,0,1-2.37,1.05c-.89.2-1.38-.06-1.61-.95a4.62,4.62,0,0,0-1-1.79,12.2,12.2,0,0,1-1.63-2.64,13.88,13.88,0,0,1-1.2-4.66,12.68,12.68,0,0,1,.21-3.42c.15-.74.31-1.46.51-2.18,0-.09.05-.18.09-.27.21-.48.4-.56.86-.32a12.06,12.06,0,0,0,1.16.52,5.07,5.07,0,0,0,3.77-.21,7.89,7.89,0,0,0,2.31-1.18c.39-.33.55-.23.72.29a2,2,0,0,1,.12.4A12.58,12.58,0,0,0,601.5,469.5Zm-9.79-14.92c.13-.06.22,0,.33.06a3.3,3.3,0,0,1,.72.77,18.16,18.16,0,0,0,1.67,2.17,23.23,23.23,0,0,0,2.2,1.76,7.65,7.65,0,0,1,1.1.87,3.57,3.57,0,0,0,.87.58,3,3,0,0,1,.43.24c.61.41.63.75,0,1.19a7.85,7.85,0,0,1-1.91,1.19,3.44,3.44,0,0,1-3.1-.41,1.2,1.2,0,0,1-.56-1.46c.13-.45.26-.57.75-.52a1.41,1.41,0,0,0,1.21-.2.29.29,0,0,0-.28-.25,1.72,1.72,0,0,1-1.29-.89,15.42,15.42,0,0,1-2.24-4.34,2,2,0,0,1-.11-.4A.34.34,0,0,1,591.71,454.58Zm-.07,4.93c.25-.45.45-.44.75,0a1.89,1.89,0,0,1,.34,1.71,1.91,1.91,0,0,0,1,2.31,5.47,5.47,0,0,0,2.18.73,3.9,3.9,0,0,0,2-.39,3.46,3.46,0,0,0,1.86-1.34c.12-.19.28-.39.57-.24a.62.62,0,0,1,.31.83,3.59,3.59,0,0,1-1.52,1.54,10,10,0,0,1-2.65,1.08,4,4,0,0,1-1.07.11,5.33,5.33,0,0,1-3.25-1.29c-.08-.08-.21-.15-.25-.25a5.86,5.86,0,0,1-.69-3.39A4.12,4.12,0,0,1,591.64,459.51Zm-.35-9.5a10.78,10.78,0,0,0,2.06,1.42.63.63,0,0,1,.23.16c.12.13.11.27-.08.31a6.1,6.1,0,0,1-.71.06,8.41,8.41,0,0,1-2.56-.86c-.31-.16-.53-.42-1-.29-.25.08-.49-.12-.58-.4a.77.77,0,0,1,.45-.79A1.91,1.91,0,0,1,591.29,450Zm3-4.47c-.54-.05-.91-.21-1-.7s-.36-.8-.44-1.26A2.68,2.68,0,0,1,594.26,445.54Zm-1.72.5a2.52,2.52,0,0,1,.47-.13,2.27,2.27,0,0,1,1.25.61l1.09,1.29a5.41,5.41,0,0,0,.89.9c.16.12.33.25.24.45s-.37.17-.55.11a4.86,4.86,0,0,1-1.95-.95,4.38,4.38,0,0,0-1.44-.86c-.26-.1-.59-.11-.55-.52S592.12,446.19,592.54,446Zm2.05-5.92a.29.29,0,0,1-.39,0,.72.72,0,0,1-.18-.21c-.12-.21-.47-.3-.36-.62,0-.13.19-.11.3-.08.44.11.73.35.76.65A.39.39,0,0,1,594.59,440.12Zm3.63,1.69a.33.33,0,0,1-.42-.15.86.86,0,0,1-.16-.8c.08-.19.26-.16.43-.16a.32.32,0,0,1,.14,0c.22.13.61,0,.68.35C598.93,441.28,598.49,441.73,598.22,441.81Zm24.12,66.09a1.86,1.86,0,0,1,0,.33,1.29,1.29,0,0,1,0-.33.63.63,0,0,0,0-.36A.45.45,0,0,1,622.34,507.9Zm18.53-42.52a5.75,5.75,0,0,1,.89-1.7c.13,0,.18.08.2.15A15.42,15.42,0,0,0,645,469a12.15,12.15,0,0,0,1.83,2c-.2.21-.43,0-.64,0a9.76,9.76,0,0,0-1.28-.46c-.11-.37-.49-.48-.79-.62a11.83,11.83,0,0,1-2.73-1.85C640,466.73,640.09,466.84,640.87,465.38ZM636,509.9c-.31.47-.57.63-.9.39a17.9,17.9,0,0,0-1.67-.9,22.34,22.34,0,0,0-4.86-2,15.65,15.65,0,0,0-3.4-.54,2.21,2.21,0,0,1-.35,0c-.22,0-.55.07-.59-.23a.81.81,0,0,1,.43-.76,1.9,1.9,0,0,1,.81-.17,26.62,26.62,0,0,1,4.77.92,20.68,20.68,0,0,1,2.74,1.06,15.09,15.09,0,0,1,2.8,1.57C636.06,509.42,636.26,509.56,636,509.9Zm3.6,5.34a.8.8,0,0,0-1.12,0,1.31,1.31,0,0,1-1.92-1.13.75.75,0,0,1,.42-.75,1.68,1.68,0,0,0,.37-.21c.29-.24.27-.46,0-.67-.14-.09-.3-.13-.45-.21a1.26,1.26,0,0,1-.61-1.25c.15-.54.59-.7,1.07-.79s.64.14.87.57c0,.08.06.18.1.26s.11.34.32.32.2-.18.25-.31a1.58,1.58,0,0,1,1.1-1c.95-.31,1.63.23,1.63,1.31a1.37,1.37,0,0,1-.12.6c-.26.37-.14.67.08,1a1.39,1.39,0,0,1-.17,2A1.37,1.37,0,0,1,639.63,515.24Zm5,5.65c-.21,0-.29-.23-.36-.4-.19-.44-.35-.87-.52-1.31a14.63,14.63,0,0,0-1.84-2.81.6.6,0,0,1-.14-.64c.3-.65.66-.72,1.14-.17a13.29,13.29,0,0,1,2.51,4,1.12,1.12,0,0,1,.14.51C645.53,520.46,644.93,521,644.61,520.89Zm6.53-4.77a8.27,8.27,0,0,1-.95.73,28.18,28.18,0,0,0-2.43,1.93l-1.07.8a.38.38,0,0,1-.64-.14,5.33,5.33,0,0,1-.32-.63,14.29,14.29,0,0,0-2.66-3.95,1.4,1.4,0,0,1-.47-1.2,1.51,1.51,0,0,0-.21-.88.75.75,0,0,1-.11-.54,3,3,0,0,0,0-1.47,1.94,1.94,0,0,0-2.84-1.42,1.32,1.32,0,0,0-.37.21c-.36.32-.67.17-1.09.07a10.7,10.7,0,0,1-2.82-1.63l-9.53-3.14c-.57,0-.64-.17-.46-.72a1.35,1.35,0,0,1,.85-.86c.83-.32,1.68-.56,2.52-.85a3.57,3.57,0,0,1,1.58-.27,11,11,0,0,1,1.82,0,5.54,5.54,0,0,1,3.14,1.86,18.63,18.63,0,0,0,3.23,3.23,6.35,6.35,0,0,0,2.6,1.18,32.94,32.94,0,0,0,3.95.56,6.25,6.25,0,0,1,3.19,1.34,10.17,10.17,0,0,1,2.71,3.54c.16.28.33.57.52.84C651.76,515.36,651.73,515.6,651.14,516.12Z" transform="translate(-569.85 -365)"/><path class="cls-1" d="M616.26,397.83a.48.48,0,0,1,0,.16c-.09.36-.3.49-.62.3a2.76,2.76,0,0,0-3.14.37,38,38,0,0,0-3.73,3.21c-1,.83-1.69,1.86-2.64,2.68-1.17,1-2.15,2.24-3.31,3.27a23.68,23.68,0,0,1-2.14,1.72,6.08,6.08,0,0,1-1.22.53.16.16,0,0,1-.23-.08c-.06-.07,0-.14.06-.17s.35-.23.52-.36a26.74,26.74,0,0,0,3.49-3.06,27.87,27.87,0,0,0,2.67-3.06,15.78,15.78,0,0,1,1.4-1.56c.33-.37.67-.72,1-1.1,1.12-1.27,2.33-2.45,3.56-3.62a5.12,5.12,0,0,1,2.62-1.27,1.18,1.18,0,0,1,1.6,1.09A3.51,3.51,0,0,1,616.26,397.83Z" transform="translate(-569.85 -365)"/><path class="cls-1" d="M651.31,411.38a.34.34,0,0,1-.49-.14,13.49,13.49,0,0,1-1.43-1.9c-.46-.8-.93-1.58-1.34-2.4-.8-1.62-1.49-3.29-2.13-5a8.38,8.38,0,0,0-1.2-2.22c-.58-.75-1-.91-1.8-.58-.45.18-.61.06-.58-.41a3.31,3.31,0,0,1,.51-1.53,1.49,1.49,0,0,1,2.29,0,4.91,4.91,0,0,1,1.1,2.09,41.57,41.57,0,0,0,2,6.13c.33.78.59,1.58,1,2.35a18.72,18.72,0,0,0,1.44,2.49A5.19,5.19,0,0,1,651.31,411.38Z" transform="translate(-569.85 -365)"/><path class="cls-1" d="M626.24,431.64c.38,0,.71,0,1,0a2.81,2.81,0,0,0,1.69-.56,1.5,1.5,0,0,0,.54-1.24c0-.25,0-.52.29-.54s.4.17.5.41a1.4,1.4,0,0,1-.22,1.46,3.33,3.33,0,0,1-3.51.89A.51.51,0,0,1,626.24,431.64Z" transform="translate(-569.85 -365)"/><path class="cls-1" d="M617.47,417.18a3.68,3.68,0,0,0,1.4-1.45c.11-.2.17-.44,0-.56s-.33.11-.44.25a2.5,2.5,0,0,1-.93.84c-.38.15-.77.3-1.13,0-.59-.5-1.17-1-1.74-1.55-.37-.35-.38-.49-.11-.92.39-.64.83-1.25,1.2-1.9a2.48,2.48,0,0,0,.43-1.74c0-.16-.09-.35-.28-.37s-.24.18-.28.34-.07.41-.11.62a4,4,0,0,1-1.19,2.34,1.58,1.58,0,0,1-1.17.58,12.55,12.55,0,0,1-1.91-.43c-.25-.07-.32-.26-.24-.51s.09-.36.15-.54a5.28,5.28,0,0,0,.21-2.09,2.44,2.44,0,0,0-.73-1.63c-.13-.12-.28-.23-.44-.14s-.09.31,0,.45a5.05,5.05,0,0,1,0,3.91.64.64,0,0,1-.62.48,10.31,10.31,0,0,0-1.66.3c-.66.15-.79.08-.86-.62a4.46,4.46,0,0,0-1.66-3,.79.79,0,0,0-.56-.25c-.2,0-.23.12-.17.28a.6.6,0,0,0,.16.23,4.11,4.11,0,0,1,1.39,3.18,1.34,1.34,0,0,1-.65,1.36c-.57.37-.78.5-1.38-.13a4,4,0,0,0-1.46-1.07,2.52,2.52,0,0,0-2,.12c0,.08,0,.11,0,.11a.9.9,0,0,0,.27.07,2.66,2.66,0,0,1,2.33,1.35,1.68,1.68,0,0,1,.07,2,11.57,11.57,0,0,0-1.39,3.81,1.9,1.9,0,0,0,0,.63c.07.66.16,1.31.23,2a1.27,1.27,0,0,0,.17.54,12.48,12.48,0,0,0,1.75,2.62c.29.27.56.57.85.85a.89.89,0,0,1,.26.76,2.59,2.59,0,0,1-.46,1.17c-.09.15-.3.3-.09.48s.35-.05.49-.15a2.44,2.44,0,0,0,.82-1c.24-.47.25-.48.76-.31s1,.35,1.52.53a1.17,1.17,0,0,1,.5.38,1.65,1.65,0,0,1,.2,1.73c-.12.33-.26.65-.39,1-.06.14-.08.28.06.37s.22,0,.32-.09a2,2,0,0,0,.71-.94,3,3,0,0,0,.15-1.66c-.1-.49,0-.64.55-.61a2.76,2.76,0,0,0,1.17-.18,1.44,1.44,0,0,1,1.88.63,3.6,3.6,0,0,1,.67,1.23,3.2,3.2,0,0,0,.16.39c.05.13.09.3.25.3s.24-.23.25-.37a2.72,2.72,0,0,0-.45-1.87c-.58-.82-.5-1.07.34-1.63a1.09,1.09,0,0,0,.17-.13,2.39,2.39,0,0,1,3.33.6l.28.41c.06.08.12.15.23.13s.16-.16.15-.27a1.79,1.79,0,0,0-1-1.55,7.12,7.12,0,0,0-.72-.28c-.61-.22-.69-.39-.44-1a1.39,1.39,0,0,0,.06-.13,11.26,11.26,0,0,0,1-3.15,7.38,7.38,0,0,0-.48-4.28C616.94,417.58,617,417.45,617.47,417.18Zm-3,9.78a1.67,1.67,0,0,1-.47.31l-1.68.72a5.15,5.15,0,0,1-3.08.32,8.78,8.78,0,0,1-2.8-.82,6.55,6.55,0,0,1-2.91-3.32,11.16,11.16,0,0,1-.46-1.34,2.58,2.58,0,0,1-.09-.62c0-.62.18-.78.79-.8s1.45-.06,2.18-.12a4.15,4.15,0,0,0,2-.88c.36-.24.4-.46.18-.84-.32-.55-.69-1.07-1-1.59-.06-.08-.12-.15-.17-.23s-.18-.32-.09-.46.37-.11.51,0c.47.3,1,.39,1.51.74s.83.41,1.16-.31a3.82,3.82,0,0,0,.31-2.46c0-.14-.07-.28-.09-.42,0-.35.07-.47.44-.44a6.07,6.07,0,0,1,2.69,1,7.15,7.15,0,0,1,2.69,2.82,7.71,7.71,0,0,1,.78,3.84A6.72,6.72,0,0,1,614.46,427Z" transform="translate(-569.85 -365)"/><path class="cls-1" d="M649.92,417.91c-.36.06-.68.42-1.06.3s-.37-.67-.59-1a1.38,1.38,0,0,1,.07-1.74,5.43,5.43,0,0,0,.86-3.77c0-.15-.05-.33-.19-.34s-.25.19-.25.35c0,.38,0,.76,0,1.13a3.16,3.16,0,0,1-1,2.2c-.19.19-.43.33-.67.07a20.81,20.81,0,0,0-1.59-1.39.61.61,0,0,1-.25-.68,11,11,0,0,0,.13-2.74,1.1,1.1,0,0,0-.43-1,.9.9,0,0,0-.15.6,7.63,7.63,0,0,1-.51,2.4c-.19.53-.38.67-.83.54a8.4,8.4,0,0,0-2.24-.07c-.8,0-.86,0-.93-.79a5.71,5.71,0,0,0-.69-2.27,2.51,2.51,0,0,0-.54-.63.13.13,0,0,0-.19,0,.31.31,0,0,0-.07.18.48.48,0,0,0,.07.2,6.62,6.62,0,0,1,.26,3.06.91.91,0,0,1-.56.83,12,12,0,0,0-1.11.61c-.52.31-.57.3-1-.16a10.94,10.94,0,0,0-.89-.91,2.08,2.08,0,0,0-1.22-.57c0,.09,0,.15,0,.18a1.18,1.18,0,0,0,.26.24,3.22,3.22,0,0,1,1.23,1.83,1.07,1.07,0,0,1-.25,1.29,1.67,1.67,0,0,0-.34.45,7.91,7.91,0,0,0-.7,7,7.65,7.65,0,0,0,2.17,3.23.72.72,0,0,1,.27.94,1.78,1.78,0,0,1-.49.76c-.1.1-.29.17-.19.41a1.27,1.27,0,0,0,1.29-.76c.36-.6.57-.64,1.22-.35a5.89,5.89,0,0,0,.58.24.87.87,0,0,1,.62.91,5,5,0,0,1-.74,2.46c0,.09-.16.21,0,.31s.26,0,.35-.09a3.82,3.82,0,0,0,1.3-2.65c0-.48.15-.6.65-.64a5.74,5.74,0,0,0,1.17-.21c.83-.24,1-.14,1.46.64a2.58,2.58,0,0,0,.57.94.58.58,0,0,0,.15-.66c-.1-.34-.17-.68-.29-1a.54.54,0,0,1,.22-.73,7.94,7.94,0,0,0,1.18-1c.58-.51.7-.51,1.36-.15a1.43,1.43,0,0,1,.59.76c.12.29.17.63.46.83a.79.79,0,0,0,.16-.76,2.79,2.79,0,0,0-.84-1.58c-.43-.39-.43-.51-.17-1a8.06,8.06,0,0,0,1.19-4.35,1.26,1.26,0,0,1,.78-1.29,1.54,1.54,0,0,0,.77-.63C650.14,417.81,650,417.89,649.92,417.91Zm-2.21,3.61a6.72,6.72,0,0,1-4.76,5.35,6,6,0,0,1-5-.64,5.64,5.64,0,0,1-2.67-3.15,4.07,4.07,0,0,1-.2-1.39c0-.57.09-.68.64-.66a5.43,5.43,0,0,0,3.37-1.06c.48-.34.51-.52.19-1-.41-.68-.82-1.36-1.34-2.2a8.85,8.85,0,0,1,2,.61c.15.06.29.15.44.21a.36.36,0,0,0,.51-.23,3.79,3.79,0,0,0,.17-3.06c-.23-.5,0-.77.55-.73a5.39,5.39,0,0,1,1.39.23,7.33,7.33,0,0,1,3.7,2.67A6.29,6.29,0,0,1,647.71,421.52Z" transform="translate(-569.85 -365)"/><path class="cls-1" d="M591.26,426.38a3.05,3.05,0,0,0-1-1.18c-.28-.22-.59-.14-.59.14,0,.6-.39.82-.81,1a1.73,1.73,0,0,0-.61.45,13.15,13.15,0,0,0-1.34,1.78,7,7,0,0,0-.73,5,1,1,0,0,1,0,.62c-.18.5-.13.6.37.7a1.61,1.61,0,0,0,1,0,6,6,0,0,0,2.58-2,8,8,0,0,0,1.5-4.45A4.68,4.68,0,0,0,591.26,426.38Zm-3.61,7.17c-.32,0-.26-.42-.27-.65a7.15,7.15,0,0,1,.31-2.64.4.4,0,0,1,.34-.32l.29,3.06C588.19,433.29,588,433.58,587.65,433.55Zm2.77-2.82c-.06.1-.11.21-.18.31s-.19.24-.33.22-.19-.18-.22-.32a6.8,6.8,0,0,1,.13-3.74s0-.09,0-.13c.07-.2.14-.45.39-.43s.37.22.46.46a5.57,5.57,0,0,1,.14,1.46A3.72,3.72,0,0,1,590.42,430.73Z" transform="translate(-569.85 -365)"/></svg>