<svg id="pictures" xmlns="http://www.w3.org/2000/svg" viewBox="0 0 155 281.89"><defs><style>.cls-1{fill:#00202c;}</style></defs><path class="cls-1" d="M1067.43,751.43l.25-3.29c-7,9.52-15.74,12-26,7.46-6.56-2.89-10-8.4-10.79-15.5a29.38,29.38,0,0,0,0-7c1.27-12.88,10.81-21.81,23.64-22.11.52,0,1.09.16,1.47-.38a1.49,1.49,0,0,1-.08-1.6,1,1,0,0,1,1.63,0c1.43,1.77,3.59,2.2,5.45,3.19,6.76,3.58,10.23,9.31,10.73,16.9a6.07,6.07,0,0,0-.13,3.3.69.69,0,0,1,0,.25c-.07.24.12.44.18.35,1.45-2.24,3.71-3.85,4.89-6.3a3.64,3.64,0,0,1,2.43-2.29,6.56,6.56,0,0,0,1.42-.53,46.11,46.11,0,0,1,19.15-7.8,4,4,0,0,0,3.16-2.56c.65-1.36.67-3,1.75-4.14.24-.14.46,0,.68.09-.3-.5.32-1.44-.75-1.58-2.15-1.48-4.31-1.18-6.52-.11-1.42.68-2.59,1.88-4.25,2.08a1.64,1.64,0,0,1-1.38-.69c-1.33-3-2.34-6.1-4.21-8.81a76,76,0,0,0-6.65-14.67,3.54,3.54,0,0,1-.66-1.43,73.63,73.63,0,0,0-8.34-16.28c-1.11-1-2.12-.32-3.14.17-10,5.43-16.68,13.73-20.61,24.31a8.57,8.57,0,0,0,1.19,8.6c1.35,1.78,2.31,3.81,3.62,5.62.5.68,1.23,1.43.32,2.35a1,1,0,0,1-1.13-.06c-2.3-3.51-4.81-5.46-9.65-4-3.7,1.1-6.53-1.29-7.8-4.69a45.12,45.12,0,0,0,0-5.33c.91-4.38,3.22-8.08,5.73-11.66a15.05,15.05,0,0,0,2.2-4.82c2.32-8.38,5.35-16.45,10.82-23.36,3.3-4.17,7.3-7.38,12.77-8.11,8.2-1.1,13.13,2.65,14.46,10.87a30.3,30.3,0,0,0,0,6.93,11.92,11.92,0,0,1-1.4,5.63c-1.4,2.33-.93,4.21.33,6.35a48.71,48.71,0,0,1,3.21,6.72c.58,1.44,1.07,1.64,2.4.76a21.71,21.71,0,0,1,9.56-3.74,3.89,3.89,0,0,0,2,.15c.78-.05-.27-.21,0-.32a5.65,5.65,0,0,1,4,0c.6.76,1.32.26,2,.19a19.49,19.49,0,0,1,16,15.51,24.14,24.14,0,0,0,0,6.41,17.89,17.89,0,0,1-8.66,12.6c-.57.35-1.61.44-1.41,1.36s1.16.37,1.8.45a46.54,46.54,0,0,1,8.9,2.36,1.28,1.28,0,0,1-.73,1.71c-2.72-.48-5.11-1.93-7.91-2.3a12.47,12.47,0,0,0-14.44,11.56c-.23,2.5,0,5,0,7.43a11.18,11.18,0,0,1-.46,1.72c-.22.59-.07.79.52.77,1.25,2.66,1.43,5.62,2.41,8.36a2,2,0,0,1-.76,1.39c-1,.09-1.37-.76-1.7-1.44-2.31-4.74-5.8-8.07-11-9.31-1.38-.82-2.92-.39-4.39-.55,0,0-.14.07-.14.11a.85.85,0,0,0,0,.26c-.43.68-1.17.78-1.85,1a15.71,15.71,0,0,0-11.58,11.15,2,2,0,0,1-.56.89c-1.22.88.1,1.77,0,2.66a11.69,11.69,0,0,1,0,4.17c-.42,1-.29,2.39-1.63,2.92a2.22,2.22,0,0,1-.38-1.73,8.36,8.36,0,0,0-.13-4.27v-.53A6.65,6.65,0,0,0,1067.43,751.43Z" transform="translate(-1017 -646.84)"/><path class="cls-1" d="M1086.08,906.36a24.43,24.43,0,0,0-5.26-7.87,7.67,7.67,0,0,0-5.41-2.29.46.46,0,0,1-.13-.44c0-.15.08-.23.12-.23.44-.07,1-.34,1.3-.18,3.25,1.61,4.33-1,5.72-2.92,6.12-8.27,11.84-16.8,17.5-25.39.95-1.45,1.39-2.42-.39-3.65a13.66,13.66,0,0,1-3.8-3.74,2.37,2.37,0,0,1-.2-1.53c.4-.65.9-.38,1.36-.12a10.48,10.48,0,0,1,2,1.76c3,2.84,3.21,2.75,5.31-.87.93-1.59.76-2.53-1-3.36a43.78,43.78,0,0,0-9.16-3.62,4.79,4.79,0,0,1-2.69-1,.94.94,0,0,1,.61-.93,7.89,7.89,0,0,1,4.49.14c10.32,2.69,18.83,8,24.77,17.08a6.32,6.32,0,0,0,2.8,2.78c1.17,2.12-.26,2.89-1.85,3.59a20.88,20.88,0,0,1-3,.11,14.64,14.64,0,0,1-7-1.47c-2.28-1.07-3.31-.18-4.41,1.75-5.72,10-11.67,19.85-18.08,29.41a8.28,8.28,0,0,1-2,2.48A13.94,13.94,0,0,1,1086.08,906.36Z" transform="translate(-1017 -646.84)"/><path class="cls-1" d="M1067.43,823.47c3.41-9.55,8.54-18.16,14.44-26.34a22.81,22.81,0,0,0,9.79,2.13c.54,1.3-.36,2.21-.93,3.17-2.87,4.82-6,9.46-8.65,14.44-.59,1.14-1.18,2.25-.15,3.44.76,1.06,1.55-.16,2.33,0a3,3,0,0,1,1.86.41,11.09,11.09,0,0,0,5.83.09,4.18,4.18,0,0,0,4.39-3,11.71,11.71,0,0,1,1.76-2.93c.62-.82,1.25-1.81,2.56-1.13a1.89,1.89,0,0,1,0,2c-1.57,3.78-2.91,7.63-4.13,11.52a2.83,2.83,0,0,0-.27,2.8c.1.77.16,1.53-.61,2-1.68-.25.4.93-.38,1,.15.37-.75,1.33.58,1.06a25,25,0,0,1,1.54,6.5c-.17.58-.29,1.22-1.15,1a12.33,12.33,0,0,1-2.49-6.52c.12-1.25.57-2.52-.26-3.7l-3.09-.12a43.25,43.25,0,0,0-9.1,0,5.53,5.53,0,0,1-2.81-.39c-.81-.72-1.7-.25-2.56-.18-3.13-.58-6.55-.46-8.56-3.66C1067.37,826,1067.76,824.72,1067.43,823.47Z" transform="translate(-1017 -646.84)"/><path class="cls-1" d="M1123.7,898.07c0-1.36,2.38-2,1.12-3.74-.17,0-.23-.11-.21-.21s.08-.15.12-.15a6.91,6.91,0,0,0,3.17-3c3.8-6.75,7.94-13.3,11.47-20.2.75-1.46.65-2.25-1-2.69.18-.63.27-1.34,1.12-1.47a62.05,62.05,0,0,0,11.61-3.56,5.64,5.64,0,0,1,3-.78c.78.27,1.34.66.8,1.58-2.62.85-3.64,3-4.72,5.32-3.22,6.87-6.6,13.67-10,20.47-1.06,2.11-2.83,4.07-.46,6.39-1.72-.9-2.56.3-3.89,1.18a15,15,0,0,1-12.13,2.08A.91.91,0,0,1,1123.7,898.07Z" transform="translate(-1017 -646.84)"/><path class="cls-1" d="M1091.73,799.34c-3,1.47-5.78-.45-8.67-.77-.7-.08-.28-1.37-1.19-1.44a19.88,19.88,0,0,1,3.75-4.85c1.57,1.22,2.92,1.27,4-.65.83-1.5,1.62-.13,2.43.08l3.24,2.17c.1.66.6.56,1.06.54l2.21.86c.28.72,1.13.5,1.51.86.55.54,2.47-.19,1.63,1.67.52.17,1.08,0,1.6.1-.15-.14-.49-.16-.47-.42.07-.73.63-.71,1.16-.68a41.68,41.68,0,0,0,6.32-.18c.65-.48,1.17-1.25,2.15-1a1.87,1.87,0,0,0,2-.68l2.26-1c.81.14,1.24-.37,1.61-1l1.69-1.14c2.52-1.2,2.52-1.2,3.15-3.69l1.27.33c1.25.85,2.75.14,4.06.64H1133c2.36-.31,4.74-.76,6.86.86.3,1.32,1.47,1.29,2.44,1.57.4.27.72.87,1.33.32l.63.29c.4,1,1.2,1,2.06.79l.56,0c.55.29,1.17.5,1.42,1.15a1.88,1.88,0,0,1-.37,2c-.73.31-.35.82-.21,1.29a4,4,0,0,1-1.5,3.22,1.27,1.27,0,0,1-.44.21c-.75.12-1,.38-.34,1-.75,1.59-1.21,3.52-3.65,3.2-.91-4.81-.91-4.81-5.92-5-2.93-.13-3.57-.78-3.69-3.72a2.44,2.44,0,0,1,0-.27c-.13-4.8-.51-5.09-5.26-4.6-1.73.17-2.26,1-2.19,2.67.25,5.85.09,6.12-5.77,5.87-3.55-.15-7.12-.19-10.67-.35-3.06-.13-6.17.41-9.29.07-1.14-.12-1.24,1.68-2.39,1.88-2.24-.34-2.24-2.3-2.79-3.86s-1.81-1-2.49-.63.41,1,.69,1.44A.54.54,0,0,1,1091.73,799.34Z" transform="translate(-1017 -646.84)"/><path class="cls-1" d="M1152.8,773.91c-3.21-1.29-3.78-3.6-1.47-6.08.78-.85,1.59-1.67,2.45-2.45a1.18,1.18,0,0,0,0-2,.94.94,0,0,1,0-1.19c1.1.69,2,1.12,3-.39a7.73,7.73,0,0,1,4-3c2.74-1,4.93.15,6.41,3.36a5.64,5.64,0,0,0,0,3.18c-.66,3.33-2.92,5.45-5.73,6.85-1.82.91-3,1.89-3.26,4a2.71,2.71,0,0,1-1.62,2.22,1,1,0,0,1-.09-1.3c-.4-1.17,1.8-1.9.56-3.22A9.47,9.47,0,0,0,1152.8,773.91Z" transform="translate(-1017 -646.84)"/><path class="cls-1" d="M1107.63,897.12l-2.8,2.67c-.84.59-1.68,1.19-1.88-.52.34-1.61,1.66-2.51,2.74-3.53a96,96,0,0,0,19.09-24.36c1.55-2.9,3.14-5.77,3.67-9.11-1.59-.4-1.28,1.71-2.51,1.62a3.35,3.35,0,0,1-1.43-1.87,6.48,6.48,0,0,1,1.75-4.79,1.07,1.07,0,0,1,.73,0,4.69,4.69,0,0,0,5.68,1.63,2.65,2.65,0,0,1,1.93-.27c.69.35,1.78.3,1.56,1.56-2.74.17-3.52,2-4.43,4.33-4.82,12.1-12.63,22.14-22,31A23.69,23.69,0,0,0,1107.63,897.12Z" transform="translate(-1017 -646.84)"/><path class="cls-1" d="M1143.24,761.69l-5.52,1.47c-.29-.13-.66-.17-.73-.57,1.2-1,3.32-1.33,2.48-3.68a8.34,8.34,0,0,0,0-3.72c.13-1.68.21-3.36.41-5,.1-.77.26-2,.71-2.19,3.3-1.19,1.25-3.6,1.39-5.49-.15-1,.39-1.05,1.12-.75.41,2.37,1.52,4.58,1.55,7a52.07,52.07,0,0,0,0,9.09l-.35,1.9C1145.11,761,1143.62,761.06,1143.24,761.69Z" transform="translate(-1017 -646.84)"/><path class="cls-1" d="M1138.21,733.7c-2.6-3.2-2.6-3.2-4.48.8-2.55-6.13-6.38-10.84-12.12-13.81l.52-1.45a30.68,30.68,0,0,1,16.67,13.37C1139.19,733.29,1139.17,733.75,1138.21,733.7Z" transform="translate(-1017 -646.84)"/><path class="cls-1" d="M1165.08,918.72c-.51-1.41-1.52-.74-2.38-.55a115.45,115.45,0,0,1-23.65,2.67c-2.43.23-4.88.22-7.29.62s-4.61-.44-6.93-.22c-.31-.47-.32-.9.22-1.23,4-.2,8.1.17,12.14-.19,7.8-.41,15.61-.77,23.3-2.31,2.11-.42,4.14-1,5.61-2.71,1-.71,1-.71,1.18,0-.29,1.2-2.18,1.62-1.57,3.25l-.09.32A1,1,0,0,1,1165.08,918.72Z" transform="translate(-1017 -646.84)"/><path class="cls-1" d="M1155,863.81a1.11,1.11,0,0,0-1.19-1.15c.18-1.42,1.5-1.67,2.42-2.22a85.74,85.74,0,0,0,9.74-6.9c1.61-1.29,2.76-2.72,2.34-4.94.34-.44.71-.79,1.32-.47,1.66,1.68,1.62,3.26-.54,5.73A38.28,38.28,0,0,1,1155,863.81Z" transform="translate(-1017 -646.84)"/><path class="cls-1" d="M1073.27,895.49c-2.18-4.82-3.85-9.86-6.44-14.5-1.26-2.24-2.56-4.45-5-5.71a1,1,0,0,1,.07-1.23c3.24.66,4.83,3.2,6.3,5.75a63.61,63.61,0,0,1,5.61,14.43C1074,894.8,1074.28,895.44,1073.27,895.49Z" transform="translate(-1017 -646.84)"/><path class="cls-1" d="M1128.06,789.58c-1.14-.86-2.57-.24-3.77-.75,0,0,0-.17,0-.24s.12-.13.18-.19a41.63,41.63,0,0,0,14.23-.22,30.53,30.53,0,0,0,13.68-6.59c.4-.36.76-.75,1.37-.65a.6.6,0,0,1,.84.13c-3.35,4.12-7.9,6.3-12.8,7.89-.66.21-1.46.18-1.51,1.16-.13.26-.27.28-.41,0-.75.44-1.22,0-1.81-.42-1.48-1.16-3.08-.8-4.65-.13A10.85,10.85,0,0,0,1128.06,789.58Z" transform="translate(-1017 -646.84)"/><path class="cls-1" d="M1167.58,903.61c-.67-5.41-4.45-6.79-9.11-7-1,.44-2,0-3,.41l-6.9,1.23c-.65.09-1.49.73-1.69-.55,5.13-1.56,10.23-3.14,15.73-1.71,4.27,1.12,6.34,3.59,6.31,8a11,11,0,0,1,0,5,1.08,1.08,0,0,1-.07.47c-1.41-.31-.54-1.43-.73-2.16C1167.8,906.1,1168.71,904.71,1167.58,903.61Z" transform="translate(-1017 -646.84)"/><path class="cls-1" d="M1092.05,791.71c-.7.31-1.79-.79-2.21,1-.23,1-1.92,1.49-3.15,1.56-1.44.09-.19-1.57-1.07-2,.3-1.11,2.27-1.78,1.72-2.67-1.14-1.86-1.85-4.3-4.37-5-.8-1.08,1-1.84.37-2.9-.22-.6.05-.78.61-.7A35.59,35.59,0,0,0,1092.05,791.71Z" transform="translate(-1017 -646.84)"/><path class="cls-1" d="M1137.83,922.27c7.33.18,14.66.41,22-.47a24.16,24.16,0,0,0,3.72-1,1,1,0,0,1,0,1.5,20.05,20.05,0,0,1-6.22,1.1,128.46,128.46,0,0,1-21.12-.62C1136.37,921.55,1137.23,922.29,1137.83,922.27Z" transform="translate(-1017 -646.84)"/><path class="cls-1" d="M1166.24,800.34a22.06,22.06,0,0,1,5.24,12.39,1.6,1.6,0,0,1-1.92,1.14,2.84,2.84,0,0,1-.94-2.12c-.65-4-2.75-7.4-4.41-11C1164.59,799.19,1165.29,799.17,1166.24,800.34Z" transform="translate(-1017 -646.84)"/><path class="cls-1" d="M1053.27,884.93c-4.67-4.29-10-3.37-15.4-2-.94.25-1.87.53-2.8.8-.64-.41-.64-.78.09-1,1.2-.41,1.72-1.56,2.58-2.32a.41.41,0,0,1,.08.68c1.59.64,3-.36,4.53-.48,3.78-.32,7.46-.39,10.47,2.47C1053.4,883.59,1054,884.1,1053.27,884.93Z" transform="translate(-1017 -646.84)"/><path class="cls-1" d="M1069,761.47a47.87,47.87,0,0,0,5.3,13c.29.39.33.85-.11,1.08s-.77-.17-1.09-.45a27.32,27.32,0,0,1-5.16-11.9C1068.26,762.59,1068.13,761.72,1069,761.47Z" transform="translate(-1017 -646.84)"/><path class="cls-1" d="M1034,922.29c-4.91-.31-9.73-.94-13.93-3.82a.6.6,0,0,1,.45-.79,38.48,38.48,0,0,0,14,3.2c.88.45,2-.23,2.79.49C1036.55,922.86,1035,921.64,1034,922.29Z" transform="translate(-1017 -646.84)"/><path class="cls-1" d="M1166.24,800.34c-.73-.32-1.53-.83-1.65.58-.17.06-.4.12-.5,0-2.53-2.63-5.78-4.23-8.76-6.21-.11-.6.3-1,.67-1.31C1160.27,794.46,1164,796.33,1166.24,800.34Z" transform="translate(-1017 -646.84)"/><path class="cls-1" d="M1061.94,874.05l-.07,1.23c-4.84-1.32-9.65-.61-14.46.25-.39-.25-1.16,0-1.05-.88C1051.5,873.2,1056.68,872.39,1061.94,874.05Z" transform="translate(-1017 -646.84)"/><path class="cls-1" d="M1045.27,920.89l7.28-.68c.7-.06,1.47,0,1.32-1.06a1.13,1.13,0,0,1,.74-.31c1.15.22,2.12.64,2.2,2-.17.41-.39.72-.9.49-2.58,0-5.11.81-7.71.56a10.87,10.87,0,0,1-2.9.18c-1.82-.37-3.8.75-5.5-.62C1041.53,920.41,1043.49,921.49,1045.27,920.89Z" transform="translate(-1017 -646.84)"/><path class="cls-1" d="M1075.93,928.07a1.27,1.27,0,0,1-1.32.26,7.36,7.36,0,0,1-3.84,0c-4.78-.16-8.75-2.36-12.58-4.94a.94.94,0,0,1,.82-1.22c2.15.18,3.75,1.64,5.51,2.61,3.48,1.92,7.24,2.27,11,2.62A.62.62,0,0,1,1075.93,928.07Z" transform="translate(-1017 -646.84)"/><path class="cls-1" d="M1120.31,920.87a42.28,42.28,0,0,1-9.4-1.7.71.71,0,0,1-1.05,0v-.54c.21-.37,0-.92.49-1.18,2.76,1.93,6.06,1.6,9.15,2.15a35.57,35.57,0,0,0,3.73.24c.48.35,1.24-.18,1.61.51v.91l-2.08.64C1121.66,922.21,1121.2,921,1120.31,920.87Z" transform="translate(-1017 -646.84)"/><path class="cls-1" d="M1103.25,899.07c0,1.35.93.75,1.58.72a37.32,37.32,0,0,1-7.88,6.11,1.66,1.66,0,0,1-.83-1.3A13,13,0,0,1,1103.25,899.07Z" transform="translate(-1017 -646.84)"/><path class="cls-1" d="M1035.06,891.75c2.17,3.53,3.62,7.5,6.53,10.57.31.66-.07,1-.61,1.22-3-3.09-4.72-7.06-6.83-10.75C1034.44,892.43,1034.59,892,1035.06,891.75Z" transform="translate(-1017 -646.84)"/><path class="cls-1" d="M1096.27,904.61a1.45,1.45,0,0,1,.68,1.29,26.5,26.5,0,0,1-7.6,4.57,1.45,1.45,0,0,1-.72-1.31C1090.79,907,1093.07,905,1096.27,904.61Z" transform="translate(-1017 -646.84)"/><path class="cls-1" d="M1169.58,848.13l-1.16.59c-2.55-2-3.16-5.15-4.58-7.82-.21-.39.15-.83.56-1.07a1.77,1.77,0,0,1,1.2,0c1.33.56,1.09,2,1.7,3C1167.76,844.7,1169.58,846,1169.58,848.13Z" transform="translate(-1017 -646.84)"/><path class="cls-1" d="M1138.21,733.7a1.1,1.1,0,0,0,.59-1.09,23.86,23.86,0,0,1,4.26,9.12,1.14,1.14,0,0,0-1.12.75Q1140.08,738.08,1138.21,733.7Z" transform="translate(-1017 -646.84)"/><path class="cls-1" d="M1096.25,841.78c.51-.23.58-.69.65-1.16,2.72.47,3.21,1.37,1.46,3.31-1.37,1.52-2.11,3.88-4.64,4.13a1.39,1.39,0,0,1-1.19-1c1-1,1.92-2.06,2.91-3.05C1096.09,843.39,1096.78,842.82,1096.25,841.78Z" transform="translate(-1017 -646.84)"/><path class="cls-1" d="M1110.35,917.43l-.49,1.18c-2.43-3.69-1.76-7.27.39-10.78,1,0,.94.5.64,1.17C1109.93,911.76,1109.18,914.54,1110.35,917.43Z" transform="translate(-1017 -646.84)"/><path class="cls-1" d="M1138.11,860.06l-.21,0-.18-.13c-.71-.52-1.94-.23-2.21-1.43,2.28-1.49,5-1.83,7.51-2.58a1.43,1.43,0,0,1,1.88,1.06c.24.88-.46,1.27-1.11,1.6a22.43,22.43,0,0,1-4,1.52A2.23,2.23,0,0,1,1138.11,860.06Z" transform="translate(-1017 -646.84)"/><path class="cls-1" d="M1143.24,761.69c-.14-.2-1.14-.14-.37-.51s1.36-.52,1.39-1.44l.47.31c1,.79,2.25-.14,3.27.48a7.11,7.11,0,0,1,5.85,1.66l0,1.19C1150.49,761.56,1146.88,761.54,1143.24,761.69Z" transform="translate(-1017 -646.84)"/><path class="cls-1" d="M1088.68,909.4a1.13,1.13,0,0,1,.67,1.07c-2.15.11-1.22,3.1-3.17,3.41a.55.55,0,0,1-.11-.84c.87-2.22.5-4.45,0-6.68.16-.64.21-1.51,1.16-.58C1088.85,906.54,1088.15,908.21,1088.68,909.4Z" transform="translate(-1017 -646.84)"/><path class="cls-1" d="M1169.94,813.87l1.54-1.14.19,3a9.65,9.65,0,0,1,0,4.11l-.2,3.55c-1.13-.37-.63-1.33-.64-2,0-2.2-.08-4.4,0-6.61,0,2.42,0,4.83-.06,7.25,0,.58.3,1.54-.94,1.32A13.46,13.46,0,0,1,1169.94,813.87Z" transform="translate(-1017 -646.84)"/><path class="cls-1" d="M1156,793.42a1.09,1.09,0,0,1-.61,1,10.17,10.17,0,0,1-7.39-.56l-1.11-1C1150,792.69,1153,792.38,1156,793.42Z" transform="translate(-1017 -646.84)"/><path class="cls-1" d="M1169.89,823.43c1.35-1.75.37-3.77.61-5.64.14-1.13,0-2.28.2-3.42.83,3-.24,6.1.77,9a10,10,0,0,1-.89,3.89c-1.09-.39-1.23-1.39-1.53-2.3C1169,824.33,1168.88,823.57,1169.89,823.43Z" transform="translate(-1017 -646.84)"/><path class="cls-1" d="M1170.49,827.75c-.32,2.55-1.85,4.63-2.69,7-.8.08-.9-.53-1-1.07a15.8,15.8,0,0,1,2.23-7C1169.9,826.43,1170.07,827.26,1170.49,827.75Z" transform="translate(-1017 -646.84)"/><path class="cls-1" d="M1095.78,858c0,.55,0,1.11,0,1.67a16.07,16.07,0,0,1-4.28-5.4.68.68,0,0,1,0-.77C1093.67,854.22,1095.41,855.43,1095.78,858Z" transform="translate(-1017 -646.84)"/><path class="cls-1" d="M1138.11,860.06l1.29-.57a9.13,9.13,0,0,1,.15,7.45l-1.15,1.1Z" transform="translate(-1017 -646.84)"/><path class="cls-1" d="M1034.56,884.56c.09.6,0,1.39,1,1.1a.38.38,0,0,1,.17.41q-.08.21-.15.21c-2.09.79-1.12,2.46-1.1,3.85-.26.36,0,1-.57,1.18a7.23,7.23,0,0,1-.89-4.76C1033.18,885.71,1033.12,884.5,1034.56,884.56Z" transform="translate(-1017 -646.84)"/><path class="cls-1" d="M1075.93,928.07l0-.22c.35-2-.85-4.06-.12-6.11,1.48-.52,1.79.61,2.16,1.57a19.69,19.69,0,0,0,.69,2.5.81.81,0,0,1-.09.77A4.12,4.12,0,0,1,1075.93,928.07Z" transform="translate(-1017 -646.84)"/><path class="cls-1" d="M1116.86,898.89c-1,1.89.15,3.42,1,5-1.16.4-1.48-.67-2.19-.84-.57-.43,0-1.2-.51-1.65a3.47,3.47,0,0,1,.87-3.32C1116.71,898,1117,898.22,1116.86,898.89Z" transform="translate(-1017 -646.84)"/><path class="cls-1" d="M1039.84,921.48c1.75.72,3.59.19,5.38.36.2.08.27.16.21.26s-.11.16-.17.16a88,88,0,0,1-11.25,0c.93-.95,2.32,0,3.29-.83A1.89,1.89,0,0,1,1039.84,921.48Z" transform="translate(-1017 -646.84)"/><path class="cls-1" d="M1113,922.41h6.38c-2.29,1.75-4.86,1.34-7.43.94C1111.79,922.45,1112.66,922.73,1113,922.41Z" transform="translate(-1017 -646.84)"/><path class="cls-1" d="M1086.07,913l.11.84-.51,2.46a5.93,5.93,0,0,1-.05,3.39l-.66,1.57a.58.58,0,0,1-.94,0c-.25-.85.57-1.38.62-2.14a10.83,10.83,0,0,0-.05-4.32l-.15-1.06a.4.4,0,0,1,.68,0Z" transform="translate(-1017 -646.84)"/><path class="cls-1" d="M1167.28,914.81c-.39-.47-.79.09-1.18,0l1.65-4.93c.62.17.67.86,1.1,1.2A6,6,0,0,1,1167.28,914.81Z" transform="translate(-1017 -646.84)"/><path class="cls-1" d="M1073.13,775.11c.62.2,1.22.37,1.2-.63l2.89,3.72c-.36.62-1,0-1.39.26A8.41,8.41,0,0,1,1073.13,775.11Z" transform="translate(-1017 -646.84)"/><path class="cls-1" d="M1113,922.41l-1,.93c-2.47-.51-2.5-2.24-2.09-4.19l1.05,0C1110.44,921,1111.49,921.86,1113,922.41Z" transform="translate(-1017 -646.84)"/><path class="cls-1" d="M1131.76,921.46c2.32-1.42,4.85-.51,7.29-.62-1.51.79-3.41-.29-4.81,1C1133.26,922.73,1132.41,922.73,1131.76,921.46Z" transform="translate(-1017 -646.84)"/><path class="cls-1" d="M1091.61,853.36l-.16.89c-.92-1.85-2.52-3.69,0-5.57a1.14,1.14,0,0,1,1.1-.13c.56.68.08,1.18-.29,1.71l-.67.7A1.77,1.77,0,0,1,1091.61,853.36Z" transform="translate(-1017 -646.84)"/><path class="cls-1" d="M1039.84,921.48l-2.54,0c-.89-.32-2,.21-2.76-.58h10.73C1043.54,921.84,1041.62,921,1039.84,921.48Z" transform="translate(-1017 -646.84)"/><path class="cls-1" d="M1124.73,894a.28.28,0,0,1,.09.36c-1.37,1.16-3.3.75-4.73,1.74-.61.27-1.15.39-1.17-.56C1120.59,894,1122.73,894.23,1124.73,894Z" transform="translate(-1017 -646.84)"/><path class="cls-1" d="M1115.18,901.4c.61.41.45,1.06.51,1.65l-3.19,3.24a.9.9,0,0,1-.75-.69C1112.32,903.73,1115,903.6,1115.18,901.4Z" transform="translate(-1017 -646.84)"/><path class="cls-1" d="M1052.86,914.28l1.43-.07c.46-.22.69,0,.82.43a15.85,15.85,0,0,0-.75,2.86,1.44,1.44,0,0,1-1,1.08c-1.16-1,.28-2.77-1.11-3.69C1052.12,914.36,1052.26,914.09,1052.86,914.28Z" transform="translate(-1017 -646.84)"/><path class="cls-1" d="M1118.92,895.51c.25.47.71.52,1.17.56l-3.23,2.82-.81-.81A4.92,4.92,0,0,1,1118.92,895.51Z" transform="translate(-1017 -646.84)"/><path class="cls-1" d="M1168.85,911.07c-.81,0-.91-.64-1.1-1.2a32.75,32.75,0,0,0-.17-6.26c1.31.65.63,1.86.79,2.82s-.35,2.14.49,3A1.71,1.71,0,0,1,1168.85,911.07Z" transform="translate(-1017 -646.84)"/><path class="cls-1" d="M1020.53,917.68l-.45.79a3.54,3.54,0,0,1-2.2-3.66Z" transform="translate(-1017 -646.84)"/><path class="cls-1" d="M1081.31,831.43a18.68,18.68,0,0,1,9.1,0Z" transform="translate(-1017 -646.84)"/><path class="cls-1" d="M1144.61,757.84a19.94,19.94,0,0,1,0-9.09A35.46,35.46,0,0,1,1144.61,757.84Z" transform="translate(-1017 -646.84)"/><path class="cls-1" d="M1045.31,876.15l-4.83,2.31c-.16-.14-.22-.28-.17-.42s.11-.22.16-.22a8.69,8.69,0,0,1,3.71-2.26A1.29,1.29,0,0,1,1045.31,876.15Z" transform="translate(-1017 -646.84)"/><path class="cls-1" d="M1154.61,781.07l-.84-.13c.34-1.68,1.92-2.47,2.74-3.8l.09,1.3C1156.24,779.55,1155.94,780.7,1154.61,781.07Z" transform="translate(-1017 -646.84)"/><path class="cls-1" d="M1043.8,905.11l2,2.36c.41.67.35,1.06-.56.95a5.27,5.27,0,0,1-2.17-2.58C1042.92,905.2,1043.18,905,1043.8,905.11Z" transform="translate(-1017 -646.84)"/><path class="cls-1" d="M1043.8,905.11l-.74.73a7.05,7.05,0,0,1-2.08-2.3l.61-1.22A7.26,7.26,0,0,1,1043.8,905.11Z" transform="translate(-1017 -646.84)"/><path class="cls-1" d="M1080.6,782.66a1.61,1.61,0,0,1-.38.08l-2.3-2.23a1,1,0,0,1,.74-.73,9.56,9.56,0,0,1,2.6,2.35C1081.26,782.58,1081.21,783,1080.6,782.66Z" transform="translate(-1017 -646.84)"/><path class="cls-1" d="M1111.75,905.6l.75.69-1.61,2.71c-.06-.47-.11-1-.64-1.17A4,4,0,0,1,1111.75,905.6Z" transform="translate(-1017 -646.84)"/><path class="cls-1" d="M1079.74,921.87c.76,2.3.76,2.3,2.69,2.12a4.15,4.15,0,0,1-2.72,1.18,1.53,1.53,0,0,1-.48-.59C1079.07,923.61,1078.41,922.55,1079.74,921.87Z" transform="translate(-1017 -646.84)"/><path class="cls-1" d="M1140.4,899.76l0-3.17c1.39.44,1.23,1.54,1.1,2.62a.81.81,0,0,1,0,1.13l0,0C1140.8,900.7,1140.34,900.72,1140.4,899.76Z" transform="translate(-1017 -646.84)"/><path class="cls-1" d="M1083.34,664.83a11.94,11.94,0,0,1,0-6.93A22.68,22.68,0,0,1,1083.34,664.83Z" transform="translate(-1017 -646.84)"/><path class="cls-1" d="M1037.34,695a7.07,7.07,0,0,1,0,5.33A8.74,8.74,0,0,1,1037.34,695Z" transform="translate(-1017 -646.84)"/><path class="cls-1" d="M1030.87,733.15a11.76,11.76,0,0,1,0,7A21.9,21.9,0,0,1,1030.87,733.15Z" transform="translate(-1017 -646.84)"/><path class="cls-1" d="M1121.5,702.47a10.18,10.18,0,0,1,0-6.41A16.09,16.09,0,0,1,1121.5,702.47Z" transform="translate(-1017 -646.84)"/><path class="cls-1" d="M1078.66,779.78l-.74.73a5.86,5.86,0,0,1-2.09-2c.35-.7.92-.21,1.39-.26Z" transform="translate(-1017 -646.84)"/><path class="cls-1" d="M1045.31,876.15c-.43-.08-.88-.13-1.13-.59l2.18-.91,1.05.88Z" transform="translate(-1017 -646.84)"/><path class="cls-1" d="M1058.7,922.46l-.51.92-2.28-2,.65-.59C1057.79,920.68,1058.76,920.92,1058.7,922.46Z" transform="translate(-1017 -646.84)"/><path class="cls-1" d="M1146.89,897.69c.38.73,1.14.32,1.69.55-.73.23-1.45.5-2.19.68-.58.15-1.4.84-1.69-.16-.22-.73,1-.51,1.22-1.06Z" transform="translate(-1017 -646.84)"/><path class="cls-1" d="M1052.86,914.28l-.62.61a6.41,6.41,0,0,1-2.63-2.21.66.66,0,0,1,.53-.57Z" transform="translate(-1017 -646.84)"/><path class="cls-1" d="M1067.43,823.47c.4,1.25,1.2,2.51,0,3.73C1066.63,826,1067.06,824.71,1067.43,823.47Z" transform="translate(-1017 -646.84)"/><path class="cls-1" d="M1073.27,895.49c.5-.28.51-.78.58-1.26l.51.65a7.15,7.15,0,0,1,.89,2.25l.07.54c-.14.24-.19.57-.55.63Z" transform="translate(-1017 -646.84)"/><path class="cls-1" d="M1084,921.3h.94c-.26,1.09-.56,2.14-2,2.06C1082.89,922.45,1083.59,922,1084,921.3Z" transform="translate(-1017 -646.84)"/><path class="cls-1" d="M1167.22,833.52l.58,1.21a2.58,2.58,0,0,1-1,2.17,1.82,1.82,0,0,1-.89-1.26C1165.87,834.65,1166.05,833.77,1167.22,833.52Z" transform="translate(-1017 -646.84)"/><path class="cls-1" d="M1141.5,900.34l0-1.13c.89.47,1.29-.85,2.12-.58.56.2,1.07.6.34,1A10.52,10.52,0,0,1,1141.5,900.34Z" transform="translate(-1017 -646.84)"/><path class="cls-1" d="M1139.89,790.13h.41l2.27,1.15c.16.1.21.21.16.31s-.11.15-.16.15C1141.44,791.58,1139.78,792.33,1139.89,790.13Z" transform="translate(-1017 -646.84)"/><path class="cls-1" d="M1069,761.47l-1.06,1.74-.16-1.5,1-2.74Z" transform="translate(-1017 -646.84)"/><path class="cls-1" d="M1168.93,909v-5A4.87,4.87,0,0,1,1168.93,909Z" transform="translate(-1017 -646.84)"/><path class="cls-1" d="M1033.92,891.31l.57-1.18.57,1.62c0,.58-.28,1-.91,1Z" transform="translate(-1017 -646.84)"/><path class="cls-1" d="M1146.33,792.87c-.56.59-1.16,1-2,.51s-.13-.86-.06-1.3Z" transform="translate(-1017 -646.84)"/><path class="cls-1" d="M1137.83,922.27l-1.64.55c-.91.17-1.71.11-2-1A7,7,0,0,1,1137.83,922.27Z" transform="translate(-1017 -646.84)"/><path class="cls-1" d="M1017.39,914.37c-.88-1.21,0-2,.2-2.76A2.81,2.81,0,0,1,1017.39,914.37Z" transform="translate(-1017 -646.84)"/><path class="cls-1" d="M1163.53,922.34v-1.5l1-.68a1.41,1.41,0,0,1,1,.33c.07.09.13.19.19.28C1165.4,921.87,1164.36,922,1163.53,922.34Z" transform="translate(-1017 -646.84)"/><path class="cls-1" d="M1120.31,920.87c1.15-.48,1.74.39,2.44,1-.68.69-1.46.47-2.24.25Z" transform="translate(-1017 -646.84)"/><path class="cls-1" d="M1092.64,848.74l-1.24-.06,1.13-1.59,1.18.57C1093.82,848.49,1093.45,848.83,1092.64,848.74Z" transform="translate(-1017 -646.84)"/><path class="cls-1" d="M1067.3,755.71a4.26,4.26,0,0,1,.13,4.27C1067.39,758.56,1067.34,757.13,1067.3,755.71Z" transform="translate(-1017 -646.84)"/><path class="cls-1" d="M1053.35,918.58l.53-1.06a1.76,1.76,0,0,1,1.06-.46,1.2,1.2,0,0,1,1.22.74c-.17.87-1,.9-1.59,1.3l-.7,0Z" transform="translate(-1017 -646.84)"/><path class="cls-1" d="M1165,837.89a2,2,0,0,1,1.3-2.07l.52,1.08" transform="translate(-1017 -646.84)"/><path class="cls-1" d="M1171.67,819.87v-4.11A6.56,6.56,0,0,1,1171.67,819.87Z" transform="translate(-1017 -646.84)"/><path class="cls-1" d="M1135.53,858.91a3.48,3.48,0,0,1,2.19,1.06l-1.56.14c-.27-.78-1.25-.48-1.64-1.08A.65.65,0,0,1,1135.53,858.91Z" transform="translate(-1017 -646.84)"/><path class="cls-1" d="M1093.5,831.56c1.19,1.15.85,2.42.26,3.7C1093.67,834,1093.59,832.79,1093.5,831.56Z" transform="translate(-1017 -646.84)"/><path class="cls-1" d="M1067.43,751.43a3.35,3.35,0,0,1-.12,3.75A11,11,0,0,1,1067.43,751.43Z" transform="translate(-1017 -646.84)"/><path class="cls-1" d="M1045.23,908.42a1,1,0,0,0,.56-.95c.86.47,1.44,1.09,1.13,2.17A2.11,2.11,0,0,1,1045.23,908.42Z" transform="translate(-1017 -646.84)"/><path class="cls-1" d="M1037.82,881.08l-.08-.68c-.17-.91.48-1.17,1.12-1.45a.83.83,0,0,1,.56.44Z" transform="translate(-1017 -646.84)"/><path class="cls-1" d="M1148,760.53c-1.09-.11-2.35.86-3.27-.48C1145.82,760.2,1147.05,759.42,1148,760.53Z" transform="translate(-1017 -646.84)"/><path class="cls-1" d="M1050.14,912.11l-.53.57a1.43,1.43,0,0,1-1.06-1.58A1.48,1.48,0,0,1,1050.14,912.11Z" transform="translate(-1017 -646.84)"/><path class="cls-1" d="M1107.63,897.12c.14-1.26,1.13-1.44,2.1-1.64C1109.13,896.15,1108.71,897.05,1107.63,897.12Z" transform="translate(-1017 -646.84)"/><path class="cls-1" d="M1070.77,928.32h3.84A4.75,4.75,0,0,1,1070.77,928.32Z" transform="translate(-1017 -646.84)"/><path class="cls-1" d="M1142.57,791.73v-.46l1.07.52c-.37.61-.85,1.29-1.58.85C1141.66,792.4,1142.52,792.13,1142.57,791.73Z" transform="translate(-1017 -646.84)"/><path class="cls-1" d="M1085.62,919.73c0-1.13,0-2.26.05-3.39A3.42,3.42,0,0,1,1085.62,919.73Z" transform="translate(-1017 -646.84)"/><path class="cls-1" d="M1075.94,830.86c.89-.38,1.79-1,2.56.18Z" transform="translate(-1017 -646.84)"/><path class="cls-1" d="M1099.44,680.38a1.45,1.45,0,0,1,.47.16c.24.17.27.42-.08.41-.81,0-1.69.3-2.39-.4Z" transform="translate(-1017 -646.84)"/><path class="cls-1" d="M1167.21,765.37a2.67,2.67,0,0,1,0-3.18A4.52,4.52,0,0,1,1167.21,765.37Z" transform="translate(-1017 -646.84)"/><path class="cls-1" d="M1170.49,827.75a2.27,2.27,0,0,1-1.13-1.23,1,1,0,0,1,.19-1.44l1,2.23A.34.34,0,0,1,1170.49,827.75Z" transform="translate(-1017 -646.84)"/><path class="cls-1" d="M1039.42,879.39l-.56-.44c.45-.5.81-1.13,1.61-1.13v.64Z" transform="translate(-1017 -646.84)"/><path class="cls-1" d="M1165.71,918.06a2,2,0,0,1,0,2.71.37.37,0,0,1-.26-.1c-.48-.84,0-1.67,0-2.51Z" transform="translate(-1017 -646.84)"/><path class="cls-1" d="M1054.76,709l1.37-.17,0,0-.12,1.84Z" transform="translate(-1017 -646.84)"/><path class="cls-1" d="M1045.26,922.26a3,3,0,0,1,0-.42l3,.08A5.68,5.68,0,0,1,1045.26,922.26Z" transform="translate(-1017 -646.84)"/><path class="cls-1" d="M1075.25,897.13a3.92,3.92,0,0,1-.89-2.25l1,.65v.67Z" transform="translate(-1017 -646.84)"/><path class="cls-1" d="M1105.46,680.55c-.71.49-1.42.91-2-.19Z" transform="translate(-1017 -646.84)"/><path class="cls-1" d="M1079.61,924.42l.1.75c-.13.66-.36,1.25-1.12,1.41V926C1078.44,925.17,1078.63,924.54,1079.61,924.42Z" transform="translate(-1017 -646.84)"/><path class="cls-1" d="M1084,685.28a8.21,8.21,0,0,1-5.91,3.22.36.36,0,0,1-.24-.48l5.63-3.76A1.1,1.1,0,0,0,1084,685.28Z" transform="translate(-1017 -646.84)"/><path class="cls-1" d="M1095.77,709.46a11.49,11.49,0,0,1-3.12,2.19c-.66.31-1.21.4-1.17-.61l3.15-2.32A1.18,1.18,0,0,0,1095.77,709.46Z" transform="translate(-1017 -646.84)"/><path class="cls-1" d="M1083.44,721.33c.29,1.38-1.41,2.11-1.16,3.48-.32.45-.73.33-1.15.17C1081.38,723.44,1081.18,721.6,1083.44,721.33Z" transform="translate(-1017 -646.84)"/><path class="cls-1" d="M1088.25,738.61h-4.64A3.87,3.87,0,0,1,1088.25,738.61Z" transform="translate(-1017 -646.84)"/><path class="cls-1" d="M1074.8,667.67l-3.68,0C1072.34,666.92,1073.57,666.13,1074.8,667.67Z" transform="translate(-1017 -646.84)"/><path class="cls-1" d="M1073.15,729.38v3.2A2.69,2.69,0,0,1,1073.15,729.38Z" transform="translate(-1017 -646.84)"/><path class="cls-1" d="M1107,709.36V708c1,.53.68,1.28.35,2Z" transform="translate(-1017 -646.84)"/><path class="cls-1" d="M1069,752l-.16,2.07C1068.32,753.35,1068,752.62,1069,752Z" transform="translate(-1017 -646.84)"/><path class="cls-1" d="M1101.08,748.74c.17.53.91,1,.34,1.59s-.65-.15-.77-.55Z" transform="translate(-1017 -646.84)"/><path class="cls-1" d="M1098.38,738l.18,2C1097.51,739.43,1097.89,738.71,1098.38,738Z" transform="translate(-1017 -646.84)"/><path class="cls-1" d="M1086.79,767a3.59,3.59,0,0,1,.37-2.25c.63-.64.28-1.35.15-2,.46-2.35.91-4.71,1.37-7.06A47.64,47.64,0,0,0,1107,780.91a51.4,51.4,0,0,0,15.24,7c-.19.93-1.09.71-1.67,1-2.35.07-3.65,2.45-5.92,2.71-1.33.38-1.45-1.35-2.52-1.44-1.22-1.18-1.68-2.94-3.1-4s-2.84-2.25-4.85-1.58a2.35,2.35,0,0,1-1.08.25c-1.44-1.07-2.06-2.79-3.19-4.12-1.64-1.93-4.06-2.69-5.82-4.36a5.74,5.74,0,0,0-4.3.37c-.62,2.2,1,3.82,1.43,5.77-.09.74-.37,1.25-1.25,1.09-2.3-3.42-2.94-7.31-3.19-11.3A17.08,17.08,0,0,0,1086.79,767Z" transform="translate(-1017 -646.84)"/><path class="cls-1" d="M1126,752a27.11,27.11,0,0,1,1.1-6.3c.57-2,2.26-2.22,3.84-2.28s2,1.47,2.23,2.62a29.42,29.42,0,0,1-.78,15.57,2.93,2.93,0,0,1-2.89,2.36c-1.62,0-2.4-1.12-2.8-2.44a8.81,8.81,0,0,1-.71-4.18A14.58,14.58,0,0,0,1126,752Z" transform="translate(-1017 -646.84)"/><path class="cls-1" d="M1112.44,790.19c.14-.24.33-.85.37-.65.23,1.09,1.36,1.32,1.81,2.13-7.35,3.19-14.18,2.29-20.5-2.6a1.21,1.21,0,0,1,.81-.87,1.87,1.87,0,0,1,1.21.12C1101.33,791.11,1106.61,793,1112.44,790.19Z" transform="translate(-1017 -646.84)"/><path class="cls-1" d="M1110.31,796.63c-2.19,1.55-4.67-.2-6.93.65.22.76,1.13.05,1.57.75h-4.26c.07-.61.91-.19,1-.56.08-.61-.6-.38-.91-.56-.79-.47-2-.32-2.18-1.63,3.47.82,6.94,1.61,10.55.92C1109.47,796.13,1109.91,796.48,1110.31,796.63Z" transform="translate(-1017 -646.84)"/><path class="cls-1" d="M1094.73,788.5l-.61.57a12.58,12.58,0,0,1-4.18-5.41l1-.91c1.94,0,1.5,2,2.45,2.8C1093.75,786.58,1095.08,787.17,1094.73,788.5Z" transform="translate(-1017 -646.84)"/><path class="cls-1" d="M1120.54,789l1.67-1,1,.13c0,1.34.83,2.77-.41,4-.68-2.33-2,1.05-2.74-.29C1119.82,790.76,1124.1,790.52,1120.54,789Z" transform="translate(-1017 -646.84)"/><path class="cls-1" d="M1089.33,748.07l-4.13-.45a4.58,4.58,0,0,1,4.81,0C1089.91,748,1089.6,748,1089.33,748.07Z" transform="translate(-1017 -646.84)"/><path class="cls-1" d="M1084,781l-.61.7-1-3.28A2.61,2.61,0,0,1,1084,781Z" transform="translate(-1017 -646.84)"/><path class="cls-1" d="M1126,752a6.64,6.64,0,0,1,0,5.35C1126,755.53,1126,753.74,1126,752Z" transform="translate(-1017 -646.84)"/><path class="cls-1" d="M1086.79,767a7,7,0,0,1,0,5.34C1086.77,770.58,1086.78,768.8,1086.79,767Z" transform="translate(-1017 -646.84)"/><path class="cls-1" d="M1114.51,794.91c0,1.4-1.27,1.17-2,1.46-.32.13-.06-.49,0-.78Z" transform="translate(-1017 -646.84)"/><path class="cls-1" d="M1089.33,748.07c.13-.3.31-.53.68-.45a2.39,2.39,0,0,1,2.09,2.16Z" transform="translate(-1017 -646.84)"/><path class="cls-1" d="M1152.8,773.91a4.41,4.41,0,0,1,4.27,0A8.46,8.46,0,0,1,1152.8,773.91Z" transform="translate(-1017 -646.84)"/><path class="cls-1" d="M1096.35,794.42c-.36.75-.81,1.16-1.52.35-.57-.65-.19-.85.46-.89A1.16,1.16,0,0,1,1096.35,794.42Z" transform="translate(-1017 -646.84)"/><path class="cls-1" d="M1118.38,792.9c0,1.18-.23,2.06-1.61,1Z" transform="translate(-1017 -646.84)"/><path class="cls-1" d="M1139.43,755.19a3.72,3.72,0,0,1,0,3.72C1139.46,757.67,1139.44,756.43,1139.43,755.19Z" transform="translate(-1017 -646.84)"/><path class="cls-1" d="M1080.6,782.66l.66-.53c.65.21,1.66.59,1.1,1.27C1081.68,784.23,1081.12,783.13,1080.6,782.66Z" transform="translate(-1017 -646.84)"/><path class="cls-1" d="M1082.79,777.27c-1-.42-1-1-.74-1.78A1.67,1.67,0,0,1,1082.79,777.27Z" transform="translate(-1017 -646.84)"/><path class="cls-1" d="M1137,762.59l.73.57c-.63.43-1.23,1-2.08.45A1.73,1.73,0,0,1,1137,762.59Z" transform="translate(-1017 -646.84)"/><path class="cls-1" d="M1087.31,762.72c.5.73.88,1.44-.15,2Z" transform="translate(-1017 -646.84)"/><path class="cls-1" d="M1124.84,920.33c-.55-.13-1.19,0-1.61-.51h14c-3.1,1-6.29.22-9.43.45C1126.79,920.34,1125.81,920.31,1124.84,920.33Z" transform="translate(-1017 -646.84)"/><path class="cls-1" d="M1123.7,898.07l.06,1.18c-1.16.24-2-.32-3.44-1.41C1121.94,898,1122.83,898.53,1123.7,898.07Z" transform="translate(-1017 -646.84)"/><path class="cls-1" d="M1137.1,903.72c.57-1,1-1.48,1.73-1.65C1139.46,902.52,1139.39,902.59,1137.1,903.72Z" transform="translate(-1017 -646.84)"/><path class="cls-1" d="M1140.4,899.76l1,.55c-.34.48-.74,1.29-1.31,1S1139.9,900.21,1140.4,899.76Z" transform="translate(-1017 -646.84)"/><path class="cls-1" d="M1155.48,897c.91-.78,2-.31,3-.41A5.77,5.77,0,0,1,1155.48,897Z" transform="translate(-1017 -646.84)"/><path class="cls-1" d="M1053.27,884.93l-.45-1.86c2.15.93,2.93,2.94,3.85,4.85a1.45,1.45,0,0,1-.63,1.1C1055.12,887.65,1054.19,886.29,1053.27,884.93Z" transform="translate(-1017 -646.84)"/><path class="cls-1" d="M1076.49,917.56a9,9,0,0,1-4.36-4.89A8.57,8.57,0,0,1,1076.49,917.56Z" transform="translate(-1017 -646.84)"/><path class="cls-1" d="M1070.48,911.3c-.73-.47-1,.32-1.54.53a1.41,1.41,0,0,1-1.58-.76c-.06-.7.41-.93,1-1.09.37-.26.68-.66,1.2-.64l1.08,1.11A.6.6,0,0,1,1070.48,911.3Z" transform="translate(-1017 -646.84)"/><path class="cls-1" d="M1056,889a1.1,1.1,0,0,1,.63-1.1l1.41,2.76c-.19.33,0,.8-.43,1Z" transform="translate(-1017 -646.84)"/><path class="cls-1" d="M1064.58,902.9c-1.56-.46-2-1.68-2.1-3.12C1063.9,900.34,1064.08,901.73,1064.58,902.9Z" transform="translate(-1017 -646.84)"/><path class="cls-1" d="M1078.62,920.53a3.42,3.42,0,0,1-2.18-3C1077.82,918,1078.78,918.87,1078.62,920.53Z" transform="translate(-1017 -646.84)"/><path class="cls-1" d="M1057.65,891.72l.43-1,1.17,2.13c.34.58.47,1.07-.49,1.05Z" transform="translate(-1017 -646.84)"/><path class="cls-1" d="M1066.26,906.2a4.62,4.62,0,0,1-1.63-2.65c1.31.13,1.37,1.48,2.09,2.18A.72.72,0,0,1,1066.26,906.2Z" transform="translate(-1017 -646.84)"/><path class="cls-1" d="M1069.52,909.34c-.22.55-.69.63-1.2.64l-.48-2.43C1068.53,908,1069.34,908.38,1069.52,909.34Z" transform="translate(-1017 -646.84)"/><path class="cls-1" d="M1070.48,911.3l.12-.85" transform="translate(-1017 -646.84)"/><path class="cls-1" d="M1084.59,914.84a4,4,0,0,1,.05,4.32Z" transform="translate(-1017 -646.84)"/><path class="cls-1" d="M1062.46,899.2c-1.36.31-1.23-.86-1.55-1.57a.83.83,0,0,1,.49-.5A2.94,2.94,0,0,1,1062.46,899.2Z" transform="translate(-1017 -646.84)"/><path class="cls-1" d="M1058.76,893.86l.49-1.05c.77.51.54,1.52,1.07,2.15a.73.73,0,0,1-.59.64C1059,895.27,1059,894.49,1058.76,893.86Z" transform="translate(-1017 -646.84)"/><path class="cls-1" d="M1061.4,897.13l-.49.5a1.2,1.2,0,0,1-.56-1.12c-.22-.49,0-.55.44-.45S1061.31,896.71,1061.4,897.13Z" transform="translate(-1017 -646.84)"/><path class="cls-1" d="M1085.12,913.74l-.68,0a3.08,3.08,0,0,1-.91-2.38Z" transform="translate(-1017 -646.84)"/><path class="cls-1" d="M1077.39,902.62c-.86-.31-1.11-1-1.38-1.82C1077.42,901,1076.87,902.12,1077.39,902.62Z" transform="translate(-1017 -646.84)"/><path class="cls-1" d="M1066.26,906.2l.46-.47,1.16,1.65C1066.78,907.76,1066.59,906.88,1066.26,906.2Z" transform="translate(-1017 -646.84)"/><path class="cls-1" d="M1074.77,898.3l.55-.63a2.86,2.86,0,0,1,.56,2.09A1.57,1.57,0,0,1,1074.77,898.3Z" transform="translate(-1017 -646.84)"/><path class="cls-1" d="M1060.79,896.06l-.44.45c-.55-.07-.45-.58-.62-.91l.59-.64A1.09,1.09,0,0,1,1060.79,896.06Z" transform="translate(-1017 -646.84)"/><path class="cls-1" d="M1122.38,873a4.35,4.35,0,0,1-3.65,0Z" transform="translate(-1017 -646.84)"/><path class="cls-1" d="M1052.3,888.46c-2.17,0-2.19-2.54-3.82-3.17,0-.33.35-.38.56-.54,1.32,1,3,1.79,3.21,3.76Z" transform="translate(-1017 -646.84)"/><path class="cls-1" d="M1040.33,884.1c1.22-1,2.62,0,3.9-.35.28.37,1.24-.06,1,.88l-3.77.08C1041.2,884.33,1040.55,884.64,1040.33,884.1Z" transform="translate(-1017 -646.84)"/><path class="cls-1" d="M1058.2,913.88a8.12,8.12,0,0,1-3.27.91l-.64-.58a9.46,9.46,0,0,1,3.91-.92C1058.49,913.49,1058.49,913.68,1058.2,913.88Z" transform="translate(-1017 -646.84)"/><path class="cls-1" d="M1057.67,898.11a6,6,0,0,1-1.82-3.47,4.69,4.69,0,0,1,2.27,3A.7.7,0,0,1,1057.67,898.11Z" transform="translate(-1017 -646.84)"/><path class="cls-1" d="M1053.55,891.16c-.75-.74-1.55-1.47-1.25-2.7l0,0a2.31,2.31,0,0,1,1.62,2.16C1054,891,1053.9,891.16,1053.55,891.16Z" transform="translate(-1017 -646.84)"/><path class="cls-1" d="M1059.18,900.44c1.63,0,1.58,1.5,2.2,2.39-1.26-.37-1.68-1.42-2.14-2.44Z" transform="translate(-1017 -646.84)"/><path class="cls-1" d="M1057.67,898.11l.45-.44c.69.79,1.58,1.51,1.06,2.77l.06-.05A4.6,4.6,0,0,1,1057.67,898.11Z" transform="translate(-1017 -646.84)"/><path class="cls-1" d="M1054.89,892.28a2.52,2.52,0,0,1,1.2,2.17c-1.34-.2-1.54-1-1.62-1.85C1054.47,892.31,1054.62,892.22,1054.89,892.28Z" transform="translate(-1017 -646.84)"/><path class="cls-1" d="M1040.33,884.1c.4.19,1,0,1.17.61l-3.2.52c-.32-.16-.34-.36-.07-.59A3.39,3.39,0,0,1,1040.33,884.1Z" transform="translate(-1017 -646.84)"/><path class="cls-1" d="M1038.23,884.64l.07.59-2.71,1,0-.62A3.57,3.57,0,0,1,1038.23,884.64Z" transform="translate(-1017 -646.84)"/><path class="cls-1" d="M1049,884.75l-.56.54-2.62-.65c0-1,.71-.58,1.21-.56A3.05,3.05,0,0,1,1049,884.75Z" transform="translate(-1017 -646.84)"/><path class="cls-1" d="M1062.42,912.19c-.27,1.2-1.24,1-2.09,1-.18-.12-.24-.23-.18-.34s.13-.16.19-.16C1060.92,912.11,1061.72,912.32,1062.42,912.19Z" transform="translate(-1017 -646.84)"/><path class="cls-1" d="M1060.34,912.72c0,.17,0,.33,0,.5a3.39,3.39,0,0,1-2.13.66v-.59A3.67,3.67,0,0,1,1060.34,912.72Z" transform="translate(-1017 -646.84)"/><path class="cls-1" d="M1054.89,892.28c-.25,0-.46,0-.42.32a1.59,1.59,0,0,1-.92-1.44l.32-.49C1054.63,891,1054.78,891.6,1054.89,892.28Z" transform="translate(-1017 -646.84)"/><path class="cls-1" d="M1047.07,884.08l-1.21.56h-.59l-1-.88A3.85,3.85,0,0,1,1047.07,884.08Z" transform="translate(-1017 -646.84)"/><path class="cls-1" d="M1085.62,821.19l6.41.2C1089.87,822,1087.73,822.32,1085.62,821.19Z" transform="translate(-1017 -646.84)"/><path class="cls-1" d="M1095.35,832.21V834c-.14.25-.47.74-.48.62a13.05,13.05,0,0,1,0-3.06C1094.89,831.47,1095.22,832,1095.35,832.21Z" transform="translate(-1017 -646.84)"/><path class="cls-1" d="M1095.93,827.25l-.26,2.63C1095.14,828.94,1094.88,828,1095.93,827.25Z" transform="translate(-1017 -646.84)"/><path class="cls-1" d="M1082,820.7l2,.19C1083.24,821.35,1082.52,821.78,1082,820.7Z" transform="translate(-1017 -646.84)"/><path class="cls-1" d="M1101.81,811.65c.66-.92.1-1.55-.41-2.31-1.75-2.6-3.75-5.06-5.05-8,0-.78,1.7-.82.91-2.07-.17-.26.3-1.15,1-.92,3.17,1.09,6.25.38,9.44.23a43.27,43.27,0,0,1,7.73.36c2.06.28,4.09.09,6.12.28s2.84-.7,2.8-2.79c-.12-5.91,0-5.8,6-5.88,2.29,0,2.62.89,2.6,2.84,0,6.49-.83,5.79,5.59,5.82,3.27,0,3.46.27,3.63,3.66,0,.8-.09,1.57-.08,2.36a39.32,39.32,0,0,1-22.1,11.09c-.67-.08-1.38-.59-2,.18-3.57,1-7.06.28-10.54-.5-1.52-.34-2.16-1.77-3.14-2.76-.57-.57-.8-1.76-2-1A.64.64,0,0,1,1101.81,811.65Z" transform="translate(-1017 -646.84)"/><path class="cls-1" d="M1094.12,797.14c-1.36-.34-1.24,1.21-2,1.59-1.08-.12-1.93-.61-2-1.76,0-.37.65-.76,1-1.15C1091.77,797,1093.92,794.85,1094.12,797.14Z" transform="translate(-1017 -646.84)"/><path class="cls-1" d="M1128.06,789.58a6.38,6.38,0,0,1,5.37,0Z" transform="translate(-1017 -646.84)"/><path class="cls-1" d="M1147.52,796.25l-.17.86c-.51-.1-1.1-.21-.73-.92C1146.86,795.7,1147.25,795.73,1147.52,796.25Z" transform="translate(-1017 -646.84)"/><path class="cls-1" d="M1146,800.4c-.1.42-.17.85-.66,1-.32-.06-.83-.06-.7-.5C1144.8,800.32,1145.43,800.38,1146,800.4Z" transform="translate(-1017 -646.84)"/><path class="cls-1" d="M1121.29,793.45c-.19.22-.34.58-.6.69s-.42-.19-.28-.43a5.1,5.1,0,0,1,.62-.7Z" transform="translate(-1017 -646.84)"/><path class="cls-1" d="M1126,863.85l-1,2.65a.42.42,0,0,1-.68,0c-.77-1.6.37-2.88.7-4.3A2,2,0,0,1,1126,863.85Z" transform="translate(-1017 -646.84)"/><path class="cls-1" d="M1126.45,857.32a3.4,3.4,0,0,1,.72-2c.68.75.25,1.39-.09,2Z" transform="translate(-1017 -646.84)"/><path class="cls-1" d="M1129.69,859.6l3.19-.2C1131.88,860.4,1130.8,860.16,1129.69,859.6Z" transform="translate(-1017 -646.84)"/><path class="cls-1" d="M1165.49,918.16c0,.84,0,1.68,0,2.51a.79.79,0,0,1-.88-.51l.51-1.44Z" transform="translate(-1017 -646.84)"/><path class="cls-1" d="M1164.52,840.06c.14-.72-.19-1.6.67-2.09l.53.68-.08,1.49Z" transform="translate(-1017 -646.84)"/><path class="cls-1" d="M1058.17,917.51,1056,918l-1.18-.52a3,3,0,0,1,2-.55C1057.39,916.86,1058.13,916.38,1058.17,917.51Z" transform="translate(-1017 -646.84)"/><path class="cls-1" d="M1078.6,696l3.25,3.16c.12.58-.09.81-.68.63a7.81,7.81,0,0,1-3.09-2.75C1077.78,696.5,1078.13,696.24,1078.6,696Z" transform="translate(-1017 -646.84)"/><path class="cls-1" d="M1085.25,700.81c1.56.34,3.11-.77,4.68,0-1.83,1.71-3.85,1.48-5.94.59C1084,700.3,1084.69,700.68,1085.25,700.81Z" transform="translate(-1017 -646.84)"/><path class="cls-1" d="M1091.48,711a1.23,1.23,0,0,0,1.17.61,8,8,0,0,1-2.68,2.7c-.66.3-1-.09-1.23-.6Z" transform="translate(-1017 -646.84)"/><path class="cls-1" d="M1088.74,713.75l1.23.6-2.62,2.7c-.61.21-.77-.08-.7-.63C1087.29,715.48,1087.68,714.36,1088.74,713.75Z" transform="translate(-1017 -646.84)"/><path class="cls-1" d="M1085.25,700.81c-.47.07-1,.09-1.26.56-.93-.53-2.46,0-2.82-1.54l.68-.63Z" transform="translate(-1017 -646.84)"/><path class="cls-1" d="M1077.83,688l.24.48c-.91,1.27-2.74,0-3.62,1.32a.69.69,0,0,1-.2-.93C1075.31,688.07,1076.64,688.31,1077.83,688Z" transform="translate(-1017 -646.84)"/><path class="cls-1" d="M1074.85,691.75c1.6-.13,1.47,1.12,1.68,2.1-.18.23-.36.25-.55,0C1075.47,693.23,1074.19,693,1074.85,691.75Z" transform="translate(-1017 -646.84)"/><path class="cls-1" d="M1086.07,718.44a1.66,1.66,0,0,1-1.55,1.39,1.61,1.61,0,0,1,1.1-2.21A.64.64,0,0,1,1086.07,718.44Z" transform="translate(-1017 -646.84)"/><path class="cls-1" d="M1074.25,688.89l.2.93c.57.31.32.84.36,1.29C1073.18,690.16,1073,689.6,1074.25,688.89Z" transform="translate(-1017 -646.84)"/><path class="cls-1" d="M1086.07,718.44l-.45-.82c0-.67.26-1.17,1-1.2l.7.63A2.47,2.47,0,0,1,1086.07,718.44Z" transform="translate(-1017 -646.84)"/><path class="cls-1" d="M1076,693.87l.55,0c.67,0,1,.44,1,1,.23.55-.06.64-.51.59A2.1,2.1,0,0,1,1076,693.87Z" transform="translate(-1017 -646.84)"/><path class="cls-1" d="M1077.05,695.48l.51-.59,1,1.15-.52,1C1077.39,696.76,1077.34,696.05,1077.05,695.48Z" transform="translate(-1017 -646.84)"/><path class="cls-1" d="M1094.07,776.2l-5.21.09c1.78-1.37,3.82-.39,5.73-.65,0,0,.09.18.07.19C1094.47,776,1094.27,776.08,1094.07,776.2Z" transform="translate(-1017 -646.84)"/><path class="cls-1" d="M1103.88,784.21c.25.69,1.06,1.58.15,2-.57.27-.74-.77-.72-1.4Z" transform="translate(-1017 -646.84)"/><path class="cls-1" d="M1093.11,785.9a8.78,8.78,0,0,1,2.59,2.63l-1,0C1094.37,787.52,1093.1,787.11,1093.11,785.9Z" transform="translate(-1017 -646.84)"/><path class="cls-1" d="M1075.41,921.44c-2.35-1.46-4.09-3.59-6.09-5.45a.73.73,0,0,1,.67-.56C1072.2,917.07,1074.63,918.51,1075.41,921.44Z" transform="translate(-1017 -646.84)"/><path class="cls-1" d="M1070,915.43l-.67.56a2.61,2.61,0,0,1-1.55-1.09,1,1,0,0,1,.37-.57l.33-.09A2.24,2.24,0,0,1,1070,915.43Z" transform="translate(-1017 -646.84)"/><path class="cls-1" d="M1067.33,913.78c.37-.73.55-1.64,1.63-1.69-.32.68-.91,1.3-.49,2.15l-.22.15A.76.76,0,0,1,1067.33,913.78Z" transform="translate(-1017 -646.84)"/><path class="cls-1" d="M1128.59,826c.83.12.64.68.49,1.18-1,3.15-.23,6,2.39,7.78s5.45.74,7.79-1.28c.62-.14.84.1.68.71-3,3.22-6.35,3.61-9.74,1.12C1127.35,833.37,1126.69,829.41,1128.59,826Z" transform="translate(-1017 -646.84)"/><path class="cls-1" d="M1153.84,817c2.59,3,5.33,2.11,8.12.33a4.39,4.39,0,0,1-6,2.71,4.26,4.26,0,0,1-2.78-2.32C1153,817.11,1153.33,817,1153.84,817Z" transform="translate(-1017 -646.84)"/><path class="cls-1" d="M1139.94,834.34l-.68-.71c2.45-2.39,1.64-5.25,1.14-8.06A5.64,5.64,0,0,1,1139.94,834.34Z" transform="translate(-1017 -646.84)"/><path class="cls-1" d="M1153.84,817l-.62.72c-1.87-2.45-1.82-5-.37-7.6a.64.64,0,0,1,.64.54A10.2,10.2,0,0,0,1153.84,817Z" transform="translate(-1017 -646.84)"/><path class="cls-1" d="M1162.42,811.7a7.93,7.93,0,0,0-3.29-3.74c0-.36.35-.38.58-.5a4.53,4.53,0,0,1,3.27,3.1C1162.67,810.88,1162.93,811.48,1162.42,811.7Z" transform="translate(-1017 -646.84)"/><path class="cls-1" d="M1137.75,823.46a12.05,12.05,0,0,0-5.41-.08.62.62,0,0,1-.46-.44C1133.92,822.15,1136,821.29,1137.75,823.46Z" transform="translate(-1017 -646.84)"/><path class="cls-1" d="M1162.42,811.7c.14-.41,0-1,.56-1.14,1,2.41,1.42,4.74-1.09,6.57a4.41,4.41,0,0,1,.65-2.29,3.89,3.89,0,0,0,0-2.67A.5.5,0,0,1,1162.42,811.7Z" transform="translate(-1017 -646.84)"/><path class="cls-1" d="M1124.25,866.48l.68,0c.09,1.12.55,2.41-1.17,2.76C1122.34,868.06,1124.21,867.43,1124.25,866.48Z" transform="translate(-1017 -646.84)"/><path class="cls-1" d="M1101.81,811.65l.48.61c-.23.87-.49,1.71-1.67,1.55C1100.2,812.63,1100.85,812.06,1101.81,811.65Z" transform="translate(-1017 -646.84)"/><path class="cls-1" d="M1140.45,825.63c-1.16-.29-2.06-.84-2.17-2.17C1139.69,823.5,1140.51,824.13,1140.45,825.63Z" transform="translate(-1017 -646.84)"/><path class="cls-1" d="M1130.68,824.33c-.35,1-.85,1.71-2.07,1.25.05-1.2,1-1.28,1.84-1.51l.24,0Z" transform="translate(-1017 -646.84)"/><path class="cls-1" d="M1153.49,810.67l-.64-.54c.12-.8.52-1.26,1.39-1.12A1.89,1.89,0,0,1,1153.49,810.67Z" transform="translate(-1017 -646.84)"/><path class="cls-1" d="M1159.71,807.46l-.58.5-3.66-.09C1156.79,806.79,1158.25,807.08,1159.71,807.46Z" transform="translate(-1017 -646.84)"/><path class="cls-1" d="M1130.68,824.33a.24.24,0,0,0-.23-.26c0-1,.61-1.18,1.43-1.13l.46.44C1131.82,823.76,1131.42,824.35,1130.68,824.33Z" transform="translate(-1017 -646.84)"/><path class="cls-1" d="M1149.51,853.79c.09.94-.43,1.18-1.07,1.25-.11,0-.41-.43-.36-.52A1.51,1.51,0,0,1,1149.51,853.79Z" transform="translate(-1017 -646.84)"/><path class="cls-1" d="M1118,816.55c.56-1.13,1.27-.66,2-.18Z" transform="translate(-1017 -646.84)"/><path class="cls-1" d="M1065.12,915.24c-1,1.1-2.33,1.17-3.67,1.25-.54.25-1.08.49-1.09-.48,1.59-.4,3.1-1.21,4.82-1Z" transform="translate(-1017 -646.84)"/><path class="cls-1" d="M1060.36,916l1.09.48a5.35,5.35,0,0,1-3.28,1c-.31-.51-.84-.52-1.34-.59A9.65,9.65,0,0,1,1060.36,916Z" transform="translate(-1017 -646.84)"/><path class="cls-1" d="M1065.12,915.24l.06-.2c.4-1,1.59-.58,2.15-1.26l.92.61-.48.51C1066.85,914.76,1066.09,915.82,1065.12,915.24Z" transform="translate(-1017 -646.84)"/><path class="cls-1" d="M1162.54,812.17a2,2,0,0,1,0,2.67Z" transform="translate(-1017 -646.84)"/></svg>