<?xml version="1.0" encoding="utf-8"?>
<!-- Generator: Adobe Illustrator 26.0.2, SVG Export Plug-In . SVG Version: 6.00 Build 0)  -->
<svg version="1.1" id="Layer_1" xmlns="http://www.w3.org/2000/svg" xmlns:xlink="http://www.w3.org/1999/xlink" x="0px" y="0px"
	 viewBox="0 0 143.4 114" style="enable-background:new 0 0 143.4 114;" xml:space="preserve">
<style type="text/css">
	.st0{fill:#F4D8CE;}
	.st1{fill:none;}
</style>
<g id="Group_21" transform="matrix(0.978, -0.208, 0.208, 0.978, -1067.199, -576.629)">
	<path id="Path_49595" class="st0" d="M981.5,902.4c-0.2,0.1-0.4,0.2-0.7,0.3c-0.2,0.1-0.3,0.2-0.2,0.4c0,0.1,0,0.1-0.1,0.1
		c-0.1-0.2-0.2-0.5-0.4-0.5c0-0.1,0.1-0.1,0.2-0.1c0.3,0,0.5,0,0.8-0.2C981.2,902.3,981.3,902.3,981.5,902.4
		C981.5,902.3,981.5,902.3,981.5,902.4z"/>
	<path id="Path_49597" class="st0" d="M981.3,903.1L981.3,903.1c0.4,0.1,0.7-0.1,1-0.1c0,0,0.1,0,0.1,0.1c-0.3,0.1-0.5,0.2-0.8,0.2
		C981.4,903.3,981.3,903.3,981.3,903.1z"/>
	<path id="Path_49598" class="st0" d="M976.9,902.5C976.9,902.6,976.8,902.6,976.9,902.5c-0.3,0.1-0.3-0.1-0.4-0.2v-0.2
		C976.6,902.1,976.8,902.3,976.9,902.5z"/>
	<path id="Path_49601" class="st0" d="M1007,882.7c0-0.1,0.1-0.2,0.2-0.3h0.1C1007.2,882.5,1007.2,882.7,1007,882.7
		C1007,882.8,1007,882.8,1007,882.7L1007,882.7z"/>
	<path id="Path_49626" class="st0" d="M985.6,848.3c0.4,0.2,0.8,0.2,1.2,0.1c0.2-0.1,0.4-0.2,0.6-0.4c0,0.1,0.1,0.1,0.2,0.1
		C987.1,848.7,986.2,848.8,985.6,848.3C985.5,848.3,985.5,848.3,985.6,848.3z"/>
	<path id="Path_49627" class="st0" d="M1005.9,884.8c0-0.2,0.2-0.4,0.3-0.6c0,0.1,0,0.1,0.1,0.1
		C1006.2,884.5,1006.1,884.7,1005.9,884.8C1005.9,884.9,1005.9,884.9,1005.9,884.8z"/>
	<path id="Path_49628" class="st0" d="M985.1,848C985.1,848.1,985,848.1,985.1,848c-0.2,0.1-0.3,0-0.4-0.1c0.1,0,0.1,0,0.1-0.1
		C984.9,847.8,985,847.9,985.1,848z"/>
	<g id="Group_20" transform="translate(905.923 808.174)">
		<path id="Path_49629" class="st0" d="M50.7,50.1L50.7,50.1C50.8,50.1,50.7,50.1,50.7,50.1z"/>
		<path id="Path_49635" class="st0" d="M94.4,91.9C94.4,92,94.4,92,94.4,91.9C94.4,92,94.4,92,94.4,91.9z"/>
	</g>
	<path id="Path_49645" class="st0" d="M966.4,859c0.1,0,0.2,0,0.4,0.1H966C966,858.9,966.2,859,966.4,859z"/>
	<path id="Path_49646" class="st0" d="M1005.5,848.1c-0.1,0.1-0.3,0.1-0.4,0.1c0.1-0.2,0.3-0.1,0.3-0.3
		C1005.5,847.9,1005.4,848.1,1005.5,848.1z"/>
	<path id="Path_49647" class="st0" d="M975.9,900.1c-0.1,0.1-0.2,0.2-0.3,0.3c0-0.1,0.1-0.3,0.2-0.4
		C975.7,900.1,975.8,900.1,975.9,900.1z"/>
	<path id="Path_49649" class="st0" d="M982.1,842.7L982,843C981.9,843,982,842.9,982.1,842.7L982.1,842.7z"/>
	<path id="Path_49663" class="st0" d="M1003.8,878.4c-0.1,0.3-0.2,0.7-0.1,1.1h-0.1l0,0C1003.4,879.1,1003.4,878.6,1003.8,878.4
		C1003.7,878.3,1003.7,878.3,1003.8,878.4z"/>
	<path id="Path_49664" class="st0" d="M1003.8,875L1003.8,875c0-0.2,0-0.3,0.1-0.4C1003.9,874.8,1003.8,874.9,1003.8,875z"/>
	<path id="Path_49665" class="st0" d="M975.8,902c0-0.1-0.2-0.1-0.1-0.3C975.9,901.7,975.8,901.9,975.8,902z"/>
	<path id="Path_49666" class="st0" d="M975.3,901.2v-0.3l0,0V901.2L975.3,901.2z"/>
	<path id="Path_49667" class="st0" d="M975.4,901.5C975.4,901.5,975.4,901.4,975.4,901.5C975.5,901.4,975.5,901.5,975.4,901.5
		C975.5,901.5,975.5,901.6,975.4,901.5C975.3,901.6,975.4,901.6,975.4,901.5z"/>
	<path id="Path_49668" class="st0" d="M1003.6,881.1L1003.6,881.1c0.1,0.1,0.1,0.2,0.1,0.3C1003.6,881.3,1003.5,881.2,1003.6,881.1z
		"/>
	<path id="Path_49670" class="st0" d="M974.6,876.8c0,0.1-0.1,0.2-0.1,0.2C974.5,876.9,974.4,876.8,974.6,876.8
		C974.5,876.8,974.6,876.8,974.6,876.8z"/>
	<path id="Path_49671" class="st0" d="M975.7,873.1L975.7,873.1C975.6,873,975.7,872.9,975.7,873.1
		C975.8,873.1,975.7,873.1,975.7,873.1z"/>
	<path id="Path_49672" class="st0" d="M974.6,876.1L974.6,876.1c0-0.1-0.1-0.2,0-0.2h0.1L974.6,876.1z"/>
</g>
<g>
	<path class="st1" d="M109.4,53.8c-0.3,0.6-0.6,1,0.1,1.6c0.1,0.1,0.2,0.2,0.3,0.2c0.5,0.2,1,0.1,1.3-0.4l0,0
		c1.4-1.7,1.9-3.9,1.5-6.1c0-0.2-0.1-0.5-0.2-0.7c-0.3-1.4-1.2-2.7-2.4-3.6l0,0c-0.4-0.3-1-0.1-1.3,0.3c-0.5,0.6,0,0.9,0.3,1.2
		C110.6,48.5,110.7,51.5,109.4,53.8z"/>
	<path class="st1" d="M125.5,53.2c-0.9-0.3-1.2,0.9-1.9,1.1c-0.2,0.1-0.4,0.3-0.6,0.5c-0.5,0.6-1.7,0.6-1.5,1.6
		c0.3,0.9,0.9,1.8,1.8,2.3c0.5,0.5,1.3,0.8,2,0.8c1.4,0.1,2.7-1.7,2.3-3.2l0,0C127.3,55.6,126,53.4,125.5,53.2z"/>
	<path class="st1" d="M113.2,52.8c-0.3,1-0.1,1.4,0.8,1.7c3.4,1.2,6.5,1.1,9.1-1.6c0.6-0.6,1.3-1.1,1.9-1.7c1.3-1.4,2.8-2.2,4.7-1.5
		c1.2,0.4,1.8-0.3,2.1-1.5l0,0c0.7-2.4,0.3-3.4-1.9-4.1c-0.9-0.3-1.9-0.4-2.8-0.2c-1.8,0.3-3.1,1.6-4.7,2.3
		c-0.3,0.2-0.7,0.1-0.7,0.2c0.1-0.1,0.5-0.4,0-0.9c-2.5-2-2.5-2-1.6-5.3c0.3-1.2,0.5-2.4-0.5-3.4c-1.1-1.2-2.5-2-4.1-2.4
		c-1.3,0-2.6,0.8-3.1,2c-0.4,1.3,0.8,1.6,1.3,2.2c1.1,1.2,1,2.3-0.3,3.1c-1.6,0.9-2,2.5-1,4.3C113.5,48.1,113.8,50.5,113.2,52.8z"/>
	<path class="st1" d="M86,21.7c-1,0.6-1.7,1.7-1.8,2.8c-0.1,1.1,0.9,0.8,1.3,1.2c0.8,0.8,1.4,1.8,1.8,2.8c0.3,0.7-0.4,1.2-0.6,1.7
		c-0.3,0.6,0.1,0.7,0.4,0.8c1.1,0.1,1.3,0.8,1.3,2c0,0.7-0.1,1.4-0.1,2.2c1.1,0,2-0.6,2.9-0.2c0.7,0.3,1-0.1,1.1-0.8l0,0
		c0.9-4.2-0.3-8.5-3.1-11.8C88.5,21.5,87.1,21.1,86,21.7z"/>
	<path class="st1" d="M92.5,36.8c0.1,0.4,0,0.9-0.4,1.1c-0.6,0.6-0.4,1,0.1,1.6c1.4,2,1.5,3.1,0.4,5.3c-0.2,0.3-0.3,0.6-0.6,1.1
		c1.8-0.5,3.5-1.5,4.8-2.9c1.3-1.3,1.7-3.2,1-4.9l0,0c-0.8-1.7-2.5-2.8-4.4-2.6C92.8,35.7,92.2,35.7,92.5,36.8z"/>
	<path class="st1" d="M68.7,91.1c0.1,0.3,0.1,0.6,0.2,0.9c0.2,0.6,0.2,1.6,1,1.5c0.9-0.1,1.4-0.5,1-2c-0.9-3.6-0.4-6.8,2.6-8.6
		c0.6-0.3,0.3-0.7,0.1-1.1c-0.7-1.5-2.3-1.6-3.3,0l0,0C68.6,84.6,68,87.9,68.7,91.1z"/>
	<path class="st1" d="M64,102.5c1.1,1.9,3,3.4,5.2,2.8c2.4-0.7,4.9-1.1,7.3-1.6c0.7-0.1,1.3-0.6,1.7-1.2c0-0.1,0.1-0.2,0.1-0.3
		c1.3-2.8,0.1-6.1-2.7-7.5c-3-1.4-5.5-0.7-7.5,1.9C68,96.8,67.8,97,67.6,97c-0.2-0.1-0.2-0.4-0.1-0.6c0.2-0.5,0.4-1,0.7-1.5
		c0.6-0.6,0.4-1.2,0.1-1.8c-1.3-3.4-1.6-6.7-0.1-9.9c0.4-0.6,0.2-1.4-0.4-1.7c-0.9-0.9-2.2-1.2-3.3-0.7c-0.8,0.4-1.5,0.8-2.2,1.3
		l0,0c-0.6,0.4-0.9,1-0.9,1.7c-0.2,2.8-0.2,5.7,0,8.5C61.7,95.9,62.2,99.4,64,102.5z"/>
	<path class="st1" d="M78.8,103.9c-0.3,0.3-0.6,0.4-1,0.5c-2.9,0.7-5.9,1.4-8.9,2.2c-1.5,0.4-2.8-0.3-3.9-1.4
		c-2.1-2-3.1-4.7-3.7-7.4c-0.7-3.1-1-6.2-0.9-9.4c0-1.6,0.1-3.2,0.1-4.7c0-0.6-0.2-1.2-0.8-1.3c-0.6-0.1-0.7,0.5-0.9,1
		c0,0.3-0.1,0.7-0.1,1c-0.3,3.1-0.3,6.2,0,9.3c0.1,3.6,1,7.1,2.6,10.3c2,3.6,4.8,5.2,8.2,4.5l3.8-0.8c1.8-0.4,3.5-0.8,5.3-1.1
		c0.6-0.1,1-0.5,1.2-1l0,0c0.2-0.4,0.2-1-0.1-1.3l-0.1-0.1C79.4,103.6,79,103.6,78.8,103.9z"/>
	<path class="st1" d="M118.2,56.4c0.3,0.9,0.7,1.7,1.4,2.4c0,0.1,0.1,0.1,0.1,0.1c0.4,0.4,1,0.4,1.3,0l0,0c0.6-0.5,0-0.9-0.1-1.4
		C120.5,55.7,119.3,56.6,118.2,56.4z"/>
	<path class="st1" d="M74.8,38.7c-0.1,0.5,0.2,1.1,0.8,1.2c2.1,0.8,4.2,0.7,5.9-0.7c2.6-2.3,3.2-5.6,2.3-9.3c-0.9-3.6-3-6.1-6.2-7
		c-2.7-0.9-5.6,0.2-7,2.6c-0.4,0.6-0.6,1.2-0.7,1.9c0,0.1,0.8,0.5,1.1,0.8c1.2,0.8,2,2,2.4,3.4c0.4,1.2-0.9,1.3-1.1,2.2l0,0
		c2,0.3,2.4,0.8,2.5,3c0.1,0.6,0.1,1.2,0,1.7C74.8,38.6,74.8,38.7,74.8,38.7z"/>
	<path class="st1" d="M116.1,82.6c-1.9,2-4,3-6.6,1.6l0,0c-1.4-0.8-1.7,0.4-2,1.3c0,0.1-0.1,0.2-0.1,0.3c-0.2,0.8,0.3,1.7,1.1,1.9
		c1.5,0.7,3.2,0.8,4.8,0.3c3.3-1.3,5.9-3.8,7.3-7c0.2-0.3,0.3-0.6-0.1-1c-0.5-0.6-1-1.2-1.4-1.8C118.3,79.8,117.3,81.3,116.1,82.6z"
		/>
	<path class="st1" d="M97.7,53.1c3.1-0.5,6.3-0.5,9.4,0l0,0c1.4,0.2,1.9-0.5,2.1-1.9c0.2-1.2-0.1-2.4-0.6-3.4c0-0.1,0-0.1-0.1-0.2
		c-0.3-0.7-1.1-1-1.8-0.7c-3.9,1-7.8,2.2-12,0.4c-0.8-0.3-1.7-0.1-1.8,1.3c-0.2,1.5-0.5,2.9-1,4.3c1-0.4,2.1-0.4,3.1-0.1
		C95.9,53.1,96.8,53.2,97.7,53.1z"/>
	<path class="st1" d="M103.5,62.1c-0.7-3.9-5.2-6.4-7.9-6.7c-0.3,0-0.5,0-0.7,0.2c-2.4,1.2-4.4,3-5.9,5.2c-0.6,0.8-0.6,2,0.1,2.8
		c2.8,4.6,9.8,5.5,13.1,2.6C103.4,65.2,104,63.6,103.5,62.1L103.5,62.1z"/>
	<path class="st1" d="M51.4,86c1.5-0.3,2.2-1.9,1.9-4c-0.4-2.2-1.2-2.8-3.5-2.4c-1.1,0.2-2.5,1.9-2.3,2.8
		C47.9,84.7,49.7,86.3,51.4,86z"/>
	<path class="st1" d="M79.8,58c-2.1-0.9-4.1-1.8-6.2-1.1h-0.1c-2.6-0.3-5.1,0.6-7,2.4c-2.6,2.4-5.9,3.2-9.2,4.4
		c1.9,1.6,3.3,3.8,3.9,6.2c0.4-0.1,0.7-0.4,0.9-0.7C65.4,65,69.6,63,74.4,62c1.1-0.2,1.7-0.1,2,1.4c0.2,1,0.5,2.2,1.9,1.8
		c0.4-0.3,0.9-0.4,1.4-0.3l0,0c2.8-0.8,4.1-3.6,5.8-6C83.6,59,81.6,58.7,79.8,58z"/>
	<path class="st1" d="M89,37.6L89,37.6c-0.2-0.5-0.3-1-0.5-1.5C87.9,36.8,88.1,37.3,89,37.6z"/>
	<path class="st1" d="M89.3,50.6c0,0.6-0.2,1.3-0.6,1.8c-0.7,0.9-1.5,1.6-2.4,2.2c0.9-0.6,1.5-1.5,1.7-2.5c-1.9-1.7-3.2-1.3-4,1.2
		c-1-0.8-2-1.7-3.2-1.5c-1.1,0.2-1.4,1.2-0.7,2.3c0.4,0.5,0.9,0.8,1.5,1c0.7,0.2,1.4,0.3,2.1,0.3c-0.9,0-1.7-0.1-2.5-0.4
		c-0.5-0.2-1.1-0.2-1.6-0.4c-2-1-3.9-2.3-5.5-4c-0.6-0.6-0.9-0.5-1.2,0.2c-0.2,0.3-0.2,0.7-0.3,1c0.1-0.2,0-0.5-0.1-0.7
		c-0.5-1.6-0.7-3.2,0.6-4.4c0.1-0.1,0.2-0.4,0.5-0.2c0.2,0.1,0.3,0.4,0.3,0.6c-0.3,1,0.3,1,0.9,1.1c2.8,0.8,5.7,1,8.7,0.8
		c2.6,0,5.1-1.2,6.7-3.2c1.1-1.2,1.7-2.8,1.6-4.5s-0.9-2.5-2.3-2.7c-1-0.1-2.5,0.1-2.5-1.6c0-1.7-1.1-2-1.8-3
		c-0.7,6.1-4.9,8.7-9.4,7.5c-4-1.1-7.6-5.6-7.3-12.1c0.3-6.1,4-9.4,9.2-8c2.1,0.7,3.8,2,5.1,3.8c1.3-4.7,1.8-5.2,5.8-5.3
		c-1.4-1.6-2.8-2.3-4.5-1.6c-1.6,0.6-1.7,2.3-1.9,3.9c-0.3,0-0.4-0.3-0.6-0.5c-2.7-2.6-5.7-4.5-9.1-3.9c-5.6,0.8-8.8,5.8-7.5,13.1
		c0.6,3.2,1.9,6.3,3.8,8.9c-1.5-0.1-2.9,0.1-4.3,0.5c-1.8,0.3-3.1,1.8-3.3,3.6c-0.6,4.2,0.9,7.9,4.6,9.8c3,1.5,6.1,1.5,9.2,1.4
		c0.9,0,0.6-0.7,0.7-1.3c3.8,2.9,7.6,5.1,11.8,2.6l0,0c2.6-1.6,4.7-5.7,4.6-8.8C89.9,47.9,89.6,48.1,89.3,50.6z"/>
	<path class="st0" d="M48.3,85.8c1.2,1.6,2.5,1.4,3.9,0.9c1.2-0.5,2-1.6,1.9-2.9c0-1-0.1-2-0.4-3c-0.3-0.6,0-1.4,0.6-1.7
		c0.9-0.6,2.6-2,2.6-3.6c-0.5-0.1-1.3,1.4-1.5,1.7c-1.1,1.1-2.4,1.9-3.9,1.5c-1.8-0.6-3.1,0.2-4.2,1.6c-1.7,2.2-3.5,2-5.5,0.9
		c-1.6-1-2.2-3-1.3-4.7c0.6-1.3,1.6-2.3,2.8-3c0.5-0.2,1.1-0.4,1.7-0.5l0,0c0,0,0,0,0-0.1h-0.1v-0.1c0.7-2.8-0.2-4.9-2.5-6.3
		c-1.3-0.8-1.4-1.9-1-3.3c0.3-1.5,1.1-2.7,2.4-3.6c1.2-0.7,2.5,0,2.8,1.6c0.3,1.4,0.5,2.9,0.6,4.3c0.1,0.8,0.4,1.1,1.1,0.8
		c1.7-0.6,3.6-0.4,5.1,0.6c0.3,0.2,1,0.5,0.2,1.1l-0.1,0.1c0,0.1,0.1,0.2,0.2,0.2c0.6-0.5,1.3,0,1.9-0.2V68
		c-0.4-0.7-1.2-0.7-1.6-1.5c-0.4-0.4-0.5-1-0.3-1.6s0.5-1,1.2-1c2.6,0.3,5.7,4.4,5.6,7.4c0.1,0.9-0.5,1.7-1.5,1.8
		c-0.1,0-0.2,0-0.3,0c-1.3,0-1.2-1.1-1.1-1.8c0-0.9-0.2-1.7-0.7-2.5c-0.2-0.4-0.5-1-1.1-0.9c0,0,0,0.1-0.1,0.1
		c1,2.3,1.5,4.8,1.3,7.3c0.6-0.7,1.5-1,2.4-0.9c1.4,0,1.9-0.7,2.1-2.3c0-0.5,0.2-1.1,0.5-1.5c3.5-3.9,7.5-6.6,12.5-7.4
		c0.3-0.1,0.8-0.6,1.1,0.2c0.2,0.6,0.8,1.3-0.1,1.7c-0.3,0.2-0.5,0.6-0.3,1c0.9,1.6,0.8,1.6,0.9,1.6c0-0.1,0,0-0.6-1.6
		c0.3-0.3,0.7-0.5,1.1-0.3c2.8,0.9,5.9-0.3,7.3-2.9c0.9-1.4,1.9-2.8,3.1-4c0.1-0.2,0.3-0.3,0.5-0.5c1.3-1.4,2.7-2.7,3.9-4.2
		c0.8-1,3-1.1,4.5-0.2c-0.1,0.1-0.1,0.2-0.2,0.3c-4.1,1.9-6.9,5.5-9.4,9.5c-2,3.6-6.3,5.3-10.2,4L76,67.7c-0.2,0.1-0.2,0.3-0.1,0.5
		l0,0c1.8,1.2,1.9,2.9,0.4,4.4c-1.1,1.1-2.2,0.7-3.3,0c-1-0.7-1.7-0.7-2.3,0.4c-0.6,1.1-0.4,2.4,0.6,3.3c1.8,1.7,4.6,1.8,6.4,0.2
		c0.3-0.2,0.4-0.7,0.9-0.5c1.1,0.4,2.5,3.2,2.2,4.5c-0.4,2.1-2.4,3.5-4.6,3.1h-0.1c-0.5-0.1-0.9-0.5-1-1c-0.7-2.6-2.3-3.4-4.2-2
		c-0.6,0.5-1,1.1-1.7-0.1c-0.3-0.6-1-0.6-1.6-0.7c-2-0.4-4,0.3-5.5,1.6c-0.2,0.1-0.2,0.6-0.7,0.3c-1.6-1.1-2.8-0.3-3,1.8
		c-0.2,2.8-0.3,5.6-0.1,8.4c0.3,4.8,1.1,9.4,3.6,13.5c1.6,2.6,3.7,4.3,6.4,3.9c4-0.6,7.9-1.5,11.8-2.4c1.5-0.3,2-2.3,0.9-3.6
		c-0.4-0.3-0.5-0.8-0.3-1.2c0.5-1.4,0.5-2.9,0-4.3c-0.3-0.8-1.2-1.6-0.9-2.3c0.3-0.6,1.3-0.6,1.9-1c2.6-1.5,5.2-2.8,6.8-5.9
		c1.2-2.8,1.8-5.9,1.5-9c0-1.1,0.3-1.3,1-1.3c1.7-0.1,3.5-0.1,5.2,0c3.4,0.2,6.8,1.2,9.8,2.8c1.9,1,2,1.2,1.1,3.1
		c-1,2.1-0.4,3.9,1.7,4.7c0.2,0.1,0.4,0.2,0.6,0.2c0.7,0.1,0.9,0.3,0.8,1.2c-0.3,2.7,0.6,6,2.8,6.8c0.1-0.2,0.2-0.4,0.1-0.7
		l-0.3-0.2c-1.5-1.7-2.2-4-1.9-6.3c0-0.4-0.1-0.7,0.5-0.8c4.5-0.5,7.7-3.2,10.1-7.3c0.2-0.4,0.2-1,0.8-0.9c0,0,0-0.1,0.1-0.1
		c0-0.1,0-0.3,0-0.4c-0.1-0.2-0.4-0.2-0.4-0.5c-3.6-3.9-3.1-10,0.9-12.4c2.1-1.2,5.3-0.3,7.5,1.7c2,1.6,2.8,4.3,1.8,6.7
		c-0.1,0.3-0.1,0.6-0.1,1c0,0.2,0,0.3,0,0.5c0.1,0.1,0.2,0.2,0.4,0.2l0,0l0.1-0.1c0.5-1.2,0.8-2.6,0.8-3.9c0.1-0.7,0.1-1.5,1-1.4
		c0.8,0.1,1.2,0.7,1.2,1.6c0,0.5,0,0.9,0,1.4l0,0c0.1,0.1,0.2,0.1,0.3,0l0,0c0.6-2.1-0.1-3.7-1.7-3.7c-0.8,0-1.1-0.4-1.5-1.1
		c-1.7-3.2-5.3-5.2-8.1-4.5c-3.4,0.8-5.4,3.3-5.9,7.2c-0.1,0.8-0.3,1-0.9,0.4c-0.6-0.7-1.2-1.3-1.9-1.8c-2.8-2-5.9-3.5-9.3-4.3
		c-0.6-0.2-1.4-0.1-1.7-0.6c-0.4-0.5,0.4-1,0.5-1.6c0-0.2,0.1-0.5,0.1-0.7c0.1-2.2-0.6-4.4-2.1-6.1c-1.6-2.1-3.7-3.1-5.8-4
		c3.1-0.8,6.4-0.9,9.6-0.4c0.7,0.1,1.3,0.6,1.6,1.3c0.9,1.8,2,2,3.1,0.6c0.8-1,1.5-0.8,2.5-0.6c2,0.4,3.7,1.2,4.7,3.6
		c0.4,1.1,1.6,1.5,2.2,0.8c0.9-0.9,1.4-0.3,2.1,0.2c1.9,1.2,3.9,0.7,5.2-1.3c0.8-1.2,0.3-3.3-1-5c-0.1-0.1-0.2-0.3-0.4-0.4
		c-0.3-0.4-1.1-0.9-0.9-1.3c0.3-0.6,0.8-1,1.5-1.1s1.3-0.1,2,0.2c0.6,0.3,1.3,0.4,2,0.2c1.3-0.6,2.2-3.1,1.9-5.3
		c-0.1-1.6-1.3-3-2.9-3.3c-2.3-0.6-4.8-0.1-6.7,1.5c-0.6,0.5-1.1,0.3-1.6-0.1c-1.3-1-1.1-2.3-0.9-3.7c0.4-1.7-0.1-3.5-1.3-4.8
		c-1.2-1.4-3-2.2-4.8-2.3c-1.8,0-2.8,1-3.6,2.6c-0.7,1.5,0.4,2.3,1.2,3.1c0.7,0.7,0.7,1.4-0.1,2c-0.9,0.5-1.6,1.5-1.8,2.5
		c-0.1,0.6-0.4,0.3-0.7,0.2c-1-0.3-1.9-0.2-2.4,1c-0.1,0.3-0.4,0.6-0.7,0.7c-2.2,0.9-4.5,1.4-6.8,1.5c-1.6,0.2-3.3,0-4.8-0.5
		c0.9-0.8,1.6-1.4,2.3-2.2c2.3-2.1,2.4-5.7,0.3-8c-0.5-0.5-1.1-1-1.7-1.3c-0.9-0.5-2.2-0.2-2.7-1.2c-0.5-0.9,0-2.3-0.3-3.4
		c0-0.1,0-0.3,0-0.4c-0.5-4.9-2.3-9.2-5.9-12c-6.2-4.7-12.7-4.5-19.2-2.4c-0.8,0.3-1.6,0.3-2.4-0.2c-2.7-1.5-5.4-2.6-8.3-1.7
		c-1.7,0.5-3.2,1.5-4.3,2.9C53,17,52.8,17.9,53,18.8c0.3,0.9,1,1.1,1.7,1.2c0.5,0.1,1.1,0.1,1.6,0.2c0.7,0,1.3,0.5,1.5,1.2
		s-0.2,1.1-0.5,1.5c-0.7,0.9-1.3,2-1.6,3.1c0,0.3-0.4,0.6-0.7,0.6c-0.1,0-0.1,0-0.2,0c-2.2-0.4-4.5-0.6-6.7-0.5
		c-4.3,0-7.9,3.1-8.6,7.7c-0.1,0.8,0,1.2,0.8,1.1c2.2-0.4,4.1,0.5,5.5,2.7c0.8,1.4,2.5,2.1,4.1,1.6c1.2-0.3,2.5-0.8,3.6-1.3
		c0.5-0.2,0.9-0.6,1.2,0.7c0.7,3.9,1.9,7.7,4.3,10.8c2.4,3.2,5.7,5.6,9.6,6.9c-0.1,0.3-0.2,0.5-0.5,0.7c-3,2.4-6.4,4.2-10.1,5.4
		c-0.9,0.4-1.9,0.5-2.8,0.3c-1.6-0.4-2.1,0-2.7,1.8c-0.1,0.3-0.1,0.7-0.5,0.5c-1.2,0-2.1,0-3,0.3c-0.6,0-1-0.1-1.1-1
		c-0.2-1.5-0.4-3-0.7-4.5c-0.4-1.8-1.8-2.6-3.1-1.8c-1.9,1.2-3.3,3-4,5.2c-0.6,1.5-0.1,3.3,1.3,4.2c0.4,0.4,0.8,0.7,1.3,1
		c1,0.3,1.6,1.3,1.4,2.3c-0.1,1.1-0.2,2.3-1.5,2.5c-0.6,0.2-1.1,0.5-1.5,0.9c-1.8,1.5-2.5,5.3-0.8,7.1c0,0,1.2,1.4,3,1.8
		c0.7,0.3,1.5,0.4,2.3,0.1C46.8,82.5,46.7,84.5,48.3,85.8 M49.8,79.7c2.2-0.4,3,0.2,3.5,2.4c0.4,2.1-0.3,3.7-1.9,4
		c-1.7,0.3-3.5-1.3-3.9-3.5C47.3,81.5,48.7,79.9,49.8,79.7z M70.3,81.8L70.3,81.8c1-1.6,2.6-1.5,3.3,0c0.1,0.3,0.4,0.7-0.1,1.1
		c-3,1.8-3.5,5-2.6,8.6c0.4,1.5-0.2,1.9-1,2s-0.8-0.9-1-1.5c-0.1-0.3-0.1-0.6-0.2-0.9C68,87.9,68.6,84.6,70.3,81.8z M61.4,83.9
		c0-0.7,0.3-1.3,0.9-1.7l0,0c0.7-0.5,1.4-1,2.2-1.3c1.1-0.5,2.5-0.2,3.3,0.7c0.6,0.4,0.8,1.1,0.4,1.7c-1.4,3.2-1.2,6.5,0.1,9.9
		c0.3,0.7,0.5,1.2-0.1,1.8c-0.3,0.4-0.6,0.9-0.7,1.5c0,0.2-0.1,0.5,0.1,0.6s0.3-0.2,0.5-0.4c2-2.6,4.5-3.3,7.5-1.9
		c2.8,1.3,4,4.7,2.7,7.5c0,0.1-0.1,0.2-0.1,0.3c-0.3,0.7-0.9,1.1-1.7,1.2c-2.5,0.5-4.9,0.9-7.3,1.6c-2.2,0.6-4.1-0.9-5.2-2.8
		c-1.8-3.1-2.3-6.6-2.6-10.1C61.2,89.6,61.2,86.8,61.4,83.9z M79.7,103.9L79.7,103.9c0.4,0.5,0.5,1,0.2,1.4l0,0
		c-0.2,0.5-0.7,0.9-1.2,1c-1.8,0.3-3.5,0.7-5.3,1.1l-3.8,0.8c-3.4,0.7-6.2-0.8-8.2-4.5c-1.6-3.2-2.5-6.7-2.6-10.3
		c-0.3-3.1-0.3-6.2,0-9.3c0-0.3,0-0.7,0.1-1c0.1-0.5,0.3-1.1,0.9-1c0.6,0.1,0.8,0.7,0.8,1.3c0,1.6-0.1,3.2-0.1,4.7
		c-0.1,3.2,0.2,6.3,0.9,9.4c0.7,2.8,1.7,5.5,3.7,7.4c1.2,1.1,2.4,1.8,3.9,1.4c2.9-0.7,5.9-1.4,8.9-2.2c0.4-0.1,0.7-0.2,1-0.5
		C79,103.6,79.4,103.6,79.7,103.9z M121,58.9L121,58.9c-0.4,0.4-1,0.4-1.3,0l-0.1-0.1c-0.6-0.7-1.1-1.5-1.4-2.4
		c1.1,0.3,2.3-0.7,2.7,1.2C121,58,121.6,58.4,121,58.9z M127.5,56.4L127.5,56.4c0.4,1.5-0.9,3.3-2.3,3.2c-0.7,0-1.4-0.3-2-0.8
		c-0.8-0.6-1.4-1.4-1.8-2.3c-0.2-1,1.1-1,1.5-1.6c0.2-0.2,0.4-0.4,0.6-0.5c0.7-0.2,1-1.4,1.9-1.1C126,53.4,127.3,55.6,127.5,56.4z
		 M113.3,41.7c1.3-0.7,1.3-1.9,0.3-3.1c-0.6-0.6-1.7-0.9-1.3-2.2c0.5-1.2,1.7-2,3.1-2c1.6,0.4,3,1.2,4.1,2.4c1,1,0.8,2.2,0.5,3.4
		c-0.9,3.3-0.9,3.3,1.6,5.3c0.5,0.5,0.1,0.8,0,0.9c0.1-0.1,0.5,0,0.7-0.2c1.6-0.7,2.9-2,4.7-2.3c1-0.2,1.9-0.1,2.8,0.2
		c2.2,0.8,2.6,1.7,1.9,4.1l0,0c-0.3,1.2-0.9,1.9-2.1,1.5c-1.9-0.7-3.4,0.1-4.7,1.5c-0.6,0.6-1.3,1.1-1.9,1.7
		c-2.6,2.7-5.8,2.8-9.1,1.6c-0.9-0.3-1.1-0.7-0.8-1.7c0.7-2.3,0.3-4.8-0.8-6.8C111.4,44.2,111.8,42.6,113.3,41.7z M108.6,45.2
		c0.3-0.4,0.9-0.6,1.3-0.3l0,0c1.2,0.9,2,2.1,2.4,3.6c0.1,0.2,0.1,0.5,0.2,0.7c0.4,2.1-0.1,4.4-1.5,6.1l0,0
		c-0.2,0.5-0.8,0.6-1.3,0.4c-0.1-0.1-0.2-0.1-0.3-0.2c-0.7-0.6-0.4-1-0.1-1.6c1.3-2.3,1.2-5.3-0.5-7.4
		C108.7,46,108.2,45.7,108.6,45.2z M93.5,35.6c1.9-0.2,3.6,0.9,4.4,2.6l0,0c0.7,1.7,0.3,3.6-1,4.9c-1.3,1.4-2.9,2.4-4.8,2.9
		c0.3-0.5,0.4-0.8,0.6-1.1c1.1-2.1,1-3.3-0.4-5.3c-0.5-0.6-0.7-1-0.1-1.6c0.3-0.3,0.5-0.7,0.4-1.1C92.2,35.7,92.8,35.7,93.5,35.6z
		 M89.2,22.5c2.8,3.2,4,7.6,3.1,11.8l0,0c-0.1,0.7-0.4,1.1-1.1,0.8c-1-0.4-1.9,0.2-2.9,0.2c0-0.8,0.1-1.5,0.1-2.2
		c0-1.2-0.2-1.9-1.3-2c-0.3,0-0.7-0.2-0.4-0.8c0.3-0.5,1-1,0.6-1.7c-0.4-1.1-1-2-1.8-2.8c-0.4-0.4-1.4-0.2-1.3-1.2
		c0-1.2,0.7-2.3,1.8-2.8C87.1,21.1,88.5,21.5,89.2,22.5z M89,37.6c-0.9-0.3-1.1-0.8-0.5-1.5C88.8,36.5,88.8,37.1,89,37.6L89,37.6z
		 M79.7,64.8L79.7,64.8c-0.5-0.1-1,0-1.4,0.3c-1.3,0.5-1.6-0.8-1.9-1.8c-0.3-1.4-0.9-1.6-2-1.4c-4.8,1-9.1,3-12.3,7.2
		c-0.2,0.4-0.5,0.6-0.9,0.7c-0.7-2.4-2-4.6-3.9-6.2c3.3-1.2,6.6-2,9.2-4.4c1.9-1.8,4.4-2.6,7-2.4h0.1c2.1-0.7,4.2,0.2,6.2,1.1
		c1.8,0.8,3.8,1,5.7,0.8C83.9,61.2,82.6,64,79.7,64.8z M87.4,56.6L87.4,56.6c-4.2,2.5-8,0.3-11.8-2.6c0,0.6,0.2,1.3-0.7,1.3
		c-3.1,0.1-6.2,0.1-9.2-1.4c-3.8-1.9-5.2-5.6-4.6-9.8c0.2-1.8,1.6-3.3,3.3-3.6c1.4-0.5,2.8-0.6,4.3-0.5c-1.9-2.7-3.2-5.7-3.8-8.9
		c-1.3-7.3,1.9-12.2,7.5-13.1c3.5-0.5,6.4,1.3,9.1,3.9c0.2,0.2,0.3,0.5,0.6,0.5c0.2-1.6,0.3-3.3,1.9-3.9c1.7-0.7,3.1,0.1,4.5,1.6
		c-3.9,0.2-4.5,0.6-5.8,5.3c-1.3-1.8-3.1-3.1-5.1-3.8c-5.2-1.5-8.9,1.8-9.2,8c-0.3,6.5,3.4,11,7.3,12.1c4.5,1.2,8.7-1.4,9.4-7.5
		c0.7,1,1.8,1.2,1.8,3c0,1.6,1.5,1.4,2.5,1.6c1.4,0.2,2.2,1,2.3,2.7c0.1,1.6-0.5,3.2-1.6,4.5c-1.7,2-4.1,3.2-6.7,3.2
		c-2.9,0.2-5.8,0-8.7-0.8c-0.5-0.1-1.2-0.2-0.9-1.1c0.1-0.2,0-0.5-0.3-0.6c-0.3-0.2-0.4,0.1-0.5,0.2c-1.2,1.2-1.1,2.7-0.6,4.4
		c0.2,0.2,0.2,0.4,0.1,0.7c0.1-0.3,0.1-0.7,0.3-1c0.3-0.7,0.6-0.8,1.2-0.2c1.6,1.6,3.4,3,5.5,4c0.5,0.2,1.1,0.2,1.6,0.4
		c0.8,0.3,1.6,0.5,2.5,0.4c-0.7,0-1.4-0.1-2.1-0.3c-0.6-0.2-1.1-0.5-1.5-1c-0.7-1.1-0.4-2.1,0.7-2.3c1.3-0.2,2.2,0.6,3.2,1.5
		c0.8-2.5,2.1-2.9,4-1.2c-0.2,1-0.8,1.9-1.7,2.5c0.9-0.6,1.7-1.3,2.4-2.2c0.3-0.6,0.5-1.2,0.6-1.8c0.4-2.4,0.6-2.6,2.7-2.8
		C92.1,50.8,90,55,87.4,56.6z M74.8,36.9c-0.1-2.3-0.5-2.7-2.5-3l0,0c0.2-1,1.5-1,1.1-2.2c-0.4-1.4-1.2-2.6-2.4-3.4
		c-0.4-0.3-1.2-0.6-1.1-0.8c0.1-0.7,0.3-1.3,0.7-1.9c1.4-2.4,4.3-3.5,7-2.6c3.2,0.9,5.3,3.3,6.2,7c0.9,3.7,0.3,7.1-2.3,9.3
		c-1.7,1.5-3.8,1.5-5.9,0.7c-0.5-0.1-0.9-0.6-0.8-1.2v-0.1C74.9,38,74.9,37.4,74.8,36.9z M95.1,52.8c-1-0.3-2.1-0.3-3.1,0.1
		c0.5-1.4,0.8-2.8,1-4.3c0.1-1.3,1-1.6,1.8-1.3c4.2,1.8,8.1,0.6,12-0.4c0.7-0.3,1.5,0,1.8,0.7c0,0.1,0,0.1,0.1,0.2
		c0.5,1.1,0.7,2.2,0.6,3.4c-0.2,1.3-0.7,2-2.1,1.9l0,0c-3.1-0.5-6.3-0.5-9.4,0C96.8,53.2,95.9,53.1,95.1,52.8z M102.2,66.2
		c-3.3,2.9-10.4,2-13.1-2.6c-0.7-0.8-0.7-2-0.1-2.8c1.5-2.2,3.5-4,5.9-5.2c0.2-0.1,0.5-0.2,0.7-0.2c2.7,0.4,7.2,2.8,7.9,6.7l0,0
		C104,63.6,103.4,65.2,102.2,66.2z M120.4,80c0.4,0.4,0.2,0.7,0.1,1c-1.4,3.2-4,5.7-7.3,7c-1.6,0.5-3.3,0.4-4.8-0.3
		c-0.8-0.2-1.3-1.1-1.1-1.9c0-0.1,0.1-0.2,0.1-0.3c0.4-0.9,0.6-2.1,2-1.3l0,0c2.6,1.4,4.8,0.4,6.6-1.6c1.3-1.3,2.2-2.8,2.9-4.5
		C119.5,78.8,119.9,79.4,120.4,80z"/>
</g>
<path class="st0" d="M114.6,97.7c-0.7,0-1.7-0.5-2.2-0.6l0.1-0.7c3.7,1.2,7.6-0.2,12.4-3.5c3.8-2.5,10.2-8.2,10.2-17.4l0.5-1.1
	c0.1,9.7-6.2,16.7-10.1,19.3C121.3,96.5,117.3,97.7,114.6,97.7z"/>
</svg>
