<?xml version="1.0" encoding="utf-8"?>
<!-- Generator: Adobe Illustrator 26.0.2, SVG Export Plug-In . SVG Version: 6.00 Build 0)  -->
<svg version="1.1" id="Layer_1" xmlns="http://www.w3.org/2000/svg" xmlns:xlink="http://www.w3.org/1999/xlink" x="0px" y="0px"
	 viewBox="0 0 62.6 81.6" style="enable-background:new 0 0 62.6 81.6;" xml:space="preserve">
<style type="text/css">
	.st0{fill:#F4D8CE;}
	.st1{fill:#F4CC5F;}
	.st2{fill:#F8C769;}
	.st3{fill:#461D0F;}
	.st4{fill:#FACE5A;}
	.st5{fill:#3C1502;}
	.st6{fill:#845421;}
	.st7{fill:#F3C35C;}
	.st8{fill:#ECBC64;}
	.st9{fill:#74471B;}
	.st10{fill:#370D17;}
	.st11{fill:#3D0E00;}
	.st12{fill:#F9BE6D;}
	.st13{fill:#AA7E2F;}
	.st14{fill:#FECE77;}
	.st15{fill:#F6CC5E;}
	.st16{fill:#F6D157;}
	.st17{fill:#9D5F2F;}
	.st18{fill:#F3CC63;}
	.st19{fill:#522206;}
	.st20{fill:#652D17;}
	.st21{fill:#622F0A;}
	.st22{fill:#F0C557;}
	.st23{fill:#451700;}
	.st24{fill:#F4BF6B;}
	.st25{fill:#4A1E00;}
	.st26{fill:#8D5B12;}
	.st27{fill:#F8CB74;}
	.st28{fill:#84571B;}
	.st29{fill:#692B00;}
	.st30{fill:#5F3B12;}
	.st31{fill:#5F2F00;}
	.st32{fill:#9D6629;}
	.st33{fill:#DFAD75;}
	.st34{fill:#805028;}
	.st35{fill:#F5C56C;}
	.st36{fill:#744313;}
	.st37{fill:#94601B;}
	.st38{fill:#6D3A10;}
	.st39{fill:#703712;}
	.st40{fill:#602B00;}
	.st41{fill:#9B652D;}
	.st42{fill:#67320C;}
	.st43{fill:#784107;}
	.st44{fill:#D6A262;}
	.st45{fill:#51290D;}
	.st46{fill:#87521E;}
	.st47{fill:#5C3100;}
	.st48{fill:#834F24;}
	.st49{fill:#805730;}
	.st50{fill:#976B2E;}
	.st51{fill:#95603C;}
	.st52{fill:#3B1600;}
	.st53{fill:#6D3C08;}
	.st54{fill:#4C1900;}
	.st55{fill:#45160C;}
	.st56{fill:#F9CF6F;}
	.st57{fill:#866129;}
	.st58{fill:#7B4A11;}
	.st59{fill:#916724;}
	.st60{fill:#EDD07A;}
	.st61{fill:#410D00;}
	.st62{fill:#F8CF6B;}
	.st63{fill:#5F2300;}
	.st64{fill:#410B00;}
	.st65{fill:#471300;}
	.st66{fill:#4A130E;}
	.st67{fill:#6B3C09;}
	.st68{fill:#EBC258;}
	.st69{fill:#FED496;}
	.st70{fill:#511E00;}
	.st71{fill:#764E17;}
	.st72{fill:#5E2910;}
	.st73{fill:#6A391C;}
	.st74{fill:#95663A;}
	.st75{fill:#491600;}
	.st76{fill:#581500;}
	.st77{fill:#673704;}
	.st78{fill:#723F1C;}
	.st79{fill:#FAD963;}
	.st80{fill:#F8D76A;}
	.st81{fill:#F6D065;}
	.st82{fill:#FAD56C;}
	.st83{fill:#FBD865;}
	.st84{fill:#F6CF56;}
	.st85{fill:#F1C575;}
	.st86{fill:#F9D266;}
	.st87{fill:#F4D159;}
	.st88{fill:#F1BF5B;}
	.st89{fill:#F2BC7A;}
	.st90{fill:#FAD867;}
	.st91{fill:#FECF8D;}
	.st92{fill:#A97B51;}
	.st93{fill:#F0BD56;}
	.st94{fill:#FBD559;}
	.st95{fill:#F8C461;}
	.st96{fill:#FCCE64;}
	.st97{fill:#ECB656;}
	.st98{fill:#75451B;}
	.st99{fill:#F9D388;}
	.st100{fill:#EEC772;}
	.st101{fill:#FBDB6A;}
	.st102{fill:#FBDE63;}
	.st103{fill:#FAE064;}
	.st104{fill:#FDE068;}
	.st105{fill:#FED78F;}
	.st106{fill:#F4CD6C;}
	.st107{fill:#E5C060;}
	.st108{fill:#FAD166;}
	.st109{fill:#FBCF5B;}
	.st110{fill:#F8D766;}
	.st111{fill:#FAD769;}
	.st112{fill:#F5CC70;}
	.st113{fill:#9C7152;}
	.st114{fill:#EEBF76;}
	.st115{fill:#CD964E;}
	.st116{fill:#865232;}
	.st117{fill:#FDD780;}
	.st118{fill:#FCD268;}
	.st119{fill:#FAD76E;}
	.st120{fill:#FED959;}
	.st121{fill:#FCCD79;}
	.st122{fill:#FEDB60;}
	.st123{fill:#F7CE4E;}
	.st124{fill:#FBD062;}
	.st125{fill:#F9CB5E;}
	.st126{fill:#F7D86B;}
	.st127{fill:#F1C277;}
	.st128{fill:#FDD56D;}
	.st129{fill:#F1CA73;}
	.st130{fill:#E0B27F;}
	.st131{fill:#F7D16A;}
	.st132{fill:#F4CF55;}
	.st133{fill:#FAD864;}
	.st134{fill:#F9D983;}
	.st135{fill:#41152D;}
	.st136{fill:#FADA6D;}
	.st137{fill:#FDD46D;}
	.st138{fill:#74390C;}
	.st139{fill:#FAD55F;}
	.st140{fill:#F8CE53;}
	.st141{fill:#F2CB59;}
	.st142{fill:#FADA68;}
	.st143{fill:#F9D76D;}
	.st144{fill:#E3AB72;}
	.st145{fill:#F4CB62;}
	.st146{fill:#DAA161;}
	.st147{fill:#FEBB75;}
	.st148{fill:#F7C653;}
	.st149{fill:#FAC95D;}
	.st150{fill:#F0BF59;}
	.st151{fill:#FDDAA1;}
	.st152{fill:#FCD16E;}
	.st153{fill:#6D4008;}
	.st154{fill:#ECC66A;}
	.st155{fill:#FED899;}
	.st156{fill:#F8D269;}
	.st157{fill:#FBC967;}
	.st158{fill:#EFC05B;}
	.st159{fill:#825417;}
	.st160{fill:#F7D95C;}
	.st161{fill:#F9DB6D;}
	.st162{fill:#F1C675;}
	.st163{fill:#F8DD66;}
	.st164{fill:#FBDB6E;}
	.st165{fill:#F3DB6E;}
	.st166{fill:#F4D85B;}
	.st167{fill:#F8DC5C;}
	.st168{fill:#E3BD54;}
	.st169{fill:#956230;}
	.st170{fill:#F6D563;}
	.st171{fill:#885D19;}
	.st172{fill:#FDD467;}
	.st173{fill:#FCD36E;}
	.st174{fill:#FAD673;}
	.st175{fill:#F5D653;}
	.st176{fill:#F9D665;}
	.st177{fill:#F9DD74;}
	.st178{fill:#FADC63;}
	.st179{fill:#F9DF7C;}
	.st180{fill:#F7D665;}
	.st181{fill:#FADB69;}
	.st182{fill:#FAD96F;}
	.st183{fill:#F9D964;}
	.st184{fill:#F9D96E;}
	.st185{fill:#FEE388;}
	.st186{fill:#72450E;}
	.st187{fill:#6D4200;}
	.st188{fill:#F8DE6E;}
	.st189{fill:#F8D678;}
	.st190{fill:#F3D661;}
	.st191{fill:#FADB66;}
	.st192{fill:#C99E5A;}
	.st193{fill:#D4A965;}
	.st194{fill:#F6D767;}
	.st195{fill:#FAD66D;}
	.st196{fill:#F8DD55;}
	.st197{fill:#FBDB6F;}
	.st198{fill:#F9D96C;}
	.st199{fill:#F4D561;}
	.st200{fill:#F9D876;}
	.st201{fill:#F8DB5B;}
	.st202{fill:#FAD773;}
	.st203{fill:#FCD955;}
	.st204{fill:#F7D577;}
	.st205{fill:#FDD86D;}
	.st206{fill:#F8D366;}
	.st207{fill:#F9D55C;}
	.st208{fill:#F9D87A;}
	.st209{fill:#F8DA65;}
	.st210{fill:#F9D958;}
	.st211{fill:#F9D55A;}
	.st212{fill:#FAD479;}
	.st213{fill:#FAD86A;}
	.st214{fill:#F8D462;}
	.st215{fill:#F5D367;}
	.st216{fill:#FBD55A;}
	.st217{fill:#F6DA5D;}
	.st218{fill:#F9D772;}
	.st219{fill:#FCD971;}
	.st220{fill:#FBD677;}
	.st221{fill:#F7D56B;}
	.st222{fill:#F6D45E;}
	.st223{fill:#F7DA5A;}
	.st224{fill:#ECCD8C;}
	.st225{fill:#7A5420;}
	.st226{fill:#FCDF76;}
	.st227{fill:#F8D973;}
	.st228{fill:#FDDA6D;}
	.st229{fill:#F3D164;}
	.st230{fill:#F8D661;}
	.st231{fill:#D19F4E;}
	.st232{fill:#FBD87A;}
	.st233{fill:#7F4F17;}
	.st234{fill:#FBD765;}
	.st235{fill:#F7D771;}
	.st236{fill:#F7D765;}
	.st237{fill:#F8E15A;}
	.st238{fill:#F4D570;}
	.st239{fill:#FCDB76;}
	.st240{fill:#421E15;}
	.st241{fill:#482922;}
	.st242{fill:#F8D86A;}
	.st243{fill:#FDE06D;}
	.st244{fill:#704B3A;}
	.st245{fill:#FBDB66;}
	.st246{fill:#F7D668;}
	.st247{fill:#F8DC5F;}
	.st248{fill:#FBDB60;}
	.st249{fill:#FCD46C;}
	.st250{fill:#3F1A07;}
	.st251{fill:#F0D177;}
	.st252{fill:#E2BE6E;}
	.st253{fill:#3E1900;}
	.st254{fill:#7C510D;}
	.st255{fill:#EDCC65;}
	.st256{fill:#FADD73;}
	.st257{fill:#F9DD5B;}
	.st258{fill:#E4BF6A;}
	.st259{fill:#764B07;}
	.st260{fill:#F5DE60;}
	.st261{fill:#F9DB67;}
	.st262{fill:#F7DF68;}
	.st263{fill:#F7D85F;}
	.st264{fill:#F8DC6C;}
	.st265{fill:#290F05;}
	.st266{fill:#946629;}
	.st267{fill:#8A641A;}
	.st268{fill:#FBDE66;}
	.st269{fill:#513130;}
	.st270{fill:#FEDB7A;}
	.st271{fill:#FCD874;}
	.st272{fill:#F9DE54;}
	.st273{fill:#B58E4C;}
	.st274{fill:#F9D858;}
	.st275{fill:#F2CF72;}
	.st276{fill:#FDE176;}
	.st277{fill:#FCE16C;}
	.st278{fill:#F7D975;}
	.st279{fill:#F7DE6D;}
	.st280{fill:#F4D361;}
	.st281{fill:#F9D96D;}
	.st282{fill:#F1DE65;}
	.st283{fill:#F8CE7F;}
	.st284{fill:#FEDC86;}
	.st285{fill:#FBDF64;}
	.st286{fill:#EFCA86;}
	.st287{fill:#FDD97D;}
	.st288{fill:#F9DB76;}
	.st289{fill:#FED196;}
	.st290{fill:#4A270D;}
	.st291{fill:#F8D58E;}
	.st292{fill:#330A19;}
	.st293{fill:#391624;}
	.st294{fill:#F4EBDB;}
	.st295{fill:#EBDAC5;}
	.st296{fill:#FEE7E2;}
	.st297{fill:#F5D86D;}
	.st298{fill:#3F181B;}
	.st299{fill:#300B05;}
	.st300{fill:#FAD880;}
	.st301{fill:#FADE76;}
	.st302{fill:#FCDE69;}
	.st303{fill:#3D1417;}
	.st304{fill:#3F1D00;}
	.st305{fill:#391401;}
	.st306{fill:#3D1723;}
	.st307{fill:#7F593E;}
	.st308{fill:#B98F51;}
	.st309{fill:#F3D57A;}
	.st310{fill:#FCDF83;}
	.st311{fill:#F0D26F;}
	.st312{fill:#F5DECB;}
	.st313{fill:#F7E0C3;}
	.st314{fill:#F7E1D3;}
	.st315{fill:#350C05;}
	.st316{fill:#F5E4DF;}
	.st317{fill:#5B3B2E;}
	.st318{fill:#F4EDD8;}
	.st319{fill:#593922;}
	.st320{fill:#FDDF83;}
	.st321{fill:#35101A;}
	.st322{fill:#42231E;}
	.st323{fill:#ECCA82;}
	.st324{fill:#F6D968;}
	.st325{fill:#FADE70;}
	.st326{fill:#FBDF66;}
	.st327{fill:#F1DED3;}
	.st328{fill:#F4D9BF;}
	.st329{fill:#311303;}
	.st330{fill:#311B10;}
	.st331{fill:#493929;}
	.st332{fill:#391D1D;}
	.st333{fill:#F9ECDF;}
	.st334{fill:#F1F2E7;}
	.st335{fill:#EEF5CA;}
	.st336{fill:#E7DCCD;}
	.st337{fill:#F8D3B2;}
	.st338{fill:#2F0508;}
	.st339{fill:#2A000C;}
	.st340{fill:#F3D9B5;}
	.st341{fill:#502916;}
	.st342{fill:#FBE2C6;}
	.st343{fill:#583436;}
	.st344{fill:#CCA893;}
	.st345{fill:#8D5946;}
	.st346{fill:#BFA088;}
	.st347{fill:#623522;}
	.st348{fill:#F7DABA;}
	.st349{fill:#FCDDC9;}
	.st350{fill:#8D6E57;}
	.st351{fill:#9B7B66;}
	.st352{fill:#C8B29A;}
	.st353{fill:#E8CBB0;}
	.st354{fill:#D2BCA6;}
	.st355{fill:#FEE0CB;}
	.st356{fill:#2E1A11;}
	.st357{fill:#FEF6E1;}
	.st358{fill:#FDEFDF;}
	.st359{fill:#3B2711;}
	.st360{fill:#725646;}
	.st361{fill:#F4DAC2;}
	.st362{fill:#EED7BE;}
	.st363{fill:#FBD5AF;}
	.st364{fill:#66422D;}
	.st365{fill:#554A34;}
	.st366{fill:#F2E7D3;}
	.st367{fill:#FAF5DF;}
	.st368{fill:#FBF0E0;}
	.st369{fill:#5F483F;}
	.st370{fill:#F5DCC2;}
	.st371{fill:#FBD6BC;}
	.st372{fill:#785040;}
	.st373{fill:#DBB59B;}
	.st374{fill:#F4D7BF;}
	.st375{fill:#FCD3C2;}
	.st376{fill:#E0BCAB;}
	.st377{fill:#F7D4B8;}
	.st378{fill:#FCDDCA;}
	.st379{fill:#AA7C68;}
	.st380{fill:#825B4E;}
	.st381{fill:#66402B;}
	.st382{fill:#9D7B68;}
	.st383{fill:#FEF4DD;}
	.st384{fill:#F1EED5;}
	.st385{fill:#3F2619;}
	.st386{fill:#B49481;}
	.st387{fill:#4B3024;}
	.st388{fill:#F6EBD7;}
	.st389{fill:#F6CBB8;}
	.st390{fill:#9D6F52;}
	.st391{fill:#E5B6A2;}
</style>
<g id="Group_21">
	<path id="Path_49626" class="st0" d="M35.2,26.7c0.4,0.1,0.8,0.1,1.2-0.2c0.2-0.1,0.4-0.3,0.5-0.5c0,0.1,0.1,0.1,0.2,0
		C36.7,26.7,35.9,27,35.2,26.7L35.2,26.7z"/>
	<path id="Path_49628" class="st0" d="M34.6,26.5C34.6,26.6,34.5,26.6,34.6,26.5c-0.1,0.1-0.3,0.1-0.4,0c0.1,0,0.1,0,0.1-0.1
		S34.5,26.4,34.6,26.5z"/>
	<g id="Group_20">
		<path id="Path_49629" class="st0" d="M8.9,42.5"/>
	</g>
	<path id="Path_49645" class="st0" d="M18.6,41.1c0.1,0,0.3,0,0.4,0l-0.8,0.2C18.2,41.1,18.4,41.2,18.6,41.1z"/>
	<path id="Path_49646" class="st0" d="M54.6,22.3c-0.1,0.1-0.3,0.2-0.4,0.2c0.1-0.2,0.3-0.2,0.2-0.4C54.5,22.1,54.5,22.4,54.6,22.3z
		"/>
	<path id="Path_49649" class="st0" d="M30.6,21.9v0.3C30.5,22.2,30.6,22.1,30.6,21.9z"/>
	<path id="Path_49670" class="st0" d="M30.3,56.8c0,0.1,0,0.1,0,0.2C30.3,57,30.2,56.9,30.3,56.8z"/>
	<path id="Path_49671" class="st0" d="M30.6,53L30.6,53C30.5,52.9,30.6,52.8,30.6,53z"/>
	<path id="Path_49672" class="st0" d="M30.2,56.2L30.2,56.2c0-0.1-0.1-0.2,0-0.2h0.1L30.2,56.2z"/>
</g>
<path class="st1" d="M37.4,1.7l1.1,1.1c-0.2,1,0.6,1.4,1.2,1.8c0.3,0.2,0.5,0.6,0.6,0.9c-0.1,0.4-0.2,0.7-0.4,1
	c-0.4,0.5-0.7,1.1-1.5,1c-0.8-0.4-0.8-1.5-1.6-1.9c-0.4-0.2-0.8-0.3-1.2-0.3c-0.5,0.2-1,0.5-1.4,0.9c-0.4,0.3-0.9,0.4-1.4,0.5
	c-1,0-1.7-0.7-2.5-1.2c-0.2-0.2-0.4-0.4-0.5-0.7c-0.1-0.4,0-0.8,0.3-1.1c0.3-0.7,0.3-1.5,1.1-1.9c0.9-0.4,2-0.5,3-0.3
	C35,1.4,36.2,1.5,37.4,1.7z"/>
<path class="st2" d="M27.4,59.2l-0.2,0.1h-0.2c-0.2-0.1-0.4-0.3-0.4-0.6c0.2-0.8-0.3-1.9,0.6-2.6c0.8-0.3,1.6-0.4,2.4-0.1
	c0.8,0.2,1.6,0.3,2.5,0.3c0.9-0.1,1.8,0.1,2.6,0.5c0.2,0.2,0.4,0.5,0.4,0.8c0,0.3-0.1,0.6-0.4,0.8c-1.8,0.8-3.9,0.3-5.7,1.3
	C28.6,59.8,27.9,59.6,27.4,59.2z"/>
<path class="st3" d="M47.8,48.4c0.7,5.9,0.6,6.2-4,8.5c-0.7-1.5,0.7-2.1,1.2-3.1c0.5-0.6,0.9-1.2,1.2-1.9c0.5-1.1,0.1-2.4,0.8-3.4
	C47.3,48.3,47.6,48.3,47.8,48.4z"/>
<path class="st4" d="M14.6,4l0.6-0.7C16,2.9,17,2.8,17.9,3.1c0.4,0.3,0.6,0.7,0.6,1.2c0.1,0.4,0,0.9-0.2,1.3c-0.5,0.8-1.3,1.5-2.1,2
	c-1.1,0.2-1.5-0.4-1.4-1.4C15.6,5.4,14,4.8,14.6,4z"/>
<path class="st5" d="M24,55.3c-1.7-0.7-1.6,2.3-3.3,1.7c-0.5-0.4-0.8-1-0.7-1.7c0.2-0.6,0.6-1.1,1.1-1.6c0.5-0.6,1.2-1,2-1.1
	c0.4,0,0.8,0.2,1.1,0.5c0.2,0.2,0.3,0.5,0.4,0.7C24.6,54.5,24.6,55,24,55.3z"/>
<path class="st6" d="M47.3,44.4c-0.7,0.1-1.2,0.2-1.1,1.1c0.3,0.5,0,0.7-0.4,0.8c-0.2-0.1-0.5-0.2-0.6-0.4c-0.6-1-1.3-1.9-2.1-2.7
	c-0.1-0.4-0.1-0.8,0.2-1.1c0.3-0.3,0.7-0.4,1.1-0.4c0.8,0,1.6,0.2,2.3,0.5c0.5,0.2,0.9,0.4,1.2,0.8c0.1,0.2,0.2,0.4,0.2,0.7
	C48,44.2,47.6,44.3,47.3,44.4z"/>
<path class="st7" d="M2.1,34.5l-0.5-0.1C1.2,33.9,1,33.3,1,32.7c0.3-1.5,0.2-3.2,2.3-3.5c0.2,0.2,0.4,0.5,0.5,0.8
	c0.1,1.5,0.8,3,0.1,4.6C3.3,34.9,2.6,34.8,2.1,34.5z"/>
<path class="st8" d="M58.6,36.9c-0.2,1-0.8,1.9-1.6,2.6l-0.4-0.2c-1.2-2.4-0.1-4.5,0.8-6.7c0.4-0.2,0.9-0.2,1.3,0.1
	C59.3,34,58.4,35.4,58.6,36.9z"/>
<path class="st9" d="M47.3,6.2c1.2,0.6,2.3,1.3,2.3,2.8c0.1,0.6,0,1.3-0.5,1.7c-0.2,0.1-0.5,0.2-0.7,0.1c-0.7-0.5-1.3-1.2-1.5-2.1
	c-0.1-0.2-0.2-0.5-0.3-0.7c-0.2-0.6-0.7-1.1-0.6-1.7C46.4,5.9,46.8,5.8,47.3,6.2z"/>
<path class="st10" d="M20.2,55.3c0.2,0.6,0.3,1.1,0.5,1.7c-1.2,0.7-2.6,0.9-3.9,0.4c-0.5-0.5-1.1-1-0.6-1.8c1-0.7,2.1-0.5,3.2-0.7
	C19.8,55,20,55.1,20.2,55.3z"/>
<path class="st11" d="M27.4,59.2l1.9-0.1l0.4,0.1c1.2,0.1,2.5-0.2,3.7-0.2c0.4,0.2,0.7,0.4,0.5,0.9C31.9,61.4,29,61.1,27.4,59.2
	C27.4,59.2,27.4,59.2,27.4,59.2z"/>
<path class="st12" d="M33.9,59.8l-0.6-0.6c-1.3,0.3-2.7,0.3-4,0l0.1-0.2c1.7-1.6,3.8-0.8,5.7-1c0.8,0.1,0.9,0.5,0.4,1.1L33.9,59.8z"
	/>
<path class="st13" d="M29.8,3.7l0.1,1.5c0.9,1.3,1,2.9,0.2,4.3c-0.3,0.5-0.9,0.6-1.4,0.3c-0.1-0.1-0.2-0.2-0.3-0.3
	C27.8,8.4,28,7.1,27.8,6c0-0.3,0-0.6,0-0.9c0.1-0.7,0.4-1.4,0.9-1.9L29.8,3.7z"/>
<path class="st14" d="M42.8,57.7L42.3,58c-1.1,0.4-2.4,0.5-3.5,0.2c-0.4-0.2-0.6-0.6-0.7-1c0-0.3,0.2-0.6,0.4-0.7
	c1.4-0.6,2.8-2.1,4.5-0.6C43.2,56.5,43.1,57.1,42.8,57.7z"/>
<path class="st15" d="M4.6,12.4c0-0.1,0.1-0.3,0.3-0.2c0,0,0,0,0,0c0.4,0.1,0.7,0.4,0.9,0.6c0.3,0.4,0.5,0.9,0.7,1.4
	c0.1,0.4,0.1,0.8,0,1.2c-0.1,0.4-0.4,0.7-0.8,0.9c-0.5,0.3-1,0.4-1.5,0.6c-0.6,0.1-1.1,0-1.6-0.4C2.4,14.7,3.5,13.5,4.6,12.4z"/>
<path class="st16" d="M5,37.5v-0.8c0.2-0.2,0.5-0.3,0.7-0.2c0.8,0.5,1.7,0.9,2,1.9c0,1.1,0.7,2.6-1.3,2.7c-0.4-0.6-1-0.3-1.5-0.5
	c-0.3-0.8-0.3-1.6-0.2-2.5C4.8,37.9,4.9,37.7,5,37.5z"/>
<path class="st17" d="M38.2,56.9l0.6,1.1c0.2,0.1,0.3,0.3,0.2,0.5c0,0.1-0.1,0.1-0.2,0.2c-0.9,2.1-2.3,0.4-3.5,0.4
	c0-0.4,0-0.9-0.4-1.1l-0.1-0.5C36,57.2,37.1,57,38.2,56.9z"/>
<path class="st18" d="M24,55.3l0.2-1.8c0.4-0.6,1-0.9,1.7-0.7c0.6,0.3,1.1,0.8,1.4,1.4c0.2,0.5,0.2,1.1-0.1,1.6
	c-0.4,0.4-0.8,0.7-1.3,0.8c-0.5,0-1-0.2-1.3-0.7L24,55.3z"/>
<path class="st19" d="M62,27.2c0.3,1.5-0.7,2.1-1.7,2.8c-0.3-0.3-0.5-0.7-0.5-1.1c0.1-0.7,0.3-1.4,0.6-2c0.5-1.3,0.1-2.8,0.6-4.1
	c0.2-0.4,0.4-0.8,1-0.7l0.1,1C62.4,24.4,62.4,25.9,62,27.2z"/>
<path class="st20" d="M55.7,42.2c-1,0.4-1.3,2.1-2.7,1.8c-0.3,0.2-0.7,0.3-1.1,0.2c-0.2-0.2-0.4-0.4-0.4-0.6c0-0.3,0-0.5,0.1-0.7
	c0.6-0.7,1.5-0.9,2-1.6c0.4-0.4,0.9-0.9,1.6-0.7C55.7,40.9,55.9,41.6,55.7,42.2z"/>
<path class="st21" d="M4.6,12.4c0.4,1.7-1.7,2.4-1.7,4c0.1,0.2,0,0.5-0.2,0.6c-0.1,0-0.1,0-0.2,0c-1-0.7-0.5-1.6-0.3-2.5
	C2.4,13.2,3.1,12.3,4.6,12.4z"/>
<path class="st22" d="M14.6,4c0,0.6,1.2,0.8,0.5,1.6s-0.4,2.1-1.5,2.7S12.5,8,12.3,7.4c-0.1-0.5-0.1-1.1,0-1.6
	C12.5,4.8,13.2,4.4,14,4L14.6,4z"/>
<path class="st23" d="M55.3,14.6l2.1,0.7c0.3,0.3,0.3,0.9,0,1.2c0,0,0,0,0,0c-0.8,0.4-1.8,0.3-2.6-0.2c-1.5-0.8-3.4,0.2-4.8-1.1
	c0-0.6,0.3-0.8,0.9-0.9C52.3,14.5,53.8,14.2,55.3,14.6z"/>
<path class="st24" d="M42.8,57.7l-0.1-1.9c0-0.6,0.1-1.2,0.2-1.8c0.2-0.5,0.6-0.8,1.2-0.8c0.3,0,0.5,0,0.8,0.1
	c0.4,0.2,0.6,0.5,0.7,0.9c-0.4,1.1-1.9,1.4-1.8,2.8C43.7,57.5,43.2,57.6,42.8,57.7z"/>
<path class="st25" d="M10.8,9.9c-0.9-1.7-1.9-3.4,0.8-4.3c0.1,0.1,0.2,0.1,0.3,0.2C12.2,6.4,11.7,7,12,7.5c0,0.2,0,0.5,0,0.7
	C11.7,8.9,11.6,9.7,10.8,9.9z"/>
<path class="st26" d="M1.7,22.6v-4c0.3-0.4,0-1.6,1.2-1.1c0.2,0.3,0.4,0.7,0.5,1.1c0.1,1,0.2,2.1,0.2,3.1c-0.2,0.6-0.6,0.8-1.1,1
	C2.2,22.7,1.9,22.7,1.7,22.6z"/>
<path class="st27" d="M28,2.1l0.2,0.5c0.3,0.6,0.1,1.3-0.5,1.7c-0.2,0.1-0.4,0.1-0.5,0.2c-0.5,0.1-1,0-1.4-0.2
	c-0.7-0.6-1.1-1.2-0.5-2.1C26.1,1.5,27.2,1.5,28,2.1z"/>
<path class="st28" d="M43.3,4.6L45,5.1c0.2,0.9-0.5,1.1-1,1.4c-0.5,0.2-1,0.3-1.5,0.4c-0.7,0-1.6,0.3-1.8-0.8c0-0.2,0.1-0.5,0.2-0.7
	C41.6,4.5,42.5,4.8,43.3,4.6z"/>
<path class="st29" d="M1.5,32.9c0,0.5,0,1,0,1.5c-1-0.6-1.7-1.7-1.5-2.9c0.9-0.7,0-2.1,1-2.8C2.4,30,0.9,31.6,1.5,32.9z"/>
<path class="st30" d="M57.4,16.5v-1.2c1.8,0.1,2.1,1.4,2.3,2.8c-0.3,0.3-0.7,0.4-1.1,0.2C57.9,17.9,57.2,17.4,57.4,16.5z"/>
<path class="st31" d="M24.6,55.9c0.6-0.2,0.8,0.4,1.2,0.6c0.8,0.3,1.4,1.1,1.4,2c0,0.2-0.1,0.4-0.1,0.6C25.5,59,24.4,57.6,24.6,55.9
	C24.6,56,24.6,55.9,24.6,55.9z"/>
<path class="st32" d="M20.7,0.5C23,0,25.3-0.5,27.5,1.2c-0.8,0.8-1.8,0.3-2.7,0.3C23.4,1.2,21.8,1.8,20.7,0.5z"/>
<path class="st33" d="M59.7,31c0.1,0.1,0.2,0.3,0.1,0.5c-0.4,0.9-1.3,0.9-2.2,0.9c-0.6-0.1-1-0.6-1.1-1.1c0-0.4,0.1-0.8,0.4-1.1
	c0.3-0.2,0.6-0.4,1-0.5c0.3,0,0.5,0,0.7,0.1C59.2,30.1,59.5,30.5,59.7,31z"/>
<path class="st34" d="M43.3,4.6L41,5.7c-0.9-0.6-1.2-1.3-0.5-2.2C41.7,3.2,42.4,4.2,43.3,4.6z"/>
<path class="st35" d="M5.6,13l-0.7-0.8l1-0.3c0.8-0.3,1.6-0.4,2.4-0.1c0.4,0.3,0.6,0.8,0.3,1.3c-0.3,0.4-0.8,0.6-1.2,0.7
	C6.7,13.7,6,13.4,5.6,13z"/>
<path class="st36" d="M58.6,36.9c-1.3-1.3,0.5-2.7-0.2-4.1c0.3-0.4,0.8-0.5,1.2-0.2c0,0,0.1,0.1,0.1,0.1C59,34,59.8,35.7,58.6,36.9z
	"/>
<path class="st37" d="M25.2,0.7l2.3,0.4C28,1.2,28,1.7,28,2.1h-2.7c-0.2,0-0.3-0.2-0.4-0.4c-0.1-0.2-0.1-0.4,0-0.5
	C25,1,25.1,0.8,25.2,0.7z"/>
<path class="st38" d="M3.2,43.6c-0.9-1.2-0.8-2.9,0.2-4.1c0.2-0.2,0.5-0.1,0.7,0.1c0,0,0,0,0,0c0.2,0.5,0.3,1,0.3,1.6
	c0,0.4-0.1,0.8-0.2,1.2C4.1,42.9,3.7,43.3,3.2,43.6z"/>
<path class="st39" d="M11.2,52.9l-2.6-2.1c0.1-0.2,0.3-0.4,0.5-0.5c0.4-0.3,0.9-0.4,1.4-0.3c0.7,0.3,1.1,0.9,1.4,1.6
	C12,51.8,12,52,12,52.2C11.9,52.6,11.6,52.8,11.2,52.9z"/>
<path class="st40" d="M11.2,52.9l0.5-0.5c0.6-0.4,1,0,1.4,0.4c0.4,0.5,0.7,1.2,0.7,1.9c0,0.3-0.2,0.5-0.4,0.7
	C12.2,55,11.4,54.1,11.2,52.9z"/>
<path class="st41" d="M17.3,2.2c0.6-0.6,1.4-1,2.3-1.2c0.2-0.1,0.5-0.2,0.7,0c0.2,0.2,0.3,0.4,0.3,0.7c0,0.3-0.1,0.5-0.2,0.7
	c-0.2,0.3-0.5,0.6-0.9,0.7c-0.5,0.2-1,0.2-1.5-0.1C17.7,2.9,17.4,2.6,17.3,2.2z"/>
<path class="st42" d="M3.2,43.6l0.6-1.3c0.2,0.1,0.4,0.2,0.6,0.4c0.6,0.7,0.8,1.5,0.8,2.4c-0.1,0.4-0.5,0.6-0.8,0.7
	C3.5,45.4,3.1,44.5,3.2,43.6z"/>
<path class="st43" d="M20.2,1.2l-0.6-0.1c0.2-0.6,0.6-0.6,1.1-0.5l4.5,0.2c0.1,0.2,0.1,0.3,0.1,0.5C23.8,2.2,21.8,2.2,20.2,1.2z"/>
<path class="st44" d="M8.4,11.9H5.9c1.4-1.1,2.8-1.5,4.2,0C9.6,12.3,8.9,12.3,8.4,11.9z"/>
<path class="st45" d="M50.1,11.3c0.8,0.8,0.4,1.9,0.6,2.9l-0.3,0.2c-0.6,0.3-1.2,0.3-1.8,0c-0.3-0.2-0.4-0.7-0.1-1
	c0.2-0.4,0.5-0.7,0.8-1.1C49.4,11.8,49.7,11.5,50.1,11.3z"/>
<path class="st46" d="M2.1,34.5h1.7c0.3-0.1,0.7-0.1,1-0.1c0.2,0,0.5,0,0.7,0.1c0.4,0.1,0.7,0.3,0.8,0.7c0,0.3-0.2,0.5-0.4,0.6
	c-0.4,0.1-0.8,0-1.1-0.2C3.9,35.3,2.6,35.9,2.1,34.5z"/>
<path class="st47" d="M45.7,46.2l0.5-0.7c0.7,0.8,1.3,1.8,1.6,2.9h-0.6c-0.1,0.2-0.4,0.3-0.6,0.3c-0.8-0.2-1-0.9-1.2-1.6
	c0-0.1,0-0.2,0-0.3C45.4,46.5,45.5,46.4,45.7,46.2z"/>
<path class="st48" d="M9.6,50.6l-1,0.2l-0.8-1.2c0.3-0.7-0.5-1.1-0.4-1.8c0.1-0.3,0.2-0.5,0.4-0.7c0.4-0.2,0.8-0.2,1.2,0
	c0.2,0.2,0.3,0.4,0.4,0.7C9.7,48.7,9.7,49.6,9.6,50.6z"/>
<path class="st49" d="M61.8,22l-0.6,0.6c-0.2,0.1-0.5,0-0.7-0.1c-0.6-0.8-0.8-1.8-0.8-2.8c0.1-0.2,0.2-0.5,0.4-0.6
	C61.5,19.7,61.5,20.9,61.8,22z"/>
<path class="st50" d="M43.9,6.1l1.1-1c0.9,0.1,1.7,0.5,2.3,1.1c-0.4,0-0.9,0-1.1,0.5C46,6.9,45.7,7,45.5,7C44.8,7,44.2,6.7,43.9,6.1
	z"/>
<path class="st51" d="M37.4,1.7c-1.3,1.1-2.4-0.4-3.7-0.1c-0.2-0.1-0.2-0.2-0.2-0.3c0-0.1,0.1-0.1,0.2-0.1C35,1.2,36.3,0.5,37.4,1.7
	z"/>
<path class="st52" d="M16.3,56c0.2,0.5,0.4,1,0.6,1.4c-0.9,0.1-1.8-0.3-2.3-1c-0.2-0.6,0.2-0.8,0.6-0.9C15.6,55.4,16.1,55.6,16.3,56
	z"/>
<path class="st53" d="M40.5,3.5c0.2,0.7,0.3,1.4,0.5,2.2v0.1c-0.3,0.2-0.7,0.2-1-0.1l-0.4-0.6c-0.5-0.4-1-0.9-0.7-1.6H40.5z"/>
<path class="st54" d="M14,4l-1.1,1.6c-0.2,0.3-0.7,0.4-1,0.1c-0.1,0-0.1-0.1-0.1-0.1l-0.1-0.1C11.2,3.3,13,4.3,14,4z"/>
<path class="st55" d="M50.1,11.3l-0.5,1.2c-0.7-0.4-0.7-1.1-0.6-1.7s0.4-1.1,0.6-1.6C50,9.7,50.2,10.5,50.1,11.3z"/>
<path class="st56" d="M8.4,11.9h1.8c0.1,0,0.3,0,0.4,0l0.3,0.3c0.1,0.4,0,0.8-0.2,1.1c-0.3,0.2-0.8,0.3-1.2,0.3
	c-0.4,0-0.8-0.2-1-0.5L8.4,11.9z"/>
<path class="st57" d="M55.3,14.6l-4.6,0.1c-0.2-0.1-0.3-0.4-0.2-0.6h0.2C52.2,14.4,53.8,13.7,55.3,14.6z"/>
<path class="st58" d="M2.7,17.5l-1,1.1c-0.2-1.4-0.5-2.8,0.4-4.1c0.2,0.8-0.2,1.7,0.5,2.4c0.1,0.1,0.2,0.2,0.1,0.4
	S2.7,17.5,2.7,17.5z"/>
<path class="st59" d="M33.7,1.1c0,0.1,0,0.3,0,0.4c-1,0.1-1.8,0.8-2.8,0.2C31.7,0.9,32.5,0,33.7,1.1z"/>
<path class="st60" d="M58.7,17.9l1,0.2l0.5,0.9v0.2c-0.3,0.3-0.4,0.7-0.7,0.8c-0.4,0.1-0.8,0.1-1.1-0.1c-0.4-0.3-0.7-0.8-0.6-1.3
	C58,18.2,58.3,17.9,58.7,17.9z"/>
<path class="st61" d="M55.7,42.2l-0.5-1.5c0-0.5,0.5-1,1-1c0.2,0,0.5,0.1,0.6,0.3C57.1,41.1,56.3,41.6,55.7,42.2z"/>
<path class="st62" d="M27,4c0.8,0,1.1-0.6,1.2-1.3c0.2,0.2,0.3,0.4,0.4,0.6c0,0.7,0.3,1.4-0.5,1.9c-0.4,0.3-0.9,0.3-1.3,0.1
	C26.7,4.8,26.7,4.3,27,4z"/>
<path class="st63" d="M17.3,2.2L18,2.9c0.1,0.1,0.1,0.3,0,0.4c0,0,0,0-0.1,0.1h-2.7C15.7,2.7,16.5,2.2,17.3,2.2z"/>
<path class="st64" d="M4.3,45.8L5,45.1c0.3,0,0.7,0.2,0.9,0.4c0.4,0.4,0.6,1,0.5,1.6l-0.2,0.3C5,47.5,4.5,46.8,4.3,45.8z"/>
<path class="st65" d="M51.7,43.9L53,44c-0.4,0.9-1.4,1.4-2.3,1c-0.3-0.2-0.8-0.3-0.7-0.9c0.3-0.5,0.9-0.7,1.5-0.4
	C51.5,43.8,51.6,43.8,51.7,43.9z"/>
<path class="st66" d="M50.1,44.5l0.6,0.5c-1.2,0.5-2.3-0.2-3.4-0.6l0.7-0.6c0.6-0.5,1.4-0.4,1.9,0.2C50,44.2,50,44.3,50.1,44.5z"/>
<path class="st67" d="M59.7,32.7l-1.3,0.1l-0.9-0.1l-0.2-0.2l0.2-0.2l2.3-0.7C60.5,31.9,60.4,32.3,59.7,32.7z"/>
<path class="st68" d="M10.8,9.9c0.7-0.5,0.1-1.6,1-2c0.6,0.6,0.8,1.6,0.6,2.4c-0.1,0.4-0.3,0.8-0.7,1l-0.4-0.1L10.8,9.9z"/>
<path class="st69" d="M38.8,3.5C39,4,39.7,4.4,39.5,5.1c-0.6-0.7-3-0.5-1.1-2.3L38.8,3.5z"/>
<path class="st70" d="M7.8,47.9c0.1,0.6,1,1.1,0.1,1.7c-0.7-0.7-1.6-1.2-1.8-2.2l0,0C6.9,46.7,7.4,47.2,7.8,47.9z"/>
<path class="st71" d="M62,27.2c0-1.4,0-2.8,0-4.2C62.8,24.3,62.8,25.9,62,27.2z"/>
<path class="st72" d="M1.7,22.6h0.5c0.5,0.5,0.7,1.2,0.5,1.8c0,0.3-0.2,0.5-0.3,0.7l-0.3,0.2h-1L1.7,22.6z"/>
<path class="st73" d="M59.7,31c-0.6,0-1.1-0.4-1.1-1c0.3-0.7,0.7-1.4,1.7-1.2V30L59.7,31z"/>
<path class="st74" d="M3.7,39.5H3.4c-0.2-0.9,0.4-1.8,1.3-2c0.1,0,0.1,0,0.2,0v0.8C4.6,38.8,4.9,39.9,3.7,39.5z"/>
<path class="st75" d="M4.9,35.6l1.2-0.1c0.6-0.1,0.8,0.2,0.8,0.7c-0.1,0.5-0.5,0.8-1,0.7c-0.1,0-0.3-0.1-0.4-0.1
	c-0.2,0-0.4-0.1-0.5-0.1L4.9,35.6z"/>
<path class="st76" d="M15.3,55.7c-0.2,0.2-0.5,0.5-0.8,0.7l-1.2-1l0.1-0.7c0.6-0.2,1.3,0,1.7,0.4C15.3,55.2,15.4,55.4,15.3,55.7z"/>
<path class="st77" d="M10.5,11.9l0.7-0.7v0.1c0.1,0.1,0.2,0.2,0.2,0.4c0,0.1,0,0.2-0.1,0.2c-0.1,0.2-0.4,0.2-0.6,0c0,0,0,0,0,0
	L10.5,11.9z"/>
<path class="st78" d="M56.8,40.1c-0.2,0-0.4,0-0.5-0.1c-0.1-0.1-0.2-0.3-0.1-0.4c0-0.1,0-0.2,0.1-0.2c0.2-0.1,0.4-0.1,0.6,0.1
	c0,0,0,0,0,0l0.2-0.1C56.9,39.7,56.9,39.8,56.8,40.1z"/>
<path class="st79" d="M33.7,5.7c0.6-0.3,0.8-1.2,1.7-1.1c0.3,0.4,0.4,1.1,1.1,0.6c1.7-0.1,1.2,1.4,1.7,2.2c-2.2,0.9-0.5,2.4-0.6,3.6
	c0.2,1.1,0.7,2.1,0.2,3.2c-0.4,0.4-1,0.5-1.6,0.5c-1.6,0-3.3,0.9-4.8-0.2c-0.6-0.4-0.9-1.1-0.9-1.8c0.1-0.5,0.4-1,0.8-1.4
	c0.4-0.1,0.7,0,1,0.3c0.3,0.5,1,0.7,1.5,0.4c0.1,0,0.1-0.1,0.2-0.1c0.1-0.1,0.3-0.1,0.4-0.1h0.1l-0.1-0.2c-0.3-0.3-0.5-0.6-0.6-1
	C33.8,8.9,33.8,7.3,33.7,5.7z"/>
<path class="st80" d="M37.1,10.7c-0.6-1.4-1.4-3,1.1-3.4l1.1-1.1c1-0.2,1.1,0.6,1.5,1.2c0.2,0.6,0.2,1.4-0.1,2
	c-0.8,0.9-2.2,0.7-3.1,1.6C37.5,11,37.3,10.9,37.1,10.7z"/>
<path class="st81" d="M31.5,11.3c0.1,0.4-0.1,0.9-0.5,1.1c-0.2,0.2-0.5,0.2-0.7,0.1c-0.4-0.5-0.7-1.2-0.8-1.9c0-0.4,0.1-0.8,0.3-1.2
	c0-1.4,0.1-2.9,0.1-4.3h0.5c1.1,1.3,2,2.7,1.8,4.5C32.2,10.3,32,10.9,31.5,11.3z"/>
<path class="st82" d="M33.7,5.7c1.8,1.5,0.4,3.4,0.6,5.1c-0.4,0.3-1,0.3-1.4,0c-1.1-1.3-1.3-3.1-0.3-4.5L33.7,5.7z"/>
<path class="st83" d="M32.6,6.2c-0.1,1.5,0.1,3.1,0.6,4.5C33,10.9,32.8,11,32.5,11c-0.8-0.1-0.6-1-1-1.4c0.3-1.7-0.9-3-1.1-4.5
	L32.6,6.2z"/>
<path class="st84" d="M36.6,5.1c0.2,0.6,0.5,1.5-0.4,1.4c-1.2-0.1-1.1-1.1-0.8-2C35.9,4.5,36.3,4.7,36.6,5.1z"/>
<path class="st85" d="M40.5,7.4l-1.1-1.1L40,5.7l1.1,0.1c-0.1,1.2,0.5,1,1.2,0.6c0.3,0.3,0.3,0.8,0,1.1c0,0,0,0-0.1,0.1
	C41.6,7.9,40.9,7.8,40.5,7.4z"/>
<path class="st86" d="M25.8,53l-1.6,0.5h-0.2c-0.6-1.1-0.8-2.3-0.5-3.6c0.1-0.7,0.4-1.4,0.8-1.9c1.7-0.3,2.1,1.2,2.9,2.1
	c0.4,0.4,0.8,0.9,1,1.5c0.1,0.8,0.2,1.6,0.4,2.4c0.1,0.8,0.7,1.2,1.1,1.6c0.1,0.2,0.1,0.5-0.1,0.7H27c-0.2-0.1-0.2-0.2-0.2-0.4
	s0.1-0.2,0.1-0.2v-1.6C26.6,53.7,26.5,53,25.8,53z"/>
<path class="st87" d="M29.8,55.8c-1.2,0.1-1.8-0.4-1.7-1.7c2.7-0.8,5.6,0,7.5,2.1c0,0.5-0.1,0.9-0.8,0.8h-2.8
	C31.5,56.1,30.4,56.5,29.8,55.8z"/>
<path class="st88" d="M34.9,56.9l0.6-0.6c0.6-0.8,1.7-1,2.4-0.4c0,0,0,0,0,0c0.4,0.2,0.6,0.6,0.5,1h-0.1c-1.2,1.2-1.2,1.2-3.3,0.6
	C34.9,57.3,34.9,57.1,34.9,56.9z"/>
<path class="st89" d="M27,55.8c0,0.2,0,0.4,0,0.6c0.3,0.7,0.9,1.4,0.2,2.2l-1.4-2C26,56.1,26.5,55.7,27,55.8z"/>
<path class="st90" d="M29.8,55.8c0.9,0.1,2.1-0.4,2.3,1.1c-0.8-0.1-1.7,0.3-2.3-0.6V55.8z"/>
<path class="st91" d="M45.6,54.1L45,53.5c0.3-1.2-0.3-2.9,1.4-3.6c0.3,0,0.5,0.2,0.6,0.5c0.1,0.7,0,1.4-0.2,2
	C46.5,53.1,46.3,53.8,45.6,54.1z"/>
<path class="st92" d="M46.8,52.4l-0.1-2.3c-0.4-0.5-0.4-1.2,0-1.6c0.2,0,0.4,0,0.6-0.1C47.2,49.8,47.7,51.2,46.8,52.4z"/>
<path class="st93" d="M1.5,32.9c-0.9-1.3-0.3-2.8-0.5-4.2c0.4-1.1,0.7-2.2,1.1-3.4l0.2,0.1c1.2-0.2,1.9,0.2,1.8,1.5
	c-1.2,0.5-0.6,1.6-0.8,2.4C1.9,30.1,2,31.7,1.5,32.9z"/>
<path class="st94" d="M13.4,7.9c0.9-0.5,0.3-2.1,1.7-2.2c0,0.8,0,1.6,1.1,1.7c0.3-0.3,0.8-0.3,1.2,0c0,0,0.1,0.1,0.1,0.1
	C16.2,9.5,15.7,9.5,13.4,7.9z"/>
<path class="st95" d="M17.9,5.7V4.5c0.5-0.5,1.1-0.8,1.8-0.8c0.7,0.1,0.8,0.6,0.8,1.2c-0.1,0.5-0.4,1-0.8,1.4
	c-0.2,0.1-0.5,0.2-0.8,0.2C18.4,6.6,17.8,6.5,17.9,5.7z"/>
<path class="st96" d="M17.9,5.7c0.2,0.4,0.7,0.6,1.1,0.5c0.3,0.3,0.4,0.8,0.2,1.1c-0.3,0.3-0.7,0.5-1.1,0.4
	c-0.3-0.1-0.5-0.2-0.7-0.4h-1.1C16.3,6.2,17.2,6.1,17.9,5.7z"/>
<path class="st97" d="M19.7,4c-0.4,0.6-1.1,0.5-1.7,0.5c0-0.4,0-0.8,0-1.1c0-0.2,0-0.3,0.1-0.5l1.6-0.1C20,3.1,20,3.6,19.7,4z"/>
<path class="st98" d="M24.2,49.6l-0.1,4l-1.1-0.7c-0.3-0.3-0.5-0.7-0.5-1.2c-0.1-0.9,0.3-1.7,1-2.2C23.7,49.4,24,49.5,24.2,49.6z"/>
<path class="st99" d="M20.2,55.3l-0.6-0.1c-0.3,0.3-0.8,0.3-1.1,0.1c-0.3-1.3,0.7-1.6,1.5-2.1c0.3-0.1,0.5-0.1,0.8-0.1
	c0.4,0.2,0.7,0.4,0.5,0.9L20.2,55.3z"/>
<path class="st100" d="M21.3,54.1l-0.6-0.6c-0.3-0.3-0.4-0.7-0.2-1.1c0.4-0.5,1-0.9,1.7-0.9c0.3,0,0.5,0.1,0.7,0.3
	c0,0.3,0,0.7,0,1.1L21.3,54.1z"/>
<path class="st101" d="M45.7,46.2c0,0.1-0.1,0.3-0.1,0.4c-0.2,0.9,0.2,1.9-0.3,2.8c-0.2,0.5-0.7,0.8-1.3,0.8c-0.8-0.2-1-1.6-2.1-1.2
	c-0.2,0.1-0.5,0.1-0.7,0.1c-0.2-0.1-0.4-0.3-0.5-0.6c-0.1-0.4-0.2-0.8-0.1-1.2c0.3-0.9,0.9-1.7,1.7-2.2c0.5-0.3,1.1-0.4,1.6-0.4
	c0.6,0,1.1,0.3,1.5,0.6L45.7,46.2z"/>
<path class="st102" d="M43.9,45.7h-1.7l-0.3-0.2c-0.6-0.8-1.4-1.5-2.2-2.1c-0.1-0.2-0.2-0.5-0.3-0.8c-0.1-0.7,0.2-1.4,0.8-1.8
	c0.4-0.2,0.8-0.3,1.2-0.3c0.3,0,0.6,0,0.9,0c0.3,0.1,0.6,0.2,0.8,0.3c0.5,0.3,0.6,1,0.3,1.5c0,0,0,0,0,0v0.8
	C43.8,44,44.7,44.7,43.9,45.7z"/>
<path class="st103" d="M47.8,43.4l-1.1-0.7c-0.3-0.3-0.5-0.7-0.4-1.1c0.1-0.3,0.2-0.5,0.4-0.7c0.4-0.2,0.8-0.4,1.2-0.4
	c0.9-0.2,1.8-0.2,2.6,0c0.8,0.8,0.8,2.2,0,3c0,0,0,0,0,0C49.7,43.8,48.7,43.8,47.8,43.4z"/>
<path class="st104" d="M43.4,42.4c0-0.5-0.2-1-0.7-1.3c-0.2-0.2-0.3-0.3-0.4-0.5c-0.1-0.2-0.2-0.4-0.3-0.6l0-0.4
	c0-0.2,0.1-0.4,0.3-0.6c0.3-0.4,0.8-0.6,1.3-0.5c0.6,0.1,1.2,0.3,1.7,0.7c0.6,0.5,1.2,1,1.1,1.8c-0.4,0.8-1.2,0.7-1.9,1.1L43.4,42.4
	z"/>
<path class="st105" d="M43.9,45.7c-0.2-0.8-0.3-1.6-0.5-2.4c1.4,0.2,1.6,1.4,2.1,2.4H43.9z"/>
<path class="st106" d="M44.5,42.2c0.3-0.6,1-1,1.7-1c0.3,0,0.3,0.4,0.6,0.5c0,0.3,0,0.7,0,1C45.8,43,45.2,42.3,44.5,42.2z"/>
<path class="st107" d="M47.8,43.4h2.8c0.3-0.3,0.7-0.3,1,0c0,0,0,0,0,0c0,0.2,0,0.4,0,0.5c-0.6,0.1-1.3-0.1-1.6,0.6l-2.1-0.7
	C47.9,43.7,47.9,43.6,47.8,43.4z"/>
<path class="st108" d="M4.4,34.9c-0.4,0.1-0.5-0.1-0.6-0.4c-0.4-1.5-0.6-3-0.5-4.6c0.4-0.4,0.9-0.8,1.4-1.2c0.2-0.1,0.4-0.2,0.7-0.3
	c0.4,0,0.8,0.1,1,0.4c0.2,0.7,0.2,1.5-0.1,2.2c-0.4,0.4-1,0.7-1.2,1.2C4.7,33.1,5.3,34.2,4.4,34.9z"/>
<path class="st109" d="M5,28.8c0,1.1-0.9,1.1-1.7,1.1c0-0.2,0-0.4,0-0.6c-0.2-0.8-1.5-1.3-0.9-2.3c0.1-0.2,1,0,1.5,0
	C4.5,27.4,4.9,28,5,28.8z"/>
<path class="st110" d="M56.8,39.5h-0.4C55.2,39.8,55,39,55,38.1c0-0.7-0.2-1.4-0.5-2c-0.2-0.6,1.2-1.8-0.7-1.8
	c-0.3,0-0.5-0.4-0.8-0.7c-0.3-0.4-0.6-0.9-0.7-1.4c-0.1-0.8,0-1.7,0.2-2.5c0.3-0.9-0.6-0.2-0.8-0.5c-0.2-0.1-0.5-0.2-0.6-0.4
	c0-1.2,1.1-1.4,1.8-1.9c0.7-0.1,1.4,0.1,1.9,0.5c1,0.6,1.6,1.8,1.4,3c-0.1,0.3-0.2,0.7-0.3,1c0.3-0.2,0.4-0.7,0.9-0.4l0.6,1.2
	c0,0.2,0,0.3,0,0.5C57.7,35,56.1,37.1,56.8,39.5z"/>
<path class="st111" d="M40.5,7.4h1.7h0.3c0.7,0.4,1.6,0.4,2.3,0.1c0.8-0.4,1.7-0.2,2.3,0.5c0.1,0.2,0.1,0.3,0.1,0.5
	c-0.7,1.4,0.5,1.9,1.2,2.7c0.1,0.2,0.2,0.5,0.1,0.7c-0.2,0.4-0.5,0.6-0.8,0.8c-1.8,0.4,0,2.1-1,2.7c-0.2,0.2-0.5,0.3-0.7,0.3
	c-1.3-0.2-2.4-0.9-3.7-1.2c-1.1-1.2,0.9-1.6,0.7-2.6c-0.7-0.8-2.1-0.5-2.7-1.6c-0.1-0.2,0-0.5,0.2-0.7L40.5,7.4z"/>
<path class="st112" d="M48.3,11.3c-0.9-0.7-3.7-0.7-1.1-2.8l1.3,2.2C48.6,10.9,48.6,11.1,48.3,11.3C48.4,11.3,48.3,11.3,48.3,11.3z"
	/>
<path class="st113" d="M48.3,11.3c0.1-0.2,0.1-0.4,0.2-0.6c0.2,0,0.3,0,0.5,0c0.6,0.5,0.5,1.1,0.6,1.7c-0.2,0.4-0.2,0.9-0.8,1
	c-0.4-0.4-0.6-1.1-0.4-1.6C48.4,11.6,48.4,11.4,48.3,11.3z"/>
<path class="st114" d="M47.1,8c-0.7-0.1-1.4-0.6-2.1,0c-0.2-0.2-0.3-0.5-0.3-0.7c0.1-0.4,0.4-0.7,0.9-0.5c0.2,0,0.3,0,0.5,0L47.1,8z
	"/>
<path class="st115" d="M18.6,55.1l1,0.1c-0.9,1.1-2.2,0.5-3.3,0.8l-1-0.3c-0.1-0.2-0.1-0.3-0.2-0.5C16,54.2,17.6,54.2,18.6,55.1z"/>
<path class="st116" d="M29.2,59.2h4C32,60,30.4,60,29.2,59.2z"/>
<path class="st110" d="M29.7,9.4l0.1,1.3c0,0.7,0,1.5-0.6,2c-0.9,0.5-2,0.4-2.8-0.4c-0.8-0.9,0.1-2-0.3-3c0-1.1,0.1-2.1,0.2-3.2
	c0.1-0.4,0.3-0.8,0.6-1.1h1.2c0,0.2,0,0.3-0.1,0.5C28.9,6.6,27.6,8,28.7,9C28.9,9.4,29.3,9.5,29.7,9.4z"/>
<path class="st117" d="M28.7,9c-2-0.9-0.2-2.3-0.6-3.5C29.1,6.6,28.6,7.9,28.7,9z"/>
<path class="st118" d="M38.3,56.9l-0.6-0.6c-0.2-0.4,0.1-0.7,0.4-0.9s0.6-0.3,0.9-0.5c0.5-0.6,0.5-1.4,1.3-1.8c1.2-0.3,2.3-0.3,3,1
	c0.4,0.8,0.4,1.4-0.6,1.7C41.1,55.2,40,57.1,38.3,56.9z"/>
<path class="st119" d="M5.6,15.8l0.6-0.6c0.2-0.2,0.5-0.4,0.7-0.5c0.6-0.2,1.2-0.2,1.8-0.2c3.5,1.1,0.9,2.7,0.4,4.1
	c-0.6,0.5-1.4,0.6-2.1,0.3c-0.4-0.2-0.6-0.6-0.6-1c-0.2-0.2,0.8-0.7-0.1-0.8C5.7,16.8,5.2,16.5,5.6,15.8z"/>
<path class="st120" d="M6.7,17.5v1.1c0.1,0.1,0.2,0.2,0.2,0.4c0,0.2-0.1,0.2-0.1,0.2c-1.1,0.3-1.4-0.6-1.9-1.3
	c-0.2-0.4-0.4-0.8-0.5-1.3c0-0.1,0-0.2,0-0.3c0.2-0.4,0.7-0.6,1.1-0.6c0.2,0.5,0.6,0.9,1.1,1.1c0.1,0.1,0.2,0.2,0.2,0.4
	C6.8,17.4,6.7,17.5,6.7,17.5z"/>
<path class="st121" d="M2.7,17.5v-0.6l0.2-0.5h1.6c0.3,1.3,1.1,3-1.6,2.2L2.7,17.5z"/>
<path class="st122" d="M6.7,15.2H6.1v-1.1c0.2-0.6,0.8-0.7,1.1-1.1h1.1h1.1c0.3,0.3,0.4,0.7,0.2,1c-0.2,0.2-0.4,0.3-0.6,0.4
	C8.3,14.6,7.4,14.8,6.7,15.2z"/>
<path class="st123" d="M7.2,13c0.1,0.5-0.3,1-0.9,1.1c-0.1,0-0.2,0-0.3,0c-0.4-0.2-0.6-0.7-0.6-1.1H7.2z"/>
<path class="st124" d="M6.1,40.6c2.3,0.2,0.6-1.6,1.1-2.2c0.2-0.1,0.5-0.1,0.7,0.1c0.4,0.5,0.7,1.1,0.9,1.8c0.2,1,0.3,2.1,0.7,3.1
	c0.1,0.4,0.2,0.8,0.3,1.2c0.2,0.9,0.6,1.9-0.5,2.5c-1.2-0.3-1.5-1.3-1.8-2.2C7.1,44,6.8,43.3,6,43.2c-0.4-0.2-0.6-0.5-0.7-0.9
	C5.2,41.6,5.5,41,6.1,40.6z"/>
<path class="st125" d="M6.1,40.6l-0.6,1.7c-0.3,0.5-1,0.8-1.6,0.5c0-0.2-0.1-0.4-0.2-0.5l0.1-1.2c0.3-0.3,0.7-0.5,1.1-0.5
	C5.4,40.5,5.8,39.9,6.1,40.6z"/>
<path class="st126" d="M7.8,38.3H7.2c-0.4-0.8-1.7-0.4-1.7-1.6l1.2-0.6c0.1-0.2,0.3-0.3,0.5-0.3C7.6,36,7.8,36.2,8,36.5
	c0.2,0.3,0.2,0.7,0.2,1c0,0.2-0.1,0.4-0.2,0.6L7.8,38.3z"/>
<path class="st127" d="M5,40.6c-0.2,0.4-0.7,0.6-1.1,0.5c-0.1-0.6-0.1-1.1-0.2-1.7L5,38.3C5.5,39.1,5,39.8,5,40.6z"/>
<path class="st128" d="M25.8,53c1.5-0.8,1,0.6,1.1,1.1C26.5,53.9,26.1,53.5,25.8,53z"/>
<path class="st129" d="M60.2,28.7c-0.5,0.5-0.9,1.1-1.7,1.2v-0.2c-0.5-2.9,0.9-5.8,0.2-8.8c-0.1-0.6,0.5-0.9,1-1.2l0.6-0.5
	c0.2,1.1,0.4,2.1,0.6,3.2c0.4,1.6,0.4,3.2,0,4.7L60.2,28.7z"/>
<path class="st130" d="M60.8,27.1v-4.7c0.1,0.1,0.3,0.2,0.4,0.2C61.2,24.1,61.7,25.7,60.8,27.1z"/>
<path class="st131" d="M54.6,36.1c1.2,0.1,1.3,0.9,1,1.7c-0.3,0.8-0.1,1.4,0.8,1.7c0,0.2-0.1,0.3-0.1,0.5l-1.1,0.7
	c-0.7,0-0.8,0.7-1.2,1c-0.9,0-1.7,0.4-2.1,1.2c0,0.2-0.1,0.3-0.2,0.5h-1.1c-0.1-1,0.4-2-0.5-2.8l-0.2-0.3c0.1-0.2,0.2-0.5,0.4-0.6
	c0.7-0.3,1.4-0.6,2-1c1.4,0,1.5-1,1.7-2C54.2,36.4,54.4,36.2,54.6,36.1z"/>
<path class="st132" d="M51.9,42.9c0-1.7,0.8-2,2.1-1.2C53.5,42.4,52.7,42.9,51.9,42.9z"/>
<path class="st133" d="M17.4,7.4H18c0.5,0.7,1.4,0.5,2.1,0.7s1.6-0.1,2.1,0.7c0.2,1.2-0.5,1.7-1.6,1.9c-0.7-0.1-1.5,0-2.2,0.3
	c-0.9-0.2-1.8-0.8-2.7-0.6c-1,0-1.9,0.3-2.8,0.7c-0.4,0.1-0.8,0-1.1-0.4l-0.1-2.8c0-0.2,0-0.4,0-0.5c0.3-0.3,0.7-0.3,1,0
	c0,0,0,0,0,0c0.1,0.2-0.3,1,0.6,0.6C14.8,8,16.3,9.4,17.4,7.4z"/>
<path class="st68" d="M12.9,7.3h-1.1c-0.7-0.5,0.6-1.2-0.1-1.7h1.1L12.9,7.3z"/>
<path class="st134" d="M58.7,17.9L58,18.7c-0.3,0.7,0.3,1.9-0.7,2.1s-1.5-0.8-2-1.6c-0.5-0.8-0.8-1.7-0.9-2.6c0-0.4,0.4-0.7,0.8-0.8
	l2.2,0.7L58.7,17.9z"/>
<path class="st57" d="M55.2,15.8l-0.6,0.6c-0.2,0.2-0.4,0.3-0.7,0.3c-1-0.1-2-0.3-3-0.4c-0.2-0.1-0.5-0.2-0.7-0.3
	c-0.1-0.1-0.2-0.3-0.2-0.4c0-0.2,0.1-0.2,0.1-0.2C51.8,15.4,53.6,14.6,55.2,15.8z"/>
<path class="st135" d="M50.1,15.4c0,0.1,0,0.3,0,0.4c-0.2,0.3-0.6,0.4-1,0.3c-0.5-0.2-0.8-0.5-1-1c-0.1-0.2-0.1-0.5,0-0.7l0.3-0.2h2
	l0.2,0.6L50.1,15.4z"/>
<path class="st136" d="M43.3,54.1c-1-0.5-2.2-0.7-3.4-0.6c-0.2,0.2-0.5,0.2-0.7,0.1c-0.6-0.6-0.9-1.3-1-2.1c-0.1-0.7,0.1-1.4-0.5-2
	c-0.2-0.2-0.3-0.4-0.4-0.6c-0.1-0.2-0.1-0.5,0-0.7c0.1-0.2,0.3-0.4,0.5-0.5c0.4-0.2,0.8-0.2,1.2-0.1c0.2,0.1,0.5,0.2,0.7,0.3
	c0.5,0.4,0.9,0.9,1.2,1.4c-0.1,2.5,1.5,2.1,3.1,1.8c0.4,0.3,0.7,0.8,0.9,1.3c0.1,0.4,0,0.8-0.3,1.1C44,53.5,43.6,53.7,43.3,54.1z"/>
<path class="st137" d="M44.5,53.5v-1.1c-0.6-1.1,0.1-1.9,0.6-2.8c0.1-1-0.3-2.1,0.6-2.9l0,0c0,1.2,1,2.2,0.5,3.4
	c-0.9,1,0.3,2.6-1.2,3.4L44.5,53.5L44.5,53.5z"/>
<path class="st15" d="M2.8,18.6c1.8,0.2,1.6-1.1,1.6-2.2C4.8,16.6,5.1,17,5,17.5c0.2,1.3,1.3,2.3,1.6,3.7c0,0.3-0.1,0.5-0.2,0.8
	c-0.8,1.1-1.7,1.9-3.1,0.8c-0.2-0.2-0.2-0.5-0.1-0.8C2.6,21,2.5,19.7,2.8,18.6z"/>
<path class="st138" d="M3.2,22l0.2,0.5c0.1,1.1,0.2,2-1.2,2.3v-2.3C2.4,22.2,2.8,22,3.2,22z"/>
<path class="st139" d="M21.9,8.5c-0.6,0.1-1.1,0.9-1.7,0c-0.3-0.4-0.9-0.6-1.1-1.1V6.2h0.6c0.5-0.5,1.1-0.9,1.6-1.4
	c0.5-0.3,1.1-0.5,1.7-0.6c1,0,1.9-0.1,2.8-0.3H27v2.2C25.7,7.9,24.2,9.1,21.9,8.5z"/>
<path class="st140" d="M25.9,4c-0.7,1.5-1.7,1.2-2.8,0.6c-0.2-0.2-0.2-0.5-0.2-0.7c0.2-0.9,0.7-1.7,1.4-2.3c0.4-0.1,0.8-0.1,1.1,0.2
	c0.1,0.1,0.1,0.2,0.1,0.4L25.9,4z"/>
<path class="st141" d="M45.6,6.7L45,7.4c-0.8,0.7-2,0.7-2.8,0l0,0c0-0.3,0-0.6,0-0.9l1.7-0.3C44.5,6.2,45.2,6.1,45.6,6.7z"/>
<path class="st142" d="M56.8,31c-0.2,0.4-0.4,0.8-0.6,1.2c-0.2,0.6-0.4,1.1-1.1,0.9c-0.7-0.2-0.7-0.9-0.2-1.3
	c1.5-1.6,0.5-2.8-0.4-4.1c-0.5-0.5-0.9-1-1.7-0.6c0.1,1.2-1.3,1-1.7,1.7c-0.7,0.6-1.6,0.8-2.5,0.4c-2.3-2.2-3.4-4.9-2.7-7.1
	c1.1-0.7,2.6-0.7,3.7,0c2,1,4,1.6,6.3,1c1.6-0.4,1.3,1.1,1.3,2c-0.3,1.2-0.1,2.4,0.5,3.5c0.2,0.7,0,1.4-0.4,1.9L56.8,31z"/>
<path class="st143" d="M57.4,30.4v-2.2c-0.2-0.2-0.3-0.4-0.2-0.7c0.4-0.7,0.1-1.7,0.9-2.3c0.8-1.1,0-2.1-0.1-3.1
	c-0.2-0.8,0-1.7,0.6-2.3h1.1c-0.8,2.7,0.7,5.5-0.5,8.2c-0.2,0.6-0.4,1.2-0.6,1.8L57.4,30.4z"/>
<path class="st144" d="M25.3,1.7h-1.1c-1.1,1-2.8,1-3.9,0c0-0.2,0-0.3,0-0.5h5C25.3,1.4,25.3,1.6,25.3,1.7z"/>
<path class="st145" d="M11.8,51.8l-1.1-1.6c-0.1-0.1-0.2-0.3-0.2-0.4c0-0.2,0-0.2,0.1-0.2c0.2-0.2,0.4-0.3,0.7-0.3
	c0.4-0.1,0.8,0,1.1,0.1c0.7,0.3,1.3,0.7,1.4,1.6c0,0.2-0.1,0.5-0.3,0.6C13,51.8,12.4,51.9,11.8,51.8z"/>
<path class="st146" d="M10.6,49.7c0,0.2,0,0.4,0,0.5l-1,0.4c-0.9-0.7-0.7-1.7-0.6-2.7c0.5-0.2,1.1-0.1,1.5,0.3
	C10.9,48.7,11.1,49.1,10.6,49.7z"/>
<path class="st147" d="M11.8,51.8c0.4-0.6,1.1-0.5,1.7-0.5c0.3,0.8,0.7,1.7-0.7,1.8l-1-0.6L11.8,51.8z"/>
<path class="st145" d="M12.7,53c0.8-0.4,0.2-1.3,0.7-1.8l0,0c2.1-0.3,3.8,0.8,5.5,1.7c0.5,0,1,0.2,1.3,0.6l-1.7,1.6l-3.4,0.1
	c-0.7,0.1-1.1-0.4-1.7-0.6L12.7,53z"/>
<path class="st148" d="M20.3,1.7h3.9c0,0.9-0.5,1.7-1.2,2.3c-1.6,0.4-2.6-0.1-2.9-1.8C20.1,2,20.2,1.8,20.3,1.7z"/>
<path class="st149" d="M20.1,2.1L23,4v0.6c-0.4,0.7-1.1,0.5-1.7,0.6c-0.3,0.3-0.8,0.3-1.1,0c0,0,0,0,0,0C20.2,4.7,20,4.2,19.6,4
	l-0.1-1.2L20.1,2.1z"/>
<path class="st150" d="M4,42.8l1.6-0.5l0.6,0.6c0.4,0.4,0.6,1,0.4,1.6c-0.1,0.6-0.5,1-1,1.3L5,45.1L4,42.8z"/>
<path class="st151" d="M48.5,11.8c0.7,0.4,0.4,1.1,0.4,1.6l-0.4,0.7l-0.2-0.1c-0.2,0.2-0.5,0.1-0.7-0.1c0,0,0,0,0,0
	c-0.3-0.5-0.2-1.1,0.2-1.5L48.5,11.8z"/>
<path class="st152" d="M4.4,34.9c0.3-0.9-0.5-1.8,0-2.8c0.2-0.2,0.4-0.2,0.7-0.1c0.8,1.1,2.4,0.3,3.3,1.3c0.1,0.5-0.1,1.1-0.6,1.3
	c-0.9,0.6-1.9-0.4-2.8,0.2L4.4,34.9z"/>
<path class="st153" d="M7.3,36.2H7H6.7l-0.6-0.7c0-0.1,0-0.3,0-0.4c0.8-0.5,1.8-0.6,2.7-0.3c0.2,0.2,0.4,0.5,0.4,0.8
	C8.8,36.7,8.1,36.5,7.3,36.2z"/>
<path class="st154" d="M8.9,34.9L6.1,35L5,34.8c0.8-0.8,1.9-0.3,2.8-0.5C8.3,34,9,34,9.4,34.3C9.7,34.8,9.6,35,8.9,34.9z"/>
<path class="st155" d="M46.2,50.2c-0.2-1.2-0.8-2.2-0.5-3.4c1.1,0.2,0.2,1.5,1,1.8c0,0.5,0,1.1,0,1.6L46.2,50.2L46.2,50.2z"/>
<path class="st156" d="M10.1,48.5L9,47.9c-0.1-0.2-0.1-0.3-0.1-0.5c-0.1-0.1-0.2-0.3-0.1-0.4c0.1-0.1,0.1-0.2,0.2-0.2
	c1-0.8,0.3-1.5,0-2.3c1.4-1.1,2.5-0.2,3.5,0.7c0.7,0.8,2,1.1,1.8,2.6c-0.6,0.7-1.2,1.3-1.9,1.8h-1.1C10.7,49.4,11.3,48,10.1,48.5z"
	/>
<path class="st157" d="M8.9,46.8v0.6H7.8c-0.7-0.9-1.3-1.8-1.7-2.9v-1.7c0.8-0.3,1.7-0.8,1.7,0.6C7.9,44.7,8.3,45.8,8.9,46.8z"/>
<path class="st158" d="M6.1,44.5c1.7,0.3,1.6,1.7,1.7,2.9c0,0.2,0,0.3,0,0.5l-1.7-0.5l-0.6-1.7C5.5,45.2,5.7,44.8,6.1,44.5z"/>
<path class="st159" d="M10.7,11.8h0.6c0.8-0.5,1.4,0,1.8,0.6c0.2,0.5,0.2,1.1-0.2,1.6c-0.5,0.5-1.4,0.6-1.9,0
	c-0.3-0.3-0.4-0.7-0.4-1.2L10.7,11.8z"/>
<path class="st160" d="M10.7,13l0.4,0.6c-0.2,0.6-0.2,1.3-1,1.3c-0.5,0-0.8-0.2-0.7-0.8V13L10.7,13z"/>
<path class="st161" d="M58.6,19.7v2.8c0.4,0.9,0.4,1.9,0,2.8c-1,0.5,0.3,2-1.1,2.2c-0.3-0.7-0.5-1.5-0.6-2.2c-0.3-0.6,1-2.7-1.5-1.3
	c-1,0.6-3-0.3-4.5-0.8c-1.5-0.7-3.1-1.1-4.7-1.3l-0.3-0.3c-0.1-1.8,0.9-3.2,1.2-4.9c0.3-0.6,1-0.9,1.7-0.7c0.6,0.3,1,0.7,1.6,1
	c0.2,0.1,0.4,0.3,0.5,0.5c0.2,0.6,0.2,1.2-0.2,1.7c0.5-0.6,0.3-1.4,0.9-1.9c0.3-0.2,0.7-0.2,1-0.1c0.3,0,0.7,1,0.9,0
	c0-0.3,0.2-0.6,0.4-0.8h0.6c1,0.4,0.5,1.6,1.1,2.3c0.4,0.5,0.6,1.6,1.3,1.6c0.8,0,0.1-1.4,1-1.6C58.2,19,58.4,19.4,58.6,19.7z"/>
<path class="st162" d="M12.8,12.6c-0.4-0.3-0.7-1-1.4-0.8c0-0.2-0.1-0.3-0.2-0.5l0.6-0.6h1.1C14.5,11.5,13.6,12,12.8,12.6z"/>
<path class="st108" d="M2.2,24.9l1.2-2.3c1.1,0.6,1.8-0.5,2.7-0.6c1.1,2.5,0.2,4.7-1.1,6.8l0,0c-0.7-0.3-1.2-0.9-1.1-1.7
	c0-1.1-0.9-1.2-1.6-1.6L2.2,24.9z"/>
<path class="st163" d="M36,14.1h1.7c0.2-0.2,0.3-0.3,0.4-0.5c0.3-0.5,0.8-0.9,1.4-0.9c0.2,0,0.5,0.1,0.7,0.2
	c0.6,0.5,1.3,0.7,1.7,1.4c-0.7,2.1-2.4,2.2-4.2,2.1c-0.7-0.5-1.7-0.1-2.5-0.7C34.9,14.9,35.4,14.5,36,14.1z"/>
<path class="st164" d="M36,14.1l-0.6,1.7c0.2,0.5-0.1,0.8-0.5,1c-0.5,0.2-1.1,0.2-1.7,0c-0.9-0.4-1.8-0.8-2-1.9
	c0-0.3,0.1-0.5,0.3-0.7C33,14.5,34.6,14.5,36,14.1z"/>
<path class="st111" d="M38.3,14.1h-0.6c-0.2-1.1-0.8-2.2-0.6-3.4h0.6c0.5,0.3,0.8,0.8,1,1.3C38.8,12.8,38.6,13.5,38.3,14.1z"/>
<path class="st164" d="M34.3,11.9c0,0.6-0.4,1.1-1,1.1c-0.1,0-0.2,0-0.3,0c-0.7,0-0.9-0.5-1-1.1c0.3-0.3,0.7-0.5,1.1-0.5
	C33.6,11.3,34,11.5,34.3,11.9z"/>
<path class="st165" d="M34.3,11.9h-1.1c-0.3-0.3-0.9-0.5-0.6-1.1h1.7c0.4,0.2,0.6,0.7,0.6,1.1C34.9,11.9,34.3,11.9,34.3,11.9z"/>
<path class="st166" d="M32.6,10.7l0.6,1.1h-1.1l-0.6-0.6V9.6L32.6,10.7z"/>
<path class="st167" d="M34.9,11.9c0.5,0.1,1.1-0.2,1.4,0.5c0,0.1-0.3,0.5-0.4,0.5C35.1,13,35,12.4,34.9,11.9L34.9,11.9z"/>
<path class="st168" d="M31.5,14.1l-0.1,0.7c-1.1,0.4-1.4-0.3-1.6-1.2c0-0.5,0.2-1,0.7-1.2c0.1,0,0.3,0,0.4,0
	C31.2,13,31.3,13.6,31.5,14.1z"/>
<path class="st79" d="M38.3,11.9c-0.4-0.2-0.6-0.7-0.6-1.1c0.5-1.4,1.6-1.4,2.8-1.1v0.6c0.2,0.2,0.3,0.5,0.2,0.7
	c-0.2,0.8-0.9,1.4-1.8,1.4C38.7,12.2,38.5,12,38.3,11.9z"/>
<path class="st169" d="M30.5,12.4l-0.1,1.1c-0.3,0.3-0.8,0.4-1.2,0.1c-0.3-0.4-0.3-0.8-0.1-1.2c0.2-0.6,0-1.4,0.7-1.8
	C30.5,11.1,30.3,11.8,30.5,12.4z"/>
<path class="st136" d="M27,50.7l-2.1-2.8c-0.2-0.1-0.3-0.4-0.3-0.6c0.4-1.1,0.5-2.3,1.7-2.9c0.5,0,1,0.2,1.4,0.5
	c0.6,0.5,1.5,0.8,2.3,0.6c2.8,0.7,5.1,2.6,7.8,3.6l0,0c0.3,2.4-1.6,1.6-2.8,1.9c-1.1-0.1-2.3,0.1-3.2,0.7c-0.3,0.1-0.5,0.2-0.8,0.2
	c-0.7,0.1-1.4-0.1-1.9-0.6c-0.4-0.5-0.5-1.3-1.2-1.6C27.1,49.7,27.5,50.5,27,50.7z"/>
<path class="st90" d="M38.3,55.8l-0.6,0.5c-0.8-0.5-1.5,0-2.3,0c-2.2-1.7-4.9-1.6-7.3-2.3c0.2-0.8-1-1.5,0-2.2c0.9,1.6,2,0.2,3,0.2
	c1.4,0.1,2.6,1,4,0.8c1.4,0,2.8,0.1,3.4,1.7C38.7,54.9,38.6,55.4,38.3,55.8z"/>
<path class="st170" d="M30.9,52.4c-1.2,1.2-2.1,0.8-2.8-0.6L27,50.7c0.3-0.5-0.5-1.4,0.6-1.7c0.1,1,1.3,1,1.7,1.7s1.1,0.5,1.7,0.6
	c0.3,0.3,0.3,0.8,0.1,1.1C31,52.3,31,52.4,30.9,52.4z"/>
<path class="st171" d="M24.8,47.3c0,0.2,0,0.4,0.1,0.6c-0.1,0.6,0,1.3-0.7,1.7h-0.5c-1-1-0.7-1.9,0.2-2.8
	C24.4,46.7,24.8,46.6,24.8,47.3z"/>
<path class="st172" d="M20.2,5.1h1.1c-0.1,1.1-0.9,1.1-1.7,1.1C19.6,5.8,19.8,5.3,20.2,5.1z"/>
<path class="st173" d="M19.1,7.4c0.5-0.1,1.1,0.3,1.1,0.9c0,0.1,0,0.2,0,0.3c-0.9-0.1-2.1,0.4-2.3-1.1H19.1z"/>
<path class="st174" d="M24.3,46.7c-0.6,0.8-0.8,1.9-0.6,2.9C23.2,50.3,23,51,23,51.8h-0.5c-0.8-0.5-1.2-1.5-1-2.4
	c0.1-0.8,0.5-1.6-0.4-2.2c-0.2-0.1-0.4-0.3-0.5-0.5c-0.3-0.4-0.5-0.9-0.6-1.4c0.1-0.5,0.4-1,0.9-1.2c1.8-0.7,2.5,0.5,3.1,1.9
	C24.2,46.3,24.3,46.5,24.3,46.7z"/>
<path class="st175" d="M20.2,53.5h-1.7c-0.5-0.8-0.3-1.9,0.5-2.4c0.3-0.2,0.6-0.2,0.9-0.2c0.9,0.2,1.5,0.5,0.9,1.6
	c0,0.4,0,0.8,0,1.1L20.2,53.5z"/>
<path class="st176" d="M20.8,52.4c0.1-0.5-0.3-1.1-0.8-1.1c-0.1,0-0.2,0-0.3,0c-0.7-0.8-0.2-1.7-0.4-2.6c0.2-0.9,0.2-2,1.5-1.9l0,0
	c0.7,0.5,1.1,1.4,1.1,2.3l0.6,2.8L20.8,52.4z"/>
<path class="st177" d="M43.9,51.3c-1,0-1.3,1.9-2.6,0.9c-1.2-0.9-1-2-0.8-3.2c0.1-0.2,0.3-0.2,0.5-0.1c0,0,0.1,0.1,0.1,0.1l0,0
	c0.2,0.2,0.3,0.4,0.6,0.4c0.1,0,0.1-0.3,0-0.4c0.1-0.6,0.3-1.2,1-1c1,0.3,1.2,1.2,1.3,2.1C44.2,50.4,44.3,50.9,43.9,51.3
	C44,51.2,43.9,51.3,43.9,51.3z"/>
<path class="st178" d="M42.2,45.7l-1.1,2.2c-0.5,0.5-1.2,0.5-1.7,0l0,0c-0.7-0.8-0.2-1.5,0.2-2.2c0.2-0.2,0.4-0.4,0.7-0.5
	C41,45,41.7,45.2,42.2,45.7z"/>
<path class="st179" d="M41.6,49c1,0.1,1.3,0.6,0.8,1.5c-0.1,0.2-0.7,0.5-0.9,0.4c-0.9-0.4-0.4-1.3-0.5-2L41.6,49z"/>
<path class="st180" d="M43.9,51.3v-1.1l1.1-0.6c-0.2,0.9-0.4,1.9-0.6,2.8C44.1,52.2,43.9,51.7,43.9,51.3z"/>
<path class="st181" d="M39.4,47.9h1.7V49h-0.6c-0.5,0.1-1.1-0.3-1.1-0.9C39.4,48.1,39.4,48,39.4,47.9z"/>
<path class="st182" d="M40.5,41.1c-0.7,0.4-0.6,1.1-0.6,1.7c-0.9,1.5-3.7,1.2-3.6,3.8c-2.5,0.9-3.7,0.1-3.4-2.5
	c0-0.3-0.3-0.4-0.4-0.6c-0.1-0.5,0-1,0.2-1.4c0.2-0.3,0.5-0.6,0.9-0.7c1.7-0.2,2.7-1.6,3.9-2.6c0.9-0.5,1.6-0.1,2.3,0.4
	c0.2,0,0.4,0,0.7,0.1c0.3,0.1,0.5,0.4,0.7,0.7c0.1,0.2,0.1,0.4,0.1,0.6C41.1,40.8,40.8,40.9,40.5,41.1z"/>
<path class="st183" d="M36,46.8c-0.9-3.6,2-3.3,4-3.9v0.6c0.6,0.6,0.6,1.6,0,2.3l0,0c-1.2,0.3-1.6,1.4-2.2,2.2l0,0
	C36.6,48.3,35.6,48.6,36,46.8z"/>
<path class="st184" d="M40,45.7v-2.3c1.7-0.1,2.1,1,2.3,2.3L40,45.7z"/>
<path class="st185" d="M40.5,41.1l0.5-0.5c0.1-0.2,0.4-0.3,0.6-0.2c0.2,0.2,0.2,0.4,0.2,0.6L40.5,41.1z"/>
<path class="st186" d="M41.8,41.1l-0.3-0.5c-0.1-0.2,0-0.4,0.1-0.6c0.2-0.2,0.4-0.2,0.6,0l0,0c0.2,0.1,0.3,0.3,0.3,0.5
	c0.1,0.2,0,0.4-0.2,0.4c0,0,0,0-0.1,0L41.8,41.1z"/>
<path class="st187" d="M42.2,40.9v-0.2c0.2-0.3,0.3-0.3,0.6-0.1c0,0.2,0,0.3,0,0.5C42.6,41.2,42.4,41.1,42.2,40.9z"/>
<path class="st188" d="M45,39.5l-1.7-0.6c-0.2-0.2-0.3-0.5-0.4-0.8c0.4-2.5-0.3-5.3,2.2-7.2c2.2,1.2,2.1,2.8,1,4.6
	c-1,0.4-0.7-0.5-0.9-0.9c0.1,0.8-0.4,1.9,0.7,2.4c0.4,0.1,0.7,0.3,1.1,0.4c0.8,0.6,1.3,1.5,1.3,2.6c0,0.4-0.2,0.8-0.5,1.2h-1.1
	C46.3,40.4,45.7,39.9,45,39.5z"/>
<path class="st189" d="M47.8,41.1V40c0.6-0.6,1.6-0.6,2.2,0c0,0,0,0,0,0c0,0.2,0,0.4,0,0.6C49.5,41.4,48.6,41.1,47.8,41.1z"/>
<path class="st190" d="M45,39.5c0.9-0.1,1.6,0.6,1.7,1.4c0,0.1,0,0.2,0,0.2v0.5l-0.6-0.5L45,39.5z"/>
<path class="st191" d="M43.3,38.3c0,0.2,0,0.4,0,0.6l-1.2,0.6c-0.2,0.1-0.4,0.2-0.6,0.1c-0.3-0.1-0.6-0.3-0.8-0.6
	c-0.3-0.2-0.5-0.5-0.7-0.8c-0.3-0.4-0.2-1,0.2-1.4c0.8-0.5,1.1-1.9,2.3-1.4S42.5,37.5,43.3,38.3z"/>
<path class="st192" d="M42.7,40.7h-0.3l-0.3,0.1v-0.7C42.4,40.2,42.5,40.4,42.7,40.7z"/>
<path class="st193" d="M41.7,39.3c0.2,0.1,0.3,0.1,0.5,0.2c0,0.2,0,0.4,0,0.6h-0.6l-0.2-0.2c0-0.1,0-0.2,0-0.3L41.7,39.3z"/>
<path class="st194" d="M5,28.8c0.4-2.2,0.8-4.5,1.1-6.8v-0.6c0.1-0.1,0.1-0.2,0.2-0.2c0.9-0.9,1.8,0.1,1.6,0.5
	c-0.8,2,3.4,3.4,1.1,4.8c-1.5,0.9-0.5,2-1.3,2.5c-0.5,0.3-1.1,0.2-1.5-0.2L5,28.8z"/>
<path class="st195" d="M6.1,28.8h1.7c0.8-0.3,1,0.5,1.5,0.9c0.3,0.3,0.4,0.7,0.5,1.1c0,0.3-0.2,0.5-0.4,0.7
	c-0.2,0.1-0.5,0.2-0.8,0.3c-0.8,0.2-1.7,0-2.4-0.6C5.6,30.3,6.1,29.5,6.1,28.8z"/>
<path class="st196" d="M6.1,31h2.8c0.3,0.4,0.3,0.9,0,1.3c-0.4,0.3-0.8,0.4-1.3,0.4c-0.9,0-1.9,0.2-2.7-0.6H4.4
	C4.5,31,5.3,31,6.1,31z"/>
<path class="st197" d="M45.6,35.5c1.1-1.7,0.7-3.1-0.6-4.5c-0.6-0.6-0.7-1.5-0.2-2.2c0.2-0.2,0.5-0.4,0.8-0.5c1-0.3,2-0.1,2.8,0.5
	h3.4c0.1,1.2-0.5,2.7,1.1,3.4c0,0.5,0.2,0.9,0.6,1.1c-0.4,1.4-1.5,2.5-2,4c-0.2,0.9-1.9,0.2-2.7-0.2c-1.1-0.6-1.6-0.1-2.1,0.7h-1.1
	C45,37.1,45,36.1,45.6,35.5z"/>
<path class="st198" d="M46.7,37.8c-0.3-2.6,1.1-1.7,2.5-1.3c0.7,0.2,3.2,2.8,1.8-1.1c-0.6-1.7,1.9-1,2.4-2.1c0.5,0.9,2.8,1,1.1,2.8
	v0.6c-1,0.6-1.5,1.8-2.6,2.3c-0.2,0.1-0.4,0.2-0.7,0.2c-0.3,0-0.7-0.5-0.9,0.2c0,0.3-0.2,0.6-0.4,0.8h-2.2
	C47.8,39.2,47.4,38.3,46.7,37.8z"/>
<path class="st198" d="M52.9,32.1c-2.8-0.3-2.9-0.6-1.1-3.4c0.5,0.4,3.1-1,1.2,1.5C52.7,30.7,52.9,31.5,52.9,32.1z"/>
<path class="st199" d="M52.9,27.1c0.1-1.2,1.1-0.5,1.5-0.5c0.7,0,0.2,0.7,0.2,1L52.9,27.1z"/>
<path class="st200" d="M37.7,15.8c1.5,0,2.9-0.6,4-1.7c0.1-0.2,0.4-0.2,0.5-0.1c0,0,0,0,0.1,0.1c1.5-0.4,2.7,0.6,3.9,1.1
	c0.2,0.2,0.3,0.4,0.3,0.7c0,0.3-0.2,0.5-0.4,0.7c-0.5,0.3-1,0.2-1.4-0.1c-0.2-0.1-0.3-0.2-0.2-0.4c-0.1,0.2-0.1,0.3,0.1,0.4
	c-0.1,0.7-0.4,1.4-0.9,1.9c-0.4,0.4-0.9,0.7-1.4,0.8c-1.5,0-2.9,1.5-4.5,0.7c-0.5-0.5-0.9-1.2-1-1.9C36.6,17.1,36.6,16.2,37.7,15.8z
	"/>
<path class="st201" d="M42.2,14.1h-0.6c-0.8,0-1.7,0-1.7-1.1c0.5-0.7,1.2-1.2,1.9-1.5c0.7-0.2,1.5-0.1,2,0.4
	c0.6,0.5,0.5,0.9-0.3,1.1C43,13.1,42.5,13.5,42.2,14.1z"/>
<path class="st200" d="M47.8,12.4v1.7c-0.1,0.6-0.1,1.4-1.1,1.1c0-0.5-0.1-0.9-0.3-1.3c-0.3-0.5-1.2-0.9-0.6-1.6
	S47.2,12.2,47.8,12.4z"/>
<path class="st202" d="M43.9,11.9h-2.2c-1.2,0.4-1.6,0.1-1.1-1.1v-0.5C41.4,11.2,43.5,9.9,43.9,11.9z"/>
<path class="st203" d="M42.2,7.4H45c0,0.2,0,0.4,0,0.6C43.9,8.9,43,8.6,42.2,7.4z"/>
<path class="st204" d="M46.7,15.2l1.1-1.1l0.5-0.1c0.1,0.2,0.1,0.4,0,0.6c-0.2,1.3-0.7,2-2.1,1.3v-0.7
	C46.4,15.2,46.5,15.2,46.7,15.2z"/>
<path class="st205" d="M29.1,12.4l0.1,1.1c0,0.4-0.3,0.8-0.7,1c-0.6,0.2-1.3,0.3-2,0.1c-1-0.3-2-0.4-3-0.2c0,0-1.5-0.5-0.3,0.5
	c-0.2,1-1.1,1.1-1.8,1.3c-0.4,0.1-0.8-0.1-1.2-0.3c0-1-1.2-1.9-0.5-3c0.8-0.6,1.8-0.5,2.7-0.8c1.1-0.2,2.2-0.3,3.3-0.4
	c0.3,0,0.5,0.1,0.8,0.2C27.3,12.4,28.2,12.5,29.1,12.4z"/>
<path class="st206" d="M21.9,8.5L27,6.2c0.2,1.2,0,2.3-0.6,3.4c-0.5,0.6-1.2,1.2-1.9,1.5c-1,0.3-2,0.4-3,0.3c-0.4,0-0.9-0.2-1.2-0.5
	c-0.2-0.2-0.3-0.5-0.1-0.8c0,0,0,0,0,0c0.9,0,1.6-0.6,1.7-1.5C21.9,8.6,21.9,8.5,21.9,8.5z"/>
<path class="st207" d="M24.7,10.7c0-1.1,0.9-1.1,1.7-1.1c2.3,0.8-0.7,1.5,0,2.3h-0.6h-0.4C25,11.6,24.5,11.4,24.7,10.7z"/>
<path class="st90" d="M39.4,53.5h0.6c-0.1,0.8,0.3,1.7-0.6,2.3c-0.5-0.7-1.1-1.3-0.7-2.2C38.9,53.4,39.2,53.4,39.4,53.5z"/>
<path class="st208" d="M38.8,53.5c0.2,0.8,0.4,1.5,0.6,2.3h-1.1c0-0.4,0-0.8,0-1.1C37.9,54,37.9,53.5,38.8,53.5z"/>
<path class="st209" d="M9.5,14.1c1,1.1,1.1-0.4,1.6-0.5c0.5,0.6,1.2,0.5,1.8,0.6l0.2,0.3c0.1,0.7-0.1,1.4-0.4,2
	c-0.3,0.7-0.1,1.4-0.3,2c-0.4,0.5-1,0.8-1.7,0.7c-0.5,0-1.1-0.1-1.5-0.3l-0.3-0.3c-0.1-0.7,0.1-1.5,0.4-2.1c1.2-1.6-0.4-1-1-1.2
	C8,14.5,7.9,14,8.9,14.1L9.5,14.1z"/>
<path class="st210" d="M6.7,19.2v-0.6h2.3c0.5,0.8,0.1,1.3-0.6,1.5S6.8,20.3,6.7,19.2z"/>
<path class="st211" d="M8.9,14.1c-0.4,0.2-0.6,0.7-0.6,1.1H6.7C7.4,14.9,7.5,13.2,8.9,14.1z"/>
<path class="st212" d="M6.7,17.5c0-0.2,0-0.4,0-0.5c0.2-0.4,0.8-0.6,1.2-0.4C8,16.6,8.1,16.8,8.1,17C7.9,17.7,7.2,17.4,6.7,17.5z"/>
<path class="st213" d="M6.7,19.2c1,0.8,1.9,1,2.3-0.6h1.7c0.3,0.3,0.7,0.4,1.1,0.7c1.5,1.6,2.2,3.8,1.7,6c-0.3,1.7-0.8,3.3-1.5,4.8
	c-0.1,0.4-0.4,0.8-0.7,1.1c-0.5,0.3-1.2,0.2-1.7-0.2v-0.6c0-0.4-0.2-0.5-0.6-0.6l-1.1-1.1c-0.1-0.2-0.2-0.3-0.3-0.5
	c-0.6-0.7-1.3-1.5-0.6-2.5s1.3,0.8,2.3,0.3C9,25.6,9,24.8,8.7,24.7c-1.3-0.3-1.5-0.9-1-2.1c0.2-0.5-0.1-1.1-0.6-1.3
	c-0.3-0.1-0.6-0.1-0.9,0.1C5.6,20.1,4.6,19,5,17.5L6.7,19.2z"/>
<path class="st214" d="M12.3,45.7c-1.2-0.3-2-1.6-3.4-1.1v-1.2c0.4-0.7-0.3-1.6,0.4-2.3c1-0.3,1.4,0.5,2,0.9c0.5,0.7,1.2,0.7,1.9,1
	c1.1,0.3,2.1,0.8,1.8,2.3C14.3,45.9,13.2,46,12.3,45.7z"/>
<path class="st215" d="M8.4,40c-0.7-0.4-0.5-1.1-0.6-1.7l0,0c0.5-0.3,1-0.4,1.5-0.8c0.2-0.1,0.4-0.2,0.7-0.3c0.6-0.2,1.3,0,1.8,0.5
	c0,1.5-1.2,2-2.3,2.6C9.1,40.5,8.7,40.3,8.4,40z"/>
<path class="st216" d="M8.4,40h1.1c0.3,0.3,0.3,0.7,0.1,1.1c0,0,0,0-0.1,0.1c-0.1,0.8,0.3,1.7-0.6,2.2C8.4,42.4,8.2,41.2,8.4,40z"/>
<path class="st215" d="M7.3,36.2c0.5-0.3,1.3,0,1.7-0.6c1-0.6,1.9-1.4,3.2-0.9c0.3,0.1,0.4,0.4,0.5,0.7c0.1,0.8-0.5,1.2-1.1,1.7
	c-0.7,0.4-1.5,0.5-2.3,0.3c-0.5,0-1-0.2-1.4-0.6L7.3,36.2z"/>
<path class="st217" d="M7.8,36.7h1.7c0.3,0.3,0.3,0.8,0,1.1c0,0,0,0,0,0l0,0c-0.5,0.4-1.2,0.4-1.7,0L7.8,36.7z"/>
<path class="st218" d="M7.8,37.8h1.7c-0.1,1.5-1,0.9-1.7,0.6V37.8z"/>
<path class="st219" d="M51.8,38.9c0.2-1,2.1-1.1,1.4-2.7c-0.2-0.3,0.4-0.4,1.5,0.4c0,1.5-0.2,2.8-2.2,2.2C52.2,39,52,39.1,51.8,38.9
	C51.8,38.9,51.8,38.9,51.8,38.9z"/>
<path class="st220" d="M51.8,38.9h0.6c-0.2,1.5-1.4,1-2.3,1.1v-1.1c0.3-0.3,0.8-0.3,1.1,0c0,0,0,0,0,0L51.8,38.9z"/>
<path class="st221" d="M15.7,9.6c1.1-0.2,2.2,0.2,2.8,1.1c0.2-0.2,0.5-0.2,0.7,0c0.1,0.2,0.2,0.5,0.2,0.7c0,0.2-0.2,0.5-0.4,0.6
	c-0.5,0.4-1.3,0.5-1.5,1.3c-0.1,0.6-0.1,1.2-0.3,1.7c-0.3,0.8,0.3,1.7-0.4,2.5c-0.5,0.2-1.1,0.1-1.5-0.3c-1-0.8-2.4-1.4-2.2-3.1
	C13.3,12.3,14.6,11,15.7,9.6z"/>
<path class="st222" d="M15.7,9.6c0.9,2.3-2.2,2.6-2.3,4.5c-0.1,0.2-0.3,0.3-0.5,0.1l0,0c0-0.5-0.1-1-0.2-1.6c0.2-0.6,1-1.2,0.1-1.9
	C13.5,9.4,14.6,9.6,15.7,9.6z"/>
<path class="st223" d="M19.1,10.7h-0.6c0.1-1.5,1-0.9,1.7-0.6v0.6C19.9,11,19.4,11,19.1,10.7C19.1,10.7,19.1,10.7,19.1,10.7z"/>
<path class="st134" d="M52.9,17.5h-1.1c-0.3,0.3-0.8,0.3-1.1,0c0,0,0,0,0,0h-0.6c-0.6-0.8-0.2-1.2,0.6-1.5c1.2-0.1,2.4-0.4,3.4,0.4
	c0,0.4,0,0.7,0,1.1C53.8,17.8,53.3,17.8,52.9,17.5C53,17.6,52.9,17.5,52.9,17.5z"/>
<path class="st224" d="M50.6,15.9c-0.2,0.5-0.4,1-0.6,1.5c-0.6,0-1.1-0.4-1.1-1c0-0.1,0-0.1,0-0.2c-0.1-0.1-0.2-0.2-0.1-0.3
	s0.1-0.1,0.2-0.1l1.1-0.2L50.6,15.9z"/>
<path class="st225" d="M49,15.9c0,0.1,0,0.3-0.1,0.4L47.3,17c-0.3,0.3-0.8,0.3-1.2,0.1c-0.2-0.2-0.2-0.5,0-0.7c0-0.1,0-0.3,0.1-0.4
	c1,0.1,1.5-0.6,2.1-1.3C48.5,15.1,48.8,15.5,49,15.9z"/>
<path class="st181" d="M36,46.8c0.1,1.2,0.9,1.1,1.7,1.1V49c-2.3,0.2-4-1-5.8-2.2c-0.7-0.4-1.1-1.3-2.1-0.7c-1.1-2.2,0.9-2.3,2-3
	c0.3-0.1,0.6,0,0.8,0.2c0.3,0.3,2-0.9,0.8,1.1C32.6,45.9,34.5,46.7,36,46.8z"/>
<path class="st226" d="M38.8,53.5c-0.4,0.2-0.6,0.7-0.6,1.1c-0.8-1.3-2.1-1.2-3.4-1.1c-0.9-1.1-2.4-1.3-3.4-2.2
	c0.6-1.3,1.7-1.1,2.8-1.1c1.4,0.8,3,0.6,4.5,1.1l0.6,2.2L38.8,53.5z"/>
<path class="st227" d="M38.8,51.3c-1.9,1.1-3.2-0.1-4.5-1.1c1.1-0.4,2.8,0.9,3.4-1.1C39.5,49.1,39,50.3,38.8,51.3z"/>
<path class="st181" d="M37.7,47.9c0.1-1.4,0.3-2.7,2.2-2.2l-0.6,2.2H37.7z"/>
<path class="st228" d="M48.4,28.8h-2.8c-0.5-0.5-0.7-1.2-0.7-1.9c0-0.5-0.2-1.1-0.2-1.6c-0.1-1.1,0.2-2.2,0.8-3.2
	c0.2-0.2,0.5-0.2,0.7,0l0,0C46,24.6,48.1,26.4,48.4,28.8z"/>
<path class="st110" d="M56.9,25.4c0.8,0.6,0.5,1.5,0.6,2.2v0.6c-0.9-0.5-1.2-1.7-0.7-2.6C56.8,25.5,56.8,25.4,56.9,25.4z"/>
<path class="st229" d="M58.6,25.4v-2.8C59.3,23.5,59.6,24.4,58.6,25.4z"/>
<path class="st230" d="M19.1,51.3c-0.2,0.8-0.4,1.5-0.6,2.2l-5.1-2.2c0.1-0.9-0.8-1.1-1.1-1.7c-0.1-1.2,0.4-1.8,1.7-1.7
	c0.8-0.6,1.2-0.2,1.5,0.6c0.1,0.2-0.4,1.1,0.5,0.4C17.2,49.4,18.9,49.4,19.1,51.3z"/>
<path class="st231" d="M10.1,48.5c0.1-0.4,0.2-0.9,0.5-0.8c1,0.3,0.4,1.3,0.6,1.9h-0.6C10.7,49.1,10.5,48.7,10.1,48.5z"/>
<path class="st232" d="M9.6,34.4l-1.7-0.1l0.5-1L8.7,33c1-0.4,2.2-0.5,3.2-0.1c0.3,0.1,0.5,0.3,0.6,0.6c0,0.3-0.1,0.6-0.2,0.8
	C11.5,34.8,10.4,34.9,9.6,34.4z"/>
<path class="st232" d="M5,32.1h2.8c0.3,0.3,0.9,0.5,0.6,1.1l0,0C7.3,32.7,5.3,34.8,5,32.1z"/>
<path class="st233" d="M9.6,34.4c1,0.1,2-0.1,2.8-0.6c0.3-0.3,0.8-0.4,1.2-0.3c0.8,0.3,1.8,0.3,1.7,1.6c-0.3,0.3-0.7,0.5-1.2,0.5
	c-0.6,0.1-1.2-0.1-1.7-0.4L9,35.5v-0.6L9.6,34.4z"/>
<path class="st234" d="M15.7,49c-0.1,0.2-0.1,1-0.5,0.4s-0.2-1.5-1.2-1.5c0.2-1.3-1.8-1-1.7-2.2c0.9-0.5,1.8-0.7,2.8-0.6
	c1.2-0.2,1.5,0.6,1.9,1.4c-0.1,0.6-0.5,1.1-0.7,1.6C16.2,48.5,16,48.8,15.7,49z"/>
<path class="st235" d="M46.1,22h-0.6c-0.2,0.2-0.5,0.2-0.7,0c-0.6-1.2-1.7-2.3-1.2-3.8c0.6-0.8,1.5-1.3,2.5-1.2h1.1
	C48.1,18.9,46.2,20.3,46.1,22z"/>
<path class="st236" d="M52.9,17.5H54c0.5,1-0.3,1.1-0.9,1.1C52.3,18.4,52.8,17.9,52.9,17.5z"/>
<path class="st237" d="M50.7,17.5h1.1c0,0.7-0.3,1.3-0.8,1.7C50.4,18.7,50.8,18.1,50.7,17.5z"/>
<path class="st238" d="M37.7,15.8c-0.4,0.6-0.6,1.4-0.6,2.2c-0.5,0.5-0.9,0.3-1.4,0s-1.1-0.8-0.9-1.6l0.6-0.6
	C36.2,15.5,36.9,14.8,37.7,15.8z"/>
<path class="st111" d="M40.5,10.7c-0.1,0.5,0.3,1.1,0.9,1.1c0.1,0,0.2,0,0.3,0C41.6,13,40.8,13,40,13h-0.6c-0.4-0.3-0.9-0.5-0.6-1.1
	C39.7,11.9,39.9,11.1,40.5,10.7z"/>
<path class="st239" d="M38.8,11.9l0.6,1.1l-1.1,1.1c0-0.7,0-1.5,0-2.2L38.8,11.9z"/>
<path class="st240" d="M28.7,14.1l0.5-0.6h1.2c-0.1,0.8,0.2,1.2,1.1,1.2c0.2,1,1.5,0.8,1.7,1.6c-0.1,0.1-0.1,0.3-0.2,0.4
	c-0.9,1-2,0.8-3.2,0.7c-0.3-0.1-0.5-0.2-0.7-0.4c-0.7-1.5-2-1.2-3.2-1c-1.1,0.4-2.1,1.2-3.4,0.8c-0.6-0.1-1-0.5-1.2-1.1l1.8-1.2
	c0.4-0.4,0.9-0.6,1.5-0.6C26,13.9,27.3,14.9,28.7,14.1z"/>
<path class="st241" d="M34.8,16.4l1,1.2c0.1,0.9-0.3,1.9-1.1,2.3c-0.6,0-1.1-0.3-1.3-0.8c-0.4-0.9-0.9-1.8-0.2-2.8l0,0L34.8,16.4z"
	/>
<path class="st242" d="M31.5,51.3c1.7-0.1,3.1,0.2,3.4,2.2c-1.5,0.4-2.7-0.6-4-1.1v-1.1H31.5z"/>
<path class="st243" d="M32.1,43.4c-0.3,1.3-2.7,0.9-2.3,2.8c-0.9-0.1-2.1,0.4-2.2-1.1c0-0.1,0.1-0.2,0.1-0.4
	c0.2-0.6,0.6-1.1,1.1-1.5C29.9,42.9,31,42.4,32.1,43.4z"/>
<path class="st244" d="M24.8,47.3l-0.5-0.6l-0.2,0.1c-0.3-0.3-0.3-0.7-0.2-1.1c0.4-0.7,0.6-1.6,0.5-2.5c0.1-0.4,0.4-0.7,0.8-0.8
	c0.5-0.2,1.1-0.2,1.6,0.1c0.2,0.1,0.4,0.4,0.4,0.6c0,0.6-0.3,1.1-0.8,1.3C25.6,45.3,25.9,46.7,24.8,47.3z"/>
<path class="st245" d="M29.2,50.7c-0.8-0.4-2.1-0.2-1.7-1.7C28.8,48.9,29.4,49.5,29.2,50.7z"/>
<path class="st243" d="M26.4,44.5c0-0.5,0.1-0.9,0.6-1.1c0.2-0.2,0.5-0.2,0.7,0c0,0,0,0,0,0c0.3,0.5,0.3,1.2-0.2,1.6l0,0
	C27.1,45.1,26.6,44.9,26.4,44.5z"/>
<path class="st246" d="M16.8,46.8l-1.7-1.7c-0.9-0.7-1.3-2-2.9-1.4c-1.2,0.4-0.9-0.8-1-1.4c0.9-0.8,2-1.3,3.2-1.3
	c0.7-0.1,1.4,0,2.2,0.1c0.3,0.1,0.5,0.2,0.8,0.3c0.7,0.7,0.5,1.5,0.2,2.5c0.9-0.4,1.8-0.3,2.7,0.1c0.2,0.1,0.4,0.3,0.6,0.5l-0.6,1.2
	C19.6,47.7,18.4,47.8,16.8,46.8z"/>
<path class="st247" d="M20.8,44.5h-0.6c-0.6-0.6-1.1-1.4-0.5-2.2s1.3-0.3,2,0c0.7,0.2,1.4,0.3,2.1,0.3c0.4,0.2,0.7,0.6,0.7,1
	c0.3,0.7,0.2,1.5-0.2,2.2l-0.1,0.9C22.7,46.5,23,43.7,20.8,44.5z"/>
<path class="st217" d="M16.8,46.8c1.3,0.1,2.6,0.1,3.4-1.1c0.4,0.2,0.6,0.7,0.6,1.1c-0.7,0.6-1.1,1.4-1.1,2.2
	c-1.6,0.7-2.7-0.3-3.9-1.1c-0.1-0.5,0.3-1.1,0.9-1.1C16.7,46.8,16.7,46.8,16.8,46.8z"/>
<path class="st248" d="M21.9,49c-0.7-0.6-1.1-1.4-1.1-2.3C22.6,46.8,23,47.5,21.9,49z"/>
<path class="st249" d="M15.7,47.9c1.6-0.5,2.6,1,3.9,1.1c1,0.8-0.2,1.5,0,2.3h-0.6c-0.8-1.3-2.6-1-3.4-2.2L15.7,47.9z"/>
<path class="st250" d="M37.8,38.9c-1.1,1.2-1.8,3.1-4,2.8c-0.2-0.2-0.2-0.5-0.1-0.8c0.7-1.8,1.6-3.1,3.8-2.2L37.8,38.9z"/>
<path class="st251" d="M27.5,43.5L27,43.4c0-0.2,0.1-0.3,0.1-0.5c0.8-1,2-0.7,3-0.9c1-0.2,2.1-0.7,3.1,0.2l-0.5,1.2h-0.6
	c-1.1-0.3-2.2,0.6-3.4,0.1C28.4,43.7,27.9,43.7,27.5,43.5z"/>
<path class="st252" d="M40.1,37.2l0.5,1.1c0.2,0.5-0.1,0.8-0.5,0.9c-0.9,0.6-1.4-0.8-2.3-0.4l-0.2,0.1c-0.2-0.9,0.4-1.3,0.9-1.8
	c0.2-0.1,0.4-0.2,0.7-0.3c0.2,0,0.5,0,0.7,0.1L40.1,37.2z"/>
<path class="st253" d="M33.2,42.2l-2.8,0.5c-0.6-0.8-0.1-1.4,0.5-1.9c0.5-0.3,1.1-0.4,1.7-0.3c0.4,0,0.9,0.2,1.2,0.6v0.5L33.2,42.2z
	"/>
<path class="st254" d="M40,39.3c0.2-0.3,0.3-0.6,0.5-0.9l0.6,0.5c0.1,0.2,0.1,0.4,0,0.6c-0.2,0.1-0.4,0.2-0.6,0.1L40,39.3z"/>
<path class="st255" d="M41.6,40c0,0.2-0.1,0.4-0.1,0.6h-0.2H41c0-0.1,0-0.3,0-0.4l0.1-0.3C41.4,39.8,41.6,39.9,41.6,40L41.6,40z"/>
<path class="st252" d="M40.5,39.6l0.6-0.1l0.2,0.3L41.1,40L41,40.2L40.5,39.6z"/>
<path class="st256" d="M45,28.8V31c-1.3,2.3-0.8,5-1.7,7.3c-2-0.2-0.4-1.8-1-2.6c-0.8,0.4-1,1.9-2.2,1.5h-0.2c-0.9-2.1,0.2-4,0.6-6
	c0.5-1.4,0.6-2.9,0.3-4.4c0-0.3,0-0.5,0.1-0.8c0.2-0.5,0.7-0.8,1.2-0.8c0.6,0.3,1.4,0.3,2,0c0.2,0,0.5,0.1,0.6,0.3
	c0.3,0.5,0.4,1.1,0.3,1.7C44.8,27.7,44.8,28.2,45,28.8z"/>
<path class="st257" d="M45.6,35.5c0,0.8,0,1.5,0,2.2c-2.7-1.1,0.2-2.7-0.9-4.4C45.9,34.3,45.5,34.9,45.6,35.5z"/>
<path class="st258" d="M41.1,39.5v-0.6l0.5,0.4l-0.1,0.2C41.4,39.6,41.2,39.6,41.1,39.5C41,39.5,41,39.4,41.1,39.5L41.1,39.5z"/>
<path class="st259" d="M41.1,39.4c0.2,0,0.4,0,0.6,0.1c0,0.2,0,0.4,0,0.5H41C41.1,39.8,41.1,39.7,41.1,39.4z"/>
<path class="st260" d="M9.5,31h1.7c1,0,1.6,0.3,0.9,1.4c-1,0.5-2.3,0.4-3.2-0.3V31L9.5,31z"/>
<path class="st194" d="M8.9,29.9c0.4-0.5,1-0.8,1.3-0.2s-0.3,0.7-0.8,0.8L8.9,29.9z"/>
<path class="st261" d="M8.9,32.1h3.4c0.3,0.3,0.3,0.8,0,1.1H8.4l-0.6-1.1L8.9,32.1z"/>
<path class="st262" d="M45,28.8c-0.7-0.1-1.4-0.2-0.6-1.1c0.5-0.2,0-1.5,1.1-1.1v2.2H45z"/>
<path class="st263" d="M51.2,38.9h-1.1c-0.4-0.3-0.6-0.8,0-1C50.9,37.7,51.2,38.2,51.2,38.9z"/>
<path class="st264" d="M43.9,25.4c-0.1,0.6-0.2,1.1-1,1c-0.6-0.1-0.6-0.6-0.7-1c-0.1-1.6-1.8,0.3-2.1-1c-0.4-1-0.4-2.1,0-3.1
	c0.2-0.5,0.7-0.7,1.2-0.5c0.6-0.2,0.4-0.7,0.5-1.1c0-0.4,0.2-0.7,0.4-1c0.5,0,1-0.2,1.2-0.7c0.2-0.1,0.4-0.1,0.5,0.1c0,0,0,0,0,0.1
	c-0.2,1.5,1.7,2.3,1.1,3.9C45,23.3,44.2,24.2,43.9,25.4z"/>
<path class="st265" d="M34.9,19.7c0.1-0.8,0.5-1.6,1-2.2c0.3,0.5,0.8,0.6,1.3,0.4c0.8,0.4,0.4,1.2,0.6,1.8c0.2,0.2,0.3,0.4,0.4,0.7
	c0,1.2-0.1,2.4-0.1,3.7c-0.2,0.5-0.5,0.9-1,1.1c-0.3,0.2-0.7,0.3-1.1,0.4c-0.5,0-1-0.3-1.3-0.8c-0.1-0.2-0.1-0.5-0.1-0.8
	c0.2-1.2,0.2-2.4,0-3.7C34.7,20.1,34.7,19.9,34.9,19.7z"/>
<path class="st266" d="M37.7,20.4c0-0.2,0-0.4,0-0.6c1.6,0.3,2.8-1.3,4.4-1.1c0,0.3,0,0.6,0,1c-0.1,0.2-0.2,0.4-0.4,0.6
	c-0.5,0.5-1.4,0.2-1.7,1c-0.2,0.6-0.2,1.5-1.3,1.5C38,22.1,38.3,21,37.7,20.4z"/>
<path class="st267" d="M43.9,18.1C43.7,18,43.6,18,43.4,18c-0.2-1,0.9-0.9,1.2-1.5l0,0l1.6-0.1c0,0.2,0,0.4,0,0.6
	C45.5,17.5,44.8,18,43.9,18.1z"/>
<path class="st268" d="M44.5,16.4c-0.7-0.2-1.5,0.2-2.2-0.9C43.5,15.2,44.2,15,44.5,16.4L44.5,16.4z"/>
<path class="st269" d="M21.3,15.8l1.1,0.6c0.5,0.5,0.5,1.2,0.1,1.8c-0.7,0.5-1.6,0.6-2.3,0.2c-0.6-0.6-0.8-1.5-0.4-2.2l0.3-0.4
	L21.3,15.8z"/>
<path class="st270" d="M24.7,14.6l-1.6,0.1l-1.6-0.1c1.9-1,3.3-1.5,4.9-0.5C26,14.7,25.2,14.1,24.7,14.6z"/>
<path class="st271" d="M22.5,12.4c-0.8,0.9-1.9,0.4-2.8,0.6c-0.2,0.2-0.5,0.2-0.7,0c-0.2-0.4-0.2-0.8,0.1-1.1l0,0
	c0.7-0.5,1.6-0.7,2.5-0.5c0.3,0,0.6,0.1,0.8,0.3C22.6,11.8,22.7,12.2,22.5,12.4C22.5,12.4,22.5,12.4,22.5,12.4z"/>
<path class="st272" d="M19.1,13h0.6c0.1,0.9,1.2,1.7,0.5,2.7l0.1,0.2c-0.3,0.2-0.6,0.2-0.9,0.1c-0.9-0.6-1.1-1.8-0.5-2.6
	C18.9,13.2,19,13.1,19.1,13z"/>
<path class="st273" d="M24.7,14.6c0.4-0.6,1.1-0.4,1.7-0.6l2.3,0.1C27.5,15.2,26,14.6,24.7,14.6z"/>
<path class="st206" d="M22.5,12.4v-0.6c1.1-0.9,2.3-0.4,3.4,0l0,0C24.9,12.9,23.6,12.2,22.5,12.4z"/>
<path class="st274" d="M25.8,11.9h-3.9c-0.3-0.3-0.9-0.5-0.6-1.1h3.4L25.8,11.9z"/>
<path class="st133" d="M21.3,10.7l0.6,1.1h-2.8v-1.1H21.3z"/>
<path class="st275" d="M12.9,14.2l0.5-0.1c-0.1,1.6,1.9,1.6,2.3,2.8c-0.1,0.4-0.3,0.7-0.7,0.8c-0.6,0-1.2-0.1-1.8-0.3
	c-0.5-0.1-0.9-0.5-1-1L12.9,14.2z"/>
<path class="st276" d="M11.2,19.2l-0.6-0.5c0.6,0,1.3,0.1,1.7-0.6c0-1.1,0.6-0.8,1.2-0.6c0.2,0.3,0.3,0.6,0.3,0.9
	C13.4,20,12.4,19.8,11.2,19.2z"/>
<path class="st277" d="M13.4,17.5c-0.5,0-0.9,0.2-1.1,0.6c-0.7-0.6-0.7-1.1,0-1.7l1.1,0.6c0.1,0.1,0.2,0.2,0.1,0.4
	S13.5,17.5,13.4,17.5z"/>
<path class="st278" d="M11.2,19.2c0.9-0.1,2.1,0.4,2.2-1.1c0.7-0.4,1.3,0,1.8,0.3c0.3,0.2,0.6,0.5,0.8,0.9c0.2,0.5,0.2,1,0,1.5
	c-0.4,1-0.8,2-1.4,3c-0.4,0.5-0.7,0.9-0.9,1.4c-0.1,0.2-0.4,0.3-0.6,0.3l-0.3-0.2C13.3,23.1,12.3,21.1,11.2,19.2z"/>
<path class="st278" d="M11.2,29.9l1.7-4.5l0,0c0.9,1.3,1,3.1,0.2,4.5C12.6,30.3,11.7,30.4,11.2,29.9z"/>
<path class="st279" d="M11.2,29.9h1.7c0.8,1.3,1.4,2.6-0.6,3.4v-1.1c-0.2-0.5-0.6-0.9-1.1-1.1L11.2,29.9z"/>
<path class="st280" d="M10.5,21.7c0,0.4-0.2,0.7-0.6,0.8s-0.8-0.1-0.7-0.5c0.1-0.3,0.3-0.6,0.6-0.8C10.2,21,10.5,21.2,10.5,21.7z"/>
<path class="st194" d="M9.6,24.4c0.4-0.3,0.6-0.5,0.6-0.5c0.3,0.2,0.6,0.4,0.8,0.7c0.1,0.3,0,0.5-0.4,0.4S9.9,24.6,9.6,24.4z"/>
<path class="st281" d="M14.6,41.7l-3.4,0.6c-0.9,0.1-1.1-0.8-1.7-1.1V40l2.2-2.2l0.3-0.2c1.1-0.1,1.7,0.7,2.5,1.2
	c0.2,0.6,0.4,1.3,0.4,2C15,41.1,14.9,41.4,14.6,41.7z"/>
<path class="st282" d="M9.5,37.8v-1.1c0.5,0.3,1.2,0.3,1.7,0c0.4-0.3,1-0.4,1.5-0.2c0.2,0.1,0.4,0.4,0.3,0.7c-0.2,0.6-1,0.3-1.3,0.7
	L9.5,37.8L9.5,37.8z"/>
<path class="st283" d="M12.3,35.2L14,35c0.4,0.3,0.7,0.8,0.8,1.3c0,0.3-0.2,0.5-0.4,0.6c-0.4,0.1-0.8,0-1.1-0.2
	c-0.3-0.4-0.6-0.8-1-1.2L12.3,35.2z"/>
<path class="st284" d="M12.3,35.5c0.5-0.1,1,0.3,1.1,0.9c0,0.1,0,0.2,0,0.2c-0.1,0.2-0.3,0.2-0.5,0.1c0,0-0.1-0.1-0.1-0.1h-1.7
	L12.3,35.5z"/>
<path class="st133" d="M19.1,13c0.1,1-0.4,2.1,0.7,2.8c0.1,0.8-0.3,1.2-1.1,1.3c-0.9-0.3-0.9-1.1-0.9-1.9c-0.1-0.8-0.4-1.6-0.9-2.2
	c0.2-1.5,1.4-1,2.3-1.1L19.1,13z"/>
<path class="st285" d="M18.5,15.2c-0.4,0.5-0.4,1.2,0,1.8c0.1,0.9-0.5,1-1.2,1.2c-0.4,0-0.7-0.2-0.6-0.7c0.3-0.8-0.6-1.5,0-2.3
	C17.3,14.8,18,14.8,18.5,15.2C18.5,15.2,18.5,15.2,18.5,15.2z"/>
<path class="st286" d="M16.8,17.5l0.5,0.6l0.2,0.4c-0.2,0.8-0.7,1.2-1.5,0.9l-0.8-0.6c-0.3-0.3-0.3-0.7-0.1-1c0,0,0-0.1,0.1-0.1
	l0.6-0.6L16.8,17.5z"/>
<path class="st287" d="M18.5,15.2h-1.7c0-0.8,0-1.5,0-2.2C17.8,13.4,18.4,14.2,18.5,15.2z"/>
<path class="st288" d="M43.9,25.4C43,23.8,44.4,23,45,22h0.6c0.2,1.2-0.4,2.2-0.6,3.4c-0.1,0.2-0.3,0.2-0.5,0.1c0,0-0.1-0.1-0.1-0.1
	H43.9z"/>
<path class="st264" d="M44.5,25.4H45c0.4,0.2,0.6,0.7,0.6,1.1l-1.1,1.2V25.4z"/>
<path class="st289" d="M12.3,33.3c1-1,0.4-2.3,0.6-3.4c0-1.5,0-3,0-4.5h0.5c0.8,0.7,0.7,1.6,0.8,2.5c0,0.3,0,0.6,0,0.9
	c-0.1,1,0,2,0.3,3c0.1,0.9,0,1.8-1,2.1h-1.1C12.3,33.7,12.3,33.4,12.3,33.3z"/>
<path class="st290" d="M13.4,33.8c0.5-0.7,1-1.3,0.5-2.2c-0.5-0.9,0-2-0.5-3v-0.2c0.1-0.3,0.4-0.4,0.6-0.4c0.6,0.1,1.1,0.4,1.4,0.9
	c0.6,1.1,0.9,2.3,0.9,3.5c0.1,1.2,1.1,2,1.1,3.2c-0.3,0.6-0.8,1.1-1.4,1.3c-1-0.2-1.3-0.8-1.1-1.8C14.9,34.2,13.7,34.5,13.4,33.8z"
	/>
<path class="st291" d="M15.1,35l1.1,1.7c0.1,0.1,0.2,0.3,0.2,0.4c0,0.2,0,0.2-0.1,0.2c-1.1,0.9-1.5,0.3-1.7-0.8L14,35H15.1z"/>
<path class="st292" d="M25.9,15.3c1.1,0.7,3.6-1.8,3.4,1.6c-0.1,0.2-0.2,0.3-0.3,0.5l-0.7,0.5c-0.3,0.2-0.6,0.3-0.9,0.4
	c-0.8,0-1.5-0.5-1.8-1.2C25.2,16.5,25.4,15.8,25.9,15.3z"/>
<path class="st293" d="M25.9,15.3v2.2c-0.5,0.5-1,1-1.7,1.4c-0.4,0.1-0.8,0.1-1.1,0c-0.4-0.2-0.6-0.5-0.6-0.9c0-0.5,0-1,0-1.6
	C23.8,16.8,24.7,15.5,25.9,15.3z"/>
<path class="st294" d="M33.2,16.3c-0.3,1.1,0.9,1.7,0.7,2.8c-0.2,0.2-0.4,0.3-0.6,0.4c-0.6-0.1-1.3-0.1-1.9-0.3
	c-0.8-0.1-1.5-0.7-1.8-1.5c-0.1-0.3,0-0.5,0.2-0.7C30.9,16.7,32.2,17.4,33.2,16.3z"/>
<path class="st295" d="M29.8,17v0.5c-0.3,0.3-0.7,0.3-1,0.1c-0.1-0.1-0.2-0.3-0.1-0.4c0-0.1,0.1-0.2,0.2-0.2c0.1,0.1,0.3,0,0.4-0.1
	L29.8,17z"/>
<path class="st296" d="M33.2,19.2l0.8-0.1l0.9,0.6c0,0.2,0,0.4,0,0.5c0.3,0.7,0.5,1.3-0.2,1.8c-0.9-0.2-1.8-0.5-2.7-0.9
	c-0.5-0.3-0.7-0.8-0.7-1.4C31.8,19.1,32.5,19.2,33.2,19.2z"/>
<path class="st297" d="M27.5,43.5h1.2c0,0.8,0,1.6-1.2,1.6L27.5,43.5z"/>
<path class="st298" d="M24.3,43.2c-0.1-0.4-0.3-0.5-0.7-0.4c-1.7,0.1-3.3-0.7-4.2-2.1c0.1-1.2,1-1.6,1.8-2.1c0.7-0.2,1.4-0.2,2,0.1
	c0.5,0.1,0.9,0.5,1.2,0.9c0.1,0.2,0.1,0.5,0.2,0.7c0,0.7,0.5,1.2,0.8,1.8c0.1,0.2,0.1,0.5-0.1,0.6l-0.6,0.5l-0.2,0.5L24.3,43.2z"/>
<path class="st299" d="M24.2,40.6V40c0.4-0.3,0.8-0.4,1.3-0.3c1.5,0.4,3.2,0,4.7,0.5c0.4,0.2,0.7,0.6,0.8,1l-0.5,1.6l-3.3,0.2
	l-1.8-0.2c0-0.2,0-0.3,0-0.5c0.2-0.3,0.5-0.5,0.8-0.6C25.8,41.6,24.6,41.9,24.2,40.6z"/>
<path class="st300" d="M24.3,43.2c0.2,0,0.3,0,0.5,0c0.2,1,1.2,2-0.5,2.7C24.3,45,24.3,44.1,24.3,43.2z"/>
<path class="st184" d="M19.6,40.7c0.9,1.5,2.8,1.2,4,2.2c-1.3,1.3-2.3-0.1-3.5-0.5c0,0.8,0.1,1.4,0.1,2.1c-0.5-0.1-1.1-0.2-1.6-0.4
	c-0.9-0.2-0.5,2.1-1.7,0.9c-1-0.9,0.5-1.6,0.5-2.5c0-0.3,0-0.6,0-0.8c0.1-0.8,0.8-1.4,1.6-1.5C19.3,40.3,19.5,40.4,19.6,40.7z"/>
<path class="st301" d="M19.2,40.6l-1.8,1.1h-0.6c-0.4-0.3-0.8-0.5-1-1c-0.2-0.6-0.4-1.1-0.7-1.6c-0.3-0.9-1.7-0.1-1.9-1.2
	c0.2-0.7,0.9-0.7,1.3-1.2l0,0c0.5,0.2,0.7,1.3,1.6,0.6c0.2,0.1,0.5,0.2,0.6,0.4c0.7,0.8,1.5,1.6,2.4,2.3
	C19.3,40.1,19.3,40.3,19.2,40.6z"/>
<path class="st302" d="M16.3,40.6l0.6,1.1h-2.3v-1.1C15,40.1,15.8,40.1,16.3,40.6z"/>
<path class="st303" d="M33.7,41.1h-1.1c-1.2-0.8-0.5-1.3,0.2-1.9c0.4-0.4,0.8-0.9,1.1-1.4c0.1-0.2,0.3-0.4,0.5-0.6
	c1.5-0.9,2.3-3.1,4.6-2.7c0.6,0.9,0.6,2.1-0.1,3c-0.5,0.5-0.9,1-1.4,1.5C35.3,38,35,40.4,33.7,41.1z"/>
<path class="st304" d="M41.2,31c-0.4,2-0.8,4.1-1.3,6.1h-0.3h-0.3c-0.6-1.3,0-2.8-0.6-4.1c-0.1-1.3,0.2-2.7,0.8-3.9
	c0.4-0.6,0.7-1.5,1.7-0.9C41.4,29.2,41.4,30.1,41.2,31z"/>
<path class="st305" d="M39.3,33.1c0.7,1.4-0.2,2.7,0.1,4.1l-0.5,0.3c-0.2-1,0.3-2.2-0.5-3.1C38,33.4,38.6,33.2,39.3,33.1z"/>
<path class="st306" d="M33.2,39.5c-0.4,0.5-1.2,0.8-0.6,1.7h-1.7l-0.6-0.6c-0.2-0.2-0.3-0.5-0.2-0.8c0.4-0.6,1.1-1,1.9-0.8
	C32.5,38.9,32.9,39.1,33.2,39.5z"/>
<path class="st285" d="M40.5,24.8c0.7-0.2,0.6-1.8,1.7-1.2c0.7,0.4,0.7,1.2,0,1.8L41,26c-0.5,0.1-1-0.1-1.2-0.6
	c-0.1-0.2,0-0.5,0.1-0.7C40.1,24.5,40.4,24.6,40.5,24.8C40.5,24.8,40.5,24.8,40.5,24.8z"/>
<path class="st307" d="M40,25.4l0.9,0.5c0,0.2,0.1,0.3,0.1,0.5c0.4,0.5,0.4,1.2,0,1.7l-1,1.1c-1.1-1-1.2-2.7-0.2-3.8
	C39.9,25.5,40,25.5,40,25.4z"/>
<path class="st308" d="M41.1,28.2v-1.7c0.8,1.4,0.9,3.1,0.1,4.5L41.1,28.2z"/>
<path class="st309" d="M40.5,24.8H40c-0.5-0.1-0.9-0.4-1-0.8c-0.2-0.4-0.4-0.9,0-1.3c0.7-0.4,0-1.5,0.9-1.8c0.2-0.2,0.5-0.2,0.6,0
	c0,0,0,0,0,0L40.5,24.8z"/>
<path class="st310" d="M41.7,19.8c0.1-0.1,0.3-0.2,0.5-0.2c0.2,0.7,0.8,1.5-0.5,1.8C41.2,21,41.2,20.3,41.7,19.8z"/>
<path class="st311" d="M41.7,19.8c0,0.5,0,1.1,0,1.6l-1.1-0.5l-0.7,0L41.7,19.8z"/>
<path class="st312" d="M39.4,23.7l0.6,1.2c0,0.2,0,0.4,0,0.6v3.9c0,1.3-0.9,2.4-0.7,3.7c-0.4,0.3-0.9,0.7-1,1.3
	c-1.1,1.4-2.5,2.6-4,3.4c-2.9,1-2-1.1-2-2.4c0-0.3,0.1-0.5,0.2-0.8c0.4-1.1,1.4-1.8,1.7-3c0.3-0.7,0.7-1.3,1.2-1.8
	c0.2-0.3,0.4-0.6,0.5-0.9c0.2-0.5,0.5-1.1,0.8-1.5c0.4-0.7,0-1.3-0.3-1.8c-0.1-0.2,0-0.5,0.1-0.7l1.1-0.7
	C38.2,23.7,38.7,23.3,39.4,23.7z"/>
<path class="st313" d="M36,29.8l-1.1,1.7c-0.6,0.5-1.4,0.9-2.2,1l-1.9,0.6c-0.8,0.2-1.6,0.2-2.4-0.1c-1.4-1.3-3-2.7-4.4-4.2
	c0.2-0.5,0.6-0.9,1.1-0.9c1.2,0,2.4,0.4,3.6-0.2c0.4-0.3,0.7-0.6,1.1-0.9c0.3-0.2,0.7-0.3,1.1-0.4c1-0.1,2.1,0,2.9-0.8
	c0.3-0.4,0.7-0.7,1.1-0.9c0.5-0.1,0.6,0.7,1.2,0.4l0.2,0.3c0.1,0.2,0.2,0.4,0.3,0.6c0.1,0.5,0.9,0.8,0.6,1.5l-0.6,1.7L36,29.8z"/>
<path class="st314" d="M34.9,24.8l-0.4,1.1c-0.4,0.3-0.8,0.4-1.2,0.3c-0.9-0.6-1.8-1.2-1.2-2.5c0.6-0.5,1.4-0.7,2.1-0.5
	c0.4,0.2,0.8,0.4,0.7,1L34.9,24.8z"/>
<path class="st315" d="M39.4,23.7c-0.6,0.1-1,0.8-1.7,0.4v-3.8c0.6,0.6,1.1,1.4,1.2,2.3C39.1,23,39.2,23.3,39.4,23.7z"/>
<path class="st316" d="M34.8,24.2l-0.5-0.5c-0.3-0.3-0.5-0.7-0.4-1.1c0.1-0.3,0.2-0.5,0.5-0.6c0.6-0.5,0.4-1.1,0.5-1.7
	C35.7,21.4,35.7,23,34.8,24.2z"/>
<path class="st317" d="M36.6,24.8c-0.1,0.2-0.1,0.4-0.1,0.5l-0.2,0.2L36,25.5v-0.2l0-0.1L36.6,24.8z"/>
<path class="st318" d="M22.5,17.9l0.6,0.6c0.5,0.7,0.2,1.3-0.1,1.9c-0.5,1-1,2.1-2.2,2.2c-1.7,0.2-0.9,2.6-2.6,2.8
	c-0.4-0.2-0.7-0.5-0.8-0.9c-0.2-2.1-0.7-4.2,1.1-6c0.5-0.4,1.1-0.6,1.7-0.5L22.5,17.9z"/>
<path class="st319" d="M20.2,18.1c-0.2,0.6-0.7,0.5-1.1,0.5c-0.8,0.5-1.3,0.3-1.5-0.6h-0.1h-0.1c0.3-0.5,1.2-0.3,1.3-1.1l1.2-1.2
	c0.2,0,0.3,0,0.5,0.1C20.2,16.7,20.2,17.4,20.2,18.1z"/>
<path class="st320" d="M15.1,17.5c0,0.4,0,0.7,0,1.1l-1.7-0.6v-1.1L15.1,17.5z"/>
<path class="st321" d="M15,28.8l-1.1-0.6c-0.1-1.5-0.8-3,0.4-4.4c0.5-1,0.3-2.2,1.3-2.9c0.6-0.3,0.8-1.5,1.7-1
	c0.7,0.4,0.3,1.2,0.3,1.8c0.1,0.9-0.1,1.9-0.1,2.8c0,0.5-0.1,1-0.3,1.5c-0.3,0.7-0.7,1.3-1,2C16,28.4,15.5,28.7,15,28.8z"/>
<path class="st322" d="M17.4,24.8c-0.6-1-0.1-2,0-2.9c0.2-1.9-0.6-1.9-1.9-1.1l0.4-1.5c0.9,0.1,1.1-0.8,1.6-1.2
	c0.4,0.4,1,0.6,1.5,0.6c-1.9,1.8-1,4.1-1.2,6.2C17.8,24.9,17.6,25,17.4,24.8C17.4,24.8,17.4,24.8,17.4,24.8z"/>
<path class="st323" d="M14.3,23.8c-0.4,1.4-0.5,2.9-0.4,4.4c-0.1,0-0.3,0.1-0.4,0.2l-0.1-3C13.5,24.7,13.3,23.9,14.3,23.8z"/>
<path class="st324" d="M16.3,40.6h-1.7c-0.4-0.5-0.4-1.2,0-1.7c0.3-0.3,0.8-0.3,1.1,0c0,0,0,0,0,0C16.4,39.3,16.2,40,16.3,40.6z"/>
<path class="st325" d="M15.7,38.9h-1.1c-1.2,0.4-1.8-1.1-2.8-1.1c0.2-0.4,0.7-0.6,1.1-0.6c0.6-0.2,0.7,0.1,0.6,0.6
	C13.9,38.7,15.2,38,15.7,38.9z"/>
<path class="st326" d="M13.4,37.8l-0.6-0.6v-0.5h0.6h1.1c0.1,0.5-0.3,1-0.9,1.1C13.6,37.8,13.5,37.8,13.4,37.8z"/>
<path class="st323" d="M13.5,28.6c0.4,0.9,0.6,2,0.5,3C13.1,30.7,13.5,29.6,13.5,28.6z"/>
<path class="st327" d="M17.4,35.5l-1.6-2.8c0.4-0.9-0.4-2.4,1.3-2.7c0.4-0.1,0.8,0,1.2,0.2c0.2,0.1,0.4,0.3,0.5,0.6
	c0.6,1.2,0.3,2.5,0.8,3.7c0.2,0.8,0.6,1.6,0,2.3C18.4,37.2,17.8,36.7,17.4,35.5z"/>
<path class="st328" d="M17.4,30.4c-1.6,0-0.8,1.7-1.5,2.2c-0.3-1.3-0.5-2.6-0.8-3.9c0.2-0.4,0.5-0.7,0.7-1.1c0.4-0.4,1-0.5,1.5-0.2
	C18,28.3,18.1,29.5,17.4,30.4z"/>
<path class="st329" d="M17.4,35.5c0.8,0.3,1.2,1.3,2.2,1.2c0.2,0.2,0.3,0.4,0.3,0.6c0,0.2-0.1,0.5-0.2,0.7c-0.2,0.3-0.6,0.5-0.9,0.5
	c-0.8-0.1-1.7-0.4-2.4-0.8l-0.3-0.5c0.1-0.2,0.1-0.3,0.1-0.5C16.2,36.1,16.7,35.5,17.4,35.5C17.4,35.5,17.4,35.5,17.4,35.5z"/>
<path class="st330" d="M24.2,18.5c0.1-1.1,0.9-1,1.7-1c0.5,0,0.9,0.2,1.1,0.6c0.2,0.2,0.3,0.4,0.3,0.6c0,0.8-0.2,1.5-1.1,1.8
	c-0.3,0-0.5,0-0.7-0.2C24.8,20,24.3,19.3,24.2,18.5z"/>
<path class="st331" d="M26.9,18.6c0-0.2,0.1-0.3,0.1-0.5l0.5-0.2l0.2,0.3c0,0.2-0.1,0.4-0.2,0.6C27.3,18.8,27.1,18.8,26.9,18.6z"/>
<path class="st332" d="M27.5,17.9l0.5-0.5l0.2,0.3c-0.1,0.2-0.3,0.4-0.6,0.4C27.6,18.1,27.6,18,27.5,17.9z"/>
<path class="st332" d="M28.8,17c-0.1,0.2-0.1,0.3-0.1,0.5l-0.2,0.2l-0.3-0.1l-0.1-0.1L28.8,17z"/>
<path class="st333" d="M24.2,18.5c0.7,0.5,1.4,0.9,1.6,1.9c-1.1,1.2-2.2,1.5-3.3,0l0.6-1.8L24.2,18.5z"/>
<path class="st334" d="M28.7,17.5h1.1c0.6,0.3,0.8,1.2,1.7,1.2c0.1,0.1,0.2,0.2,0.2,0.4c0,0.2,0,0.2,0,0.2c-0.3,0.2-0.5,0.5-0.8,0.8
	c-0.6,0.4-1.4,0.5-2.1,0.5c-0.5-0.1-0.9-0.3-1.3-0.7c-0.1-0.2-0.2-0.5-0.1-0.7C27.9,18.7,28.3,18.1,28.7,17.5L28.7,17.5z"/>
<path class="st335" d="M31.5,19.2c0-0.2,0-0.4,0-0.6c0.6,0,1.3-0.1,1.7,0.6c-0.4,0.7-1.1,0.5-1.7,0.6c-0.2-0.1-0.2-0.2-0.2-0.4
	S31.4,19.2,31.5,19.2z"/>
<path class="st294" d="M31.5,19.2c0,0.2,0,0.4,0,0.6l0.6,1.1c0.1,0.4,0,0.8-0.1,1.1c-0.1,0.4-0.4,0.7-0.7,0.9
	c-0.5,0.2-1.1,0.1-1.6-0.2c-0.4-1.1,0.1-2.4,1.2-2.9L31.5,19.2z"/>
<path class="st336" d="M31.6,21.6l0.5-0.8c0.9,0.1,2.1-0.2,2.3,1.2c0,0.2-0.1,0.4-0.1,0.6c-0.6,0.3-1-0.3-1.5-0.4
	C32.3,22,31.9,21.8,31.6,21.6z"/>
<path class="st337" d="M25.3,40.1L24.2,40c-0.1-0.6-0.7-0.6-1.1-0.7c0-0.5,0.4-0.8,0.8-1.1c0.7-0.6,0.5-1.8,1.5-2.3
	c1,0,1.9-0.1,2.9-0.3c0.4,0,0.8,0.1,1.1,0.3c0.2,0.2,0.3,0.4,0.3,0.7c-0.7,1.8-2.9,1.8-3.9,3.3L25.3,40.1z"/>
<path class="st338" d="M24.2,40.6c1.4,1,3.2,0.2,5.3,1.1c-1.7,0.9-2.9,0.5-4.1,0.6C24.9,41.7,23.2,42,24.2,40.6z"/>
<path class="st339" d="M19.1,38.3l0.6-0.6c0.2-0.2,0.4-0.3,0.6-0.3c0.2,0,0.5,0.1,0.7,0.2c0.4,0.3,0.7,0.7,0.4,1.2
	c-0.2,0.9-1.3,1-1.7,1.8c-0.2,0-0.3-0.1-0.5-0.1c0-0.2-0.1-0.3-0.1-0.5C18.6,39.6,18.6,38.8,19.1,38.3z"/>
<path class="st340" d="M21.4,38.8l-0.7-1c0.3-0.3,0.7-0.5,1.1-0.6c0.7,0,1.4,0.2,2,0.6c0.3,0.3,0.6,0.6,0.4,1l-1.1,0.4L21.4,38.8z"
	/>
<path class="st244" d="M30.3,39.9c0,0.2,0,0.4,0,0.6c-1.7-0.1-3.5,0.6-5.1-0.5v-0.2c1-0.4,2.2-0.6,3.3-0.5
	C29.2,39.2,29.8,39.5,30.3,39.9z"/>
<path class="st341" d="M19.1,38.3v1.7c-1.2-0.3-2.2-1.2-2.6-2.3C17.3,37.3,18.4,37.6,19.1,38.3z"/>
<path class="st342" d="M30.3,39.9h-1.6c-0.8-0.8-1.1-1.4,0.1-2.2c0.9-0.7,2.2-0.9,2.8-2c0.4-0.5,0.8-1.2,1.6-0.8
	c0.4,0.9-1.6,2.9,1.2,2.8c0,0.2-0.1,0.3-0.1,0.5c-0.6,0.7-1.6,0.6-2.3,1.1L30.3,39.9z"/>
<path class="st343" d="M32,39.4c0.5-0.9,1.4-1,2.3-1.1c-0.2,0.6-0.6,1-1.1,1.2L32,39.4z"/>
<path class="st344" d="M33.2,35L32,36c-0.8,0.7-1.7,1.3-2.8,0.6v-0.6c-0.3-0.5,0-0.9,0.3-1.3c0.2-0.3,0.5-0.5,0.9-0.7
	c0.5-0.2,0.9-0.3,1.4-0.2c0.2,0,0.5,0,0.7,0.1c0.2,0.1,0.4,0.2,0.6,0.4L33.2,35z"/>
<path class="st345" d="M33.1,34.3h-0.3l-0.2-0.1C32,33.7,32,32.7,32.6,32c0.6-0.8,1.6-0.2,2.3-0.5C35.1,33,33.9,33.5,33.1,34.3z"/>
<path class="st346" d="M37.1,27.7c0-0.8-2-0.3-1.1-1.7c0.2-0.2,0.4-0.4,0.6-0.6h-0.1C37.7,25.8,38.6,26.4,37.1,27.7z"/>
<path class="st347" d="M36,29.8c0-0.3,0.2-0.5,0.5-0.5C36.5,29.7,36.4,29.9,36,29.8z"/>
<path class="st348" d="M24.2,28.8c1.8,0.8,3.4,1.9,3.9,3.9c-0.1,0.4-0.3,0.7-0.7,0.9c-0.5,0.2-1,0.2-1.5,0c-0.6-0.1-1.2-0.4-1.8-0.8
	c-0.5-1.3-1.5-2.5-1.3-4.1c0.2-0.5,0.8-0.8,1.4-0.7c0.2,0.1,0.3,0.4,0.2,0.6C24.4,28.7,24.3,28.8,24.2,28.8z"/>
<path class="st349" d="M29.2,28.2c-1.2,0.8-2.8,0.8-3.9-0.1c-0.1-0.9,0.5-0.8,1.1-0.9C27.4,27.5,28.5,27.3,29.2,28.2z"/>
<path class="st350" d="M32.6,32c0,0.8,0,1.5,0.1,2.3L32,34.4c-0.3-0.5-1-0.6-1.2-1.2c-0.1-0.2,0-0.5,0.2-0.6
	C31.3,31.9,32,32.3,32.6,32z"/>
<path class="st351" d="M30.9,32.7c0,0.2,0,0.3,0,0.5c-0.2,0.6-0.7,0.7-1.1,1c-0.4,0.1-0.8,0.1-1.1,0c-0.5-0.1-0.9-0.5-1.2-0.9
	l0.6-0.5L30.9,32.7z"/>
<path class="st352" d="M33.2,25.9l1.3,0C33.7,27.3,32.3,27,31,27c-0.1-0.1-0.2-0.2-0.2-0.4c0-0.2,0-0.2,0.1-0.2
	c0.5-0.4,1.1-0.6,1.7-0.7C32.7,25.6,33,25.7,33.2,25.9z"/>
<path class="st353" d="M29.2,28.2c-1-0.1-2,0.3-2.8-0.5l0.2-0.3c0.3-0.2,0.6-0.3,1-0.4c0.7-0.2,1.4-0.2,2.1-0.2l0.2,0.3L29.2,28.2z"
	/>
<path class="st354" d="M26.4,27.7c-0.4-0.1-0.9,0-1.1,0.4l-1.1,0.6c0-0.2-0.1-0.4-0.1-0.6c-0.1-0.2-0.2-0.4-0.1-0.7
	c0.2-0.3,0.4-0.6,0.7-0.8c0.4-0.4,0.9-0.5,1.4-0.3c0.4,0.3,0.7,0.6,0.5,1.2L26.4,27.7z"/>
<path class="st353" d="M30.9,26.5c0,0.2,0,0.4,0,0.5l-1,0.2L29.7,27c-0.6-0.2-1.1-0.5-1.2-1.3c0.2-0.6,0.6-0.7,1.2-0.7
	c0.5,0.1,1,0.4,1.3,0.8C31.2,26,31.1,26.3,30.9,26.5z"/>
<path class="st355" d="M36.6,25.3L36,25.9v-0.5L36.6,25.3z"/>
<path class="st356" d="M33.2,21.4c0.8-0.1,0.5,1,1.1,1.2v1.1l-2.3,0c-0.1-0.1-0.2-0.2-0.2-0.3C31.4,22.1,32.3,21.8,33.2,21.4z"/>
<path class="st357" d="M30.9,25.9c-0.5,0-0.9-0.2-1.1-0.6c0.1-0.4,0.3-0.7,0.5-0.9c0.3-0.4,0.7-0.7,1.1-1c0.2-0.1,0.5-0.1,0.7,0.1
	L32,23.7l1.1,2.2c-0.2,0.1-0.3,0.1-0.5,0.1C32.1,25.8,31.5,26.3,30.9,25.9z"/>
<path class="st358" d="M25.9,26.5l-1.1,0.6c-1,0.2-1-0.6-1-1.2c0.2-0.7,0.8-1.4,0.7-2.2c-0.1-0.3-0.4-0.4-0.6-0.5
	c-0.7,0.1-0.3,0.5-0.2,0.8c0.1,0.2,0.2,0.4,0.3,0.6c0,0.4,0,0.7-0.3,1c-0.2,0.1-0.4,0.3-0.7,0.3c-0.5,0.1-1,0-1.5-0.2
	c-0.3-0.3-0.6-1.4-1.1-0.1c-0.1,0.4-0.3,0.7-0.5,1c-0.4,0.3-0.9,0.2-1.2-0.1c-0.2-0.3-0.3-0.6-0.1-1c0.5-1.5,0.1-3.6,2.7-3.5
	c0.9,0,0.6-1.3,1.3-1.6c1,0.5,2.3,0.5,3.3,0l0.2-0.1c0.4,0.3,1,0.2,1.4,0.6c0.9,1.1,0.3,2.3,0.3,3.5c-0.1,0.8-0.4,1.6-1,2.2
	C26.4,26.7,26.1,26.7,25.9,26.5z"/>
<path class="st359" d="M18.5,25.4l0.5,1c0,0.4-0.3,0.8-0.7,0.9c-0.9,0-1.6-0.2-1.5-1.3c0-0.5,0.2-1,0.6-1.2h0.5L18.5,25.4z"/>
<path class="st360" d="M16.8,26c0.4,0.6,1,1,1.8,1c0.2-0.1,0.5,0,0.6,0.2c0,0,0,0,0,0c0,0.3-0.1,0.5-0.3,0.6
	c-0.5,0.3-1.1,0.2-1.5-0.2c-0.6-0.3-1.1-0.1-1.7,0L16.8,26z"/>
<path class="st361" d="M21.9,37.8h-1.2c-0.1,0-0.3,0-0.4-0.1c-0.2-0.1-0.4-0.3-0.6-0.6c0-0.1-0.1-0.3-0.1-0.4
	c-0.2-0.8-0.3-1.5-0.5-2.3c0.4-0.4,1.1-0.5,1.6-0.3c0.4,0.3,0.6,0.6,0.8,1C22,35.9,22.8,36.7,21.9,37.8z"/>
<path class="st328" d="M20.8,34.4h-1.7c-0.7-1-0.1-2.3-0.6-3.4c0.6-0.6,1.1-0.3,1.6,0.1c0.2,0.2,0.3,0.4,0.5,0.6
	c0.3,0.5,0.5,1.1,0.6,1.7C21.2,33.8,21.1,34.1,20.8,34.4z"/>
<path class="st362" d="M17.4,27.7l1.6-0.1c1,1.2,0.5,2.1-0.5,2.9h-1.1C17.6,29.5,16.8,28.6,17.4,27.7z"/>
<path class="st363" d="M18.5,30.4c0.1-1,0.8-1.9,0.5-2.9l0,0c0.6-0.3,1,0.1,1.4,0.5c0.2,1.2,0.6,2.3-0.3,3.4L18.5,31L18.5,30.4z"/>
<path class="st364" d="M19.7,37.1l0.6,0.6h-0.6C19.7,37.6,19.7,37.3,19.7,37.1z"/>
<path class="st365" d="M27,20.9c-0.4-0.1-1.1,0.2-1-0.7c1.1-0.1,0.4-1.3,1-1.7h0.6c0.2,0.1,0.3,0.2,0.2,0.3s-0.1,0.2-0.2,0.2
	l-0.1,0.6C28,20.4,27.9,20.8,27,20.9z"/>
<path class="st366" d="M27.6,19.2l-0.1-0.6c0.1-0.1,0.2-0.3,0.2-0.4l0.5-0.6c0.2,0,0.3,0,0.5,0C28.7,18.3,28.3,18.9,27.6,19.2z"/>
<path class="st367" d="M30.9,19.7l-1.1,2.8c0.3,0.3,0.4,0.8,0.2,1.2c-0.4,0.6-1.2,0.8-1.9,0.5c-1.3-1.5,0.3-2.6,0.6-3.9
	C29.4,19.9,30.2,19.7,30.9,19.7z"/>
<path class="st366" d="M28.7,20.3c-0.1,0.4,1.2,0.7,0.3,1.1c-1.4,0.7-0.6,1.8-0.8,2.8l-0.2,0.2c-0.3,0.2-0.7,0.1-0.9-0.1
	c-0.4-1.2,0.5-2.3-0.1-3.5c0.2-0.4,0.3-0.8,0.5-1.2C28,19.7,28.4,19.9,28.7,20.3z"/>
<path class="st368" d="M29.8,23.7v-1.1h1.7c0.4,0.3,0.3,0.6,0.1,1c-0.1,0.7-0.4,1.2-1.2,1.2C29.9,24.6,29.5,24.3,29.8,23.7z"/>
<path class="st369" d="M31.5,23.6l-0.1-1l0.1-1c0.5-0.3,1.1-0.3,1.6-0.1c-0.6,0.6-1.3,1.1-1.1,2.1L31.5,23.6z"/>
<path class="st370" d="M29.2,36.7c1.1,0.5,1.7-1.2,2.8-0.6c0,1-0.4,1.3-1.5,1.5s-2.5,0.7-1.9,2.5l-3.4-0.1
	C25.8,37.7,28.1,37.9,29.2,36.7z"/>
<path class="st371" d="M24.2,38.8l-0.6-0.5c-0.6-1-1.2-2.1-1.8-3.2c-0.2-0.6,0-1.3,0.4-1.8c0.2-0.2,0.4-0.3,0.6-0.3
	c0.1,0,0.2,0,0.4,0.1c0.2,0.1,0.4,0.2,0.6,0.4c0.3,0.2,0.5,0.5,0.7,0.8c0.2,0.3,0.3,0.6,0.5,0.9c0.2,0.3,0.3,0.6,0.3,1
	C24.7,37,25.3,38.3,24.2,38.8z"/>
<path class="st372" d="M24.7,35.6c-0.4-0.2-0.7-0.7-0.5-1.1c0,0,0-0.1,0-0.1c0.2-0.2,0.5-0.3,0.8-0.3c1.5,0.3,3.3-0.2,4.7,1l-0.5,1
	h-1.1C27,35.9,25.8,36.1,24.7,35.6z"/>
<path class="st373" d="M24.7,35.6c1.2,0.1,2.4-0.5,3.4,0.5c-0.8,0.7-2,0.7-2.9,0.1L24.7,35.6z"/>
<path class="st374" d="M21.9,34.9c1.1,0.7,1.8,2,1.7,3.4l-1.7-0.6c0.2-1.1-0.5-1.6-1.1-2.2C21.1,35.2,21.3,34.6,21.9,34.9z"/>
<path class="st375" d="M29.7,35c-1.6-0.4-3.4,0.5-5-0.7c-0.2-0.2-0.1-0.5,0.1-0.7c0,0,0.1,0,0.1-0.1c1.2-0.1,2.5-0.1,3.7,0.1
	l1.2,0.1c0.6-0.2,0.8,0.1,0.7,0.7L29.7,35z"/>
<path class="st376" d="M30.5,34.4l-0.7-0.7l1.2-0.6c0.7,0.1,1.2,0.4,1,1.2L30.5,34.4z"/>
<path class="st377" d="M20.2,31.5c0.1-1.1-0.4-2.2,0-3.3c0.2-0.2,0.4-0.3,0.7-0.3c0.8,0,1.6,0.3,2.1,0.9c0.2,1.3,1.7,2.3,1.1,3.9
	c-0.2,0.3-0.7,0.5-1.1,0.3C22,32.8,21,32.4,20.2,31.5L20.2,31.5z"/>
<path class="st378" d="M23,28.8c-0.8,0.1-1.6-0.2-2.3-0.6c0.9-1.8,2.1-1.3,3.4-0.5c0,0.2-0.1,0.4-0.1,0.6L23,28.8z"/>
<path class="st379" d="M23,32.7l1.1-0.1c0.6,0.2,1.3,0.1,1.7,0.6c-0.3,0.4-0.8,0.2-1.1,0.5v0.6h-0.2h-0.2c-0.2-0.2-0.3-0.4-0.5-0.6
	c-0.1-0.4-0.5-0.3-0.7-0.5v-0.2c-0.1-0.1-0.2-0.2-0.2-0.3S23,32.7,23,32.7z"/>
<path class="st380" d="M24.7,33.8l1.1-0.5h1.6l1.1,0.4L24.7,33.8z"/>
<path class="st314" d="M30.9,25.9c0.6-0.2,1.2-1,1.7,0c-0.4,0.6-1.1,0.5-1.7,0.5C30.9,26.3,30.9,26.1,30.9,25.9z"/>
<path class="st381" d="M28.7,25.9l1,1.2c-0.6,0.6-1.4,0.9-2.3,0.7c-0.2-0.3-0.3-0.7-0.2-1c0.1-0.4,0.4-0.7,0.7-0.8
	C28.2,25.7,28.5,25.7,28.7,25.9z"/>
<path class="st382" d="M27.6,26.6l-0.2,1.1l-1-0.1c-0.2-0.4-0.4-0.7-0.6-1.1c0.2,0,0.3-0.1,0.5-0.1C26.8,26.1,27.3,26.2,27.6,26.6z"
	/>
<path class="st383" d="M24.2,27.7c-1.1,0.2-2.4-0.4-3.4,0.5l-0.5,0L19,27.6c0-0.3-0.1-0.5-0.5-0.5c-0.1-0.3,0.1-0.5,0.5-0.6h0.6
	c0.9-1.1,2.5-0.1,3.4-1.1h0.6c0.1-0.1,0.3-0.1,0.4,0c0,0,0.1,0.1,0.1,0.1c0,0.6-0.1,1.2,0.6,1.6L24.2,27.7z"/>
<path class="st366" d="M28.7,25.9L28.1,26c-0.5-0.4-0.5-1.1-0.1-1.6l0.1-0.1l1.7-0.5l0.6,1.1c-0.2,0.2-0.4,0.4-0.6,0.6
	C29.4,25.4,28.9,25.4,28.7,25.9z"/>
<path class="st384" d="M23,25.4c-0.6,2-2.3,0.8-3.4,1.1v-1.1c0.6-0.8,1.1-1,1.7,0H23z"/>
<path class="st385" d="M24.2,25.5c-0.2-0.1-0.3-0.1-0.5-0.1l-0.1-1c-0.5-1.8,0.5-1.5,1.6-1.2C25.6,24.1,25.1,25.1,24.2,25.5
	C24.2,25.5,24.2,25.5,24.2,25.5z"/>
<path class="st386" d="M28,24.4l0.1,1.6l-0.5,0.6l-1.3-0.1c0.2-0.7,0.5-1.4,0.7-2.1L28,24.4z"/>
<path class="st318" d="M21.3,25.4c-0.5-0.3-1.2-0.3-1.7,0c0.1-0.7,0.1-1.6,1.3-1.3C21.7,24.3,21.6,24.8,21.3,25.4z"/>
<path class="st387" d="M25.2,23.1c-0.9-0.1-1.6,0.1-1.6,1.2c-0.1-0.1-0.3-0.1-0.4-0.1c-0.5-0.8-0.7-1.4,0.4-1.8
	C24,22.8,25,22.1,25.2,23.1z"/>
<path class="st388" d="M23.6,22.4c-0.8,0.5-0.5,1.2-0.4,1.8c-0.7-0.3-0.8-1-0.6-1.6S23.1,22,23.6,22.4z"/>
<path class="st389" d="M21.9,34.9l-1.1,0.6c0-0.4,0-0.8,0-1.1l0.1-1.3c0.5-0.4,1.2-0.3,1.6,0.2c0,0,0,0.1,0.1,0.1L21.9,34.9z"/>
<path class="st390" d="M22.5,33.4l-1.7-0.3c-0.2-0.5-0.8-0.9-0.6-1.5c1,0.1,2,0.4,2.8,1.1c0,0.2,0,0.3,0,0.5L22.5,33.4z"/>
<path class="st391" d="M23,33.3c0.3,0.1,1-0.5,0.7,0.5L23,33.3z"/>
</svg>
