<svg id="Layer_1" data-name="Layer 1" xmlns="http://www.w3.org/2000/svg" viewBox="0 0 57.53 47.72"><defs><style>.cls-1{fill:#f4d8ce;}</style></defs><path class="cls-1" d="M69.44,78.24c-.35-.17-.73,0-1.08-.09.17,0,.34-.05.51-.06s.53,0,.92,0Z" transform="translate(-35.21 -33.14)"/><path class="cls-1" d="M92.29,74.76a11.48,11.48,0,0,0-1.22-1.29,11.52,11.52,0,0,1-2-2.53.81.81,0,0,1,0-1,8.17,8.17,0,0,0,1-2.22,6.38,6.38,0,0,0-1-6.12c-1-1.15-2.13-2.17-3.1-3.36a4.31,4.31,0,0,0-3.23-1.22,5.51,5.51,0,0,1-3.44-1.38,3.16,3.16,0,0,0-4.38.38A15,15,0,0,0,73.57,58a7.61,7.61,0,0,1-1.77,2.25,3.24,3.24,0,0,1-3.61.56,5.64,5.64,0,0,0-3.56-.31,15.4,15.4,0,0,0-4.34,1.73,38.51,38.51,0,0,1-4.08,2c-1.09.41-1.08.41-1.4-.71-.06-.23,0-.31.19-.41a8,8,0,0,1,1.58-.55,11.33,11.33,0,0,0,2.66-.92,6.75,6.75,0,0,0,3.68-4.69,3,3,0,0,1,1.72-2.37A5.15,5.15,0,0,0,67.47,51c.57-2-.17-4.44-1.89-5.13-.17-.07-.14-.17-.07-.3a7.88,7.88,0,0,1,1-1.52,1.28,1.28,0,0,1,1.58-.4,4.11,4.11,0,0,0,.6.17,2.09,2.09,0,0,0,2-1,1.5,1.5,0,0,0-.06-1.83,5.32,5.32,0,0,0-2-1.71,2,2,0,0,0-2.91.75,1.12,1.12,0,0,0-.08,1.26c.2.34.42.68.63,1a.35.35,0,0,1,0,.47c-.52.66-1.07,1.31-1.65,1.92-.11.12-.2.18-.37.09a4.09,4.09,0,0,0-3.39,0c-.67.25-1.33.55-2,.76a1.42,1.42,0,0,1-1.92-.86c-.19-.38-.14-.59.28-.73a10.28,10.28,0,0,0,3.49-2.31c.77-.71.69-1-.3-1.37a14.3,14.3,0,0,1-3.13-1.31,1.17,1.17,0,0,1-.56-.71c-.23-.73-.48-1.45-.76-2.16a3.34,3.34,0,0,0-1.7-1.93,9.62,9.62,0,0,0-5.46-.9,10.11,10.11,0,0,0-7.18,4.45,4.1,4.1,0,0,1-3.53,2.1,2.31,2.31,0,0,0-1.72.94,4.8,4.8,0,0,0-1.12,3.18c0,2.13.51,3,2.35,3.75.42.17.57.38.5.8,0,.14,0,.29,0,.43a4.93,4.93,0,0,0,.6,3.1c.26.49.57,1,.87,1.42a.57.57,0,0,1,0,.8,7.55,7.55,0,0,0-.63,1,2.94,2.94,0,0,0,2.25,4.43c.9.08,1.79,0,2.68,0a1.89,1.89,0,0,1,2.16,1.5,15.53,15.53,0,0,0,1.45,3,15.63,15.63,0,0,1,1.11,2c.1.21.08.33-.14.45a14.85,14.85,0,0,0-1.87,1.25A3.68,3.68,0,0,0,45,70.13a7.16,7.16,0,0,0,1.93,6.16,5.87,5.87,0,0,1,1.67,2.79,3.76,3.76,0,0,0,.6,1.34.66.66,0,0,0,.56.31c3.23,0,6.45.2,9.68.1a10,10,0,0,0,1.34-.14A11.31,11.31,0,0,0,64.49,79a1.31,1.31,0,0,1,1.13-.18c.55.17,1.09.35,1.64.51a4.48,4.48,0,0,0,2.33.13c-.24-.54-.91-.3-1.19-.73l1-.5c-.34-.26-.72-.08-1.08-.09-.19-.08-.48.14-.59-.24a12.77,12.77,0,0,1-.38-6.52A11,11,0,0,1,70.9,66c.75-.69,1.56-1.3,2.39-2a3.47,3.47,0,0,0-1.85.87c-1.1.73-1,.8-1.36-.53a2.22,2.22,0,0,1,1.54-2.7,1.33,1.33,0,0,0,.29,1c.7-2,1.64-3.68,3.84-4.31l-.21-.24c-.47-.54-.43-.83.19-1.22a6.16,6.16,0,0,1,1.43-.65,1.41,1.41,0,0,1,1.48.26,6.51,6.51,0,0,0,3.66,1.5,4.69,4.69,0,0,1,2.92,1.18,23.52,23.52,0,0,1,3,3.62,6.18,6.18,0,0,1-.2,7.18,12.21,12.21,0,0,1-1.22-1.6,1.81,1.81,0,0,0,0,1c.14.56.32,1.11.42,1.67a10.48,10.48,0,0,1-1.39,7.09c-.48.84-1,1.67-1.55,2.63.62,0,1.13,0,1.63,0A2.28,2.28,0,0,0,87.77,80c.37-.4.79-.76,1.12-1.19a2.57,2.57,0,0,1,2-1,2.06,2.06,0,0,0,1.65-1.37A1.42,1.42,0,0,0,92.29,74.76ZM68.07,39.47a6.62,6.62,0,0,1,2.29,2.23.45.45,0,0,1,0,.51,1.64,1.64,0,0,1-2.75.62,5.91,5.91,0,0,1-1.12-1.17c-.14-.19-.17-.33.06-.46s.23-.18.36-.24A1.92,1.92,0,0,0,68.07,39.47Zm-1.8,1.11c.14-.65.37-1.13,1.11-1.27C67.07,39.82,66.86,40.32,66.27,40.58ZM38.49,45.39,39,47a3,3,0,0,1-2.77-3.69,3.86,3.86,0,0,1,.94-2,1.92,1.92,0,0,1,2.27-.73c.25.11.42-.19.57-.35s.5-.43.71,0a.32.32,0,0,0,.28.17c.18,0,.12-.16.14-.25a5.49,5.49,0,0,1,1.21-2.3A10,10,0,0,1,49.2,34c2.12-.19,4,.22,5.41,2.05a5.6,5.6,0,0,1,.94,2.33c.05.28,0,.35-.29.39-2.33.3-4.65.6-7,1a18.64,18.64,0,0,0-8.88,3.65l-.4.34A1.44,1.44,0,0,0,38.49,45.39Zm11.66-4.51a.92.92,0,0,1-1,.8c-.54,0-.88-.29-.87-.77S48.6,40,49,40C49.6,40,50.17,40.41,50.15,40.88ZM50,66.07a17.64,17.64,0,0,1-2.64-4.69,4.51,4.51,0,0,0-1.68-2.32c-.29-.18-.29-.52-.41-.79s-.24-.63-.36-1c-.17.14-.19.34-.27.5A2.25,2.25,0,0,1,42.1,59.1a3,3,0,0,1-2.61-2.38,2.1,2.1,0,0,1,1.85-2.45,4.46,4.46,0,0,1,1.85.21c-.13-.44-.28-.61-.71-.69a13,13,0,0,0-1.38-.16.38.38,0,0,1-.38-.22,13.08,13.08,0,0,1-1.5-3.65,4.45,4.45,0,0,1,1-3.93A10.86,10.86,0,0,1,47.13,42a6,6,0,0,1,1.2,0,3.12,3.12,0,0,0,2.24-.42c.31-.25.74-.13,1.12-.07.19,0,.13.23.12.36,0,.43-.09.85-.12,1.28a1.29,1.29,0,0,0,.43,1,3.38,3.38,0,0,0,0-1,1.16,1.16,0,0,1,1.84-1.12,3.39,3.39,0,0,1,1.2,1.21,13.31,13.31,0,0,1,1.08,2.13,1.24,1.24,0,0,0,.62.76c.35.16.22.3,0,.44s-.59.34-.58.76c.15,0,.29-.06.43-.11.4-.12.78-.27,1.18-.39,1-.28,2-.41,2.7.55a3,3,0,0,1,.25,3.41,5.43,5.43,0,0,1-3.63,2.28A4.78,4.78,0,0,1,54.53,53a2.41,2.41,0,0,1-1.45-3.27,1.28,1.28,0,0,1,.69-.7l.87-.43a1.22,1.22,0,0,0-1.77.45,3.3,3.3,0,0,0-.49,1.78c0,.35-.14.39-.43.33a14.15,14.15,0,0,0-2.42-.29,5.14,5.14,0,0,0-3.67,1.27,3.28,3.28,0,0,0-.7,3.82c.07.19.2.19.34.19.3,0,.61,0,.91,0,.1,0,.18,0,.11-.12-.28-.18-.58-.34-.84-.54a1.24,1.24,0,0,1-.41-1.62,3.67,3.67,0,0,1,3.23-2.41,24.14,24.14,0,0,1,2.69,0,1.75,1.75,0,0,1,1.38.71H51.23a9.62,9.62,0,0,0-3.42.35,2.32,2.32,0,0,0-1.67,1.91c0,.25,0,.4.31.42.49,0,1,.11,1.48.18a1.25,1.25,0,0,0-.39-.64c-.27-.29-.21-.52.09-.76a4.52,4.52,0,0,1,3-1,15.48,15.48,0,0,1,3.37.67,7.44,7.44,0,0,0,4.33.15,5.2,5.2,0,0,0,3.28-3.14,2.48,2.48,0,0,0-.22-2.3c-.29-.48-.6-.94-.93-1.39-.17-.25-.16-.39.07-.59a3.22,3.22,0,0,1,3.95-.19,5,5,0,0,1,.85,7,7.23,7.23,0,0,1-1.51,1.25c-.21.13-.33.12-.43-.12a4.22,4.22,0,0,0-.43-.73c-.07.76-.16,1.5-.3,2.23A7.61,7.61,0,0,1,60,59.86a8.46,8.46,0,0,1-6.4,2.39,12.58,12.58,0,0,1-4.48-1.31c-.13-.07-.25-.21-.45-.1a2.88,2.88,0,0,0,1.09,1.1,18.56,18.56,0,0,0,3.95,1.81,1,1,0,0,1,.71.83,8.52,8.52,0,0,0,.2.84c0,.21,0,.44.36.47a.68.68,0,0,0,.75-.25,4.17,4.17,0,0,1,5.21-.78,16.36,16.36,0,0,1,1.67,1.53,4.81,4.81,0,0,1-.62,0,12.21,12.21,0,0,0-4.89.25c-1.26.22-2.49.55-3.76.76A3.32,3.32,0,0,1,50,66.07ZM64.53,78.19a2.57,2.57,0,0,1-2.2,1.15A1.33,1.33,0,0,1,61,77.51a8.68,8.68,0,0,1,1.38-2.71c.62-.89,1.28-1.75,2-2.69a1.87,1.87,0,0,0-1.5,1.16,15.73,15.73,0,0,1-2,2.94,5.27,5.27,0,0,1-.93,1,.62.62,0,0,1-.78.06,1.79,1.79,0,0,1-1-2.4,5.25,5.25,0,0,1,3.09-3.27L62.64,71a1.49,1.49,0,0,0-1.14-.1,3.37,3.37,0,0,0-1.17.54,7.18,7.18,0,0,0-3.07,3.67c-.15.51-.43.59-.92.48A1.62,1.62,0,0,1,55,73.35a4,4,0,0,1,3-3L60,69.63c0-.15-.2-.13-.32-.13A5.49,5.49,0,0,0,56,70.8,4.42,4.42,0,0,0,54.36,75c0,.35,0,.49-.4.44-1-.1-1.45-.63-1.49-1.8a4.15,4.15,0,0,1,2-3.63,8.26,8.26,0,0,1,4.94-1.39,13.48,13.48,0,0,1,2.61.31,6.85,6.85,0,0,1,4.27,2.94,1.63,1.63,0,0,1,.14,1.29A10,10,0,0,1,64.53,78.19Zm2.77.5c0,.12-.29,0-.43-.06-.48-.16-1-.33-1.08-.94s.09-.77.55-.77a.68.68,0,0,1,.59.34,1.32,1.32,0,0,1,.18.33A1.79,1.79,0,0,1,67.3,78.69Z" transform="translate(-35.21 -33.14)"/><path class="cls-1" d="M46.52,56.09a.85.85,0,0,1,.17.06s.05.07.08.11a.41.41,0,0,1-.36,0Z" transform="translate(-35.21 -33.14)"/><path class="cls-1" d="M52.27,46.61a1.41,1.41,0,0,1,.88,1.66c0,.21-.12.29-.34.27a2.5,2.5,0,0,1-1.47-.65,13.34,13.34,0,0,1-1.67-1.77A10.66,10.66,0,0,0,48.58,45a3.63,3.63,0,0,0-1-.64c-1-.41-1.44-.11-1.45.94v.77a1.23,1.23,0,0,1-.42-1.62c.26-.69.39-.77,1.13-.68a3.93,3.93,0,0,1,2.54,1.48A18.62,18.62,0,0,0,51,47a3.86,3.86,0,0,0,1.71.9Z" transform="translate(-35.21 -33.14)"/><path class="cls-1" d="M55.45,46.08a1.18,1.18,0,0,1-1.14,1.22,1.16,1.16,0,0,1-1.18-1.18,1.16,1.16,0,1,1,2.32,0Z" transform="translate(-35.21 -33.14)"/><path class="cls-1" d="M40.66,57.17c0-.78-.15-1.52.61-2a1.67,1.67,0,0,1,1.95.57c-.19.19-.63.09-.67.37s.21.48.33.72l.38.77a1.1,1.1,0,0,1-.9-.54,2.8,2.8,0,0,1-.15-.3c-.16-.32-.4-.68-.74-.68s-.4.43-.53.72A.61.61,0,0,1,40.66,57.17Z" transform="translate(-35.21 -33.14)"/><path class="cls-1" d="M51.59,49.26c-1.55,0-1.55,0-2.5.52.07-.82.24-1,1-1.16S51.27,48.62,51.59,49.26Z" transform="translate(-35.21 -33.14)"/><path class="cls-1" d="M42.8,46.71a8.35,8.35,0,0,0,1.79,2.11C43.53,49.15,42.86,48.4,42.8,46.71Z" transform="translate(-35.21 -33.14)"/><path class="cls-1" d="M42.21,49.17c.36.16.68.32,1,.44s.64.21,1,.32A1.35,1.35,0,0,1,42.21,49.17Z" transform="translate(-35.21 -33.14)"/></svg>